<svg width="16" height="16" viewBox="0 0 16 16" fill="none" xmlns="http://www.w3.org/2000/svg">
<path d="M8 0C3.58161 0 0 3.56456 0 7.96191C0 12.3593 3.58161 15.9238 8 15.9238C12.4184 15.9238 16 12.3593 16 7.96191C16 3.56456 12.4184 0 8 0ZM10.6545 11.4806C10.5287 11.6051 10.3968 11.7358 10.2897 11.8427C10.1932 11.939 10.1252 12.0578 10.0906 12.1865C10.0419 12.3682 10.0026 12.5519 9.93677 12.7281L9.37581 14.2322C8.93194 14.3285 8.47258 14.3828 8 14.3828V13.5038C8.05452 13.0986 7.75355 12.3397 7.27 11.8584C7.07645 11.6658 6.96774 11.4045 6.96774 11.1319V10.1042C6.96774 9.73054 6.76548 9.38702 6.43677 9.20627C5.97323 8.95105 5.31387 8.59436 4.86226 8.36803C4.49194 8.18246 4.14935 7.94618 3.84129 7.66976L3.81548 7.64664C3.59518 7.44873 3.39958 7.22518 3.2329 6.98079C2.93032 6.53872 2.43742 5.81155 2.1171 5.33897C2.77742 3.87822 3.96742 2.70512 5.44613 2.06785L6.22064 2.45342C6.56387 2.62422 6.96774 2.37605 6.96774 1.99401V1.63123C7.22548 1.58981 7.48774 1.56349 7.75452 1.55353L8.66742 2.46209C8.86903 2.66274 8.86903 2.98796 8.66742 3.18861L8.51613 3.33886L8.18258 3.67082C8.08194 3.77099 8.08194 3.93376 8.18258 4.03393L8.33387 4.1845C8.43452 4.28466 8.43452 4.44743 8.33387 4.5476L8.07581 4.80443C8.02735 4.85256 7.96168 4.87958 7.89323 4.87956H7.60323C7.53613 4.87956 7.47161 4.90556 7.42323 4.95243L7.10323 5.26224C7.064 5.30026 7.03793 5.34969 7.02876 5.40342C7.0196 5.45714 7.02783 5.51237 7.05226 5.56113L7.55516 6.56247C7.64097 6.73327 7.51613 6.93424 7.32452 6.93424H7.14258C7.08032 6.93424 7.02032 6.91177 6.97355 6.87132L6.67419 6.61256C6.60645 6.55407 6.52458 6.51413 6.43663 6.49669C6.34868 6.47923 6.25768 6.48487 6.17258 6.51303L5.1671 6.8466C5.09033 6.87207 5.02357 6.92094 4.97627 6.98628C4.92896 7.05163 4.90352 7.13013 4.90355 7.21066C4.90355 7.35609 4.98613 7.48869 5.11677 7.55386L5.47419 7.73172C5.77774 7.88293 6.11258 7.96159 6.45194 7.96159C6.79129 7.96159 7.18064 8.83772 7.48419 8.98893H9.63742C9.91129 8.98893 10.1735 9.09712 10.3674 9.28975L10.809 9.72926C10.9935 9.91294 11.0971 10.162 11.0971 10.4217C11.097 10.6185 11.0579 10.8134 10.9819 10.9951C10.906 11.1768 10.7947 11.3418 10.6545 11.4806ZM13.4516 8.54781C13.2648 8.50126 13.1019 8.38729 12.9952 8.22773L12.4152 7.36187C12.3303 7.23537 12.285 7.08667 12.285 6.93456C12.285 6.78245 12.3303 6.63376 12.4152 6.50725L13.0471 5.56402C13.1219 5.45262 13.2245 5.36209 13.3452 5.30237L13.7639 5.09401C14.2 5.95827 14.4516 6.93039 14.4516 7.96191C14.4516 8.24025 14.4277 8.51282 14.3929 8.78185L13.4516 8.54781Z" fill="white"/>
</svg>
