<svg id="eBPfD3dY1im1" xmlns="http://www.w3.org/2000/svg" xmlns:xlink="http://www.w3.org/1999/xlink" viewBox="0 0 42 42" shape-rendering="geometricPrecision" text-rendering="geometricPrecision"><style><![CDATA[#eBPfD3dY1im4_to {animation: eBPfD3dY1im4_to__to 1000ms linear 1 normal forwards}@keyframes eBPfD3dY1im4_to__to { 0% {transform: translate(27px,15px);animation-timing-function: cubic-bezier(0.420000,0,1,1)} 100% {transform: translate(36.195826px,5.632289px)}}]]></style><rect id="eBPfD3dY1im2" width="10" height="10" rx="1" ry="1" transform="matrix(1 0 0 1 0 10)" fill="rgb(125,199,168)" stroke="none" stroke-width="1"/><rect id="eBPfD3dY1im3" width="10" height="10" rx="1" ry="1" transform="matrix(1 0 0 1 11 10)" fill="rgb(81,93,246)" stroke="none" stroke-width="1"/><g id="eBPfD3dY1im4_to" transform="translate(27,15)"><rect id="eBPfD3dY1im4" width="10" height="10" rx="1" ry="1" transform="translate(-5,-5)" fill="rgb(230,85,154)" stroke="none" stroke-width="1"/></g><rect id="eBPfD3dY1im5" width="10" height="10" rx="1" ry="1" transform="matrix(1 0 0 1 0 21)" fill="rgb(125,199,168)" stroke="none" stroke-width="1"/><rect id="eBPfD3dY1im6" width="10" height="10" rx="1" ry="1" transform="matrix(1 0 0 1 11 21)" fill="rgb(125,199,168)" stroke="none" stroke-width="1"/><rect id="eBPfD3dY1im7" width="10" height="10" rx="1" ry="1" transform="matrix(1 0 0 1 22 21)" fill="rgb(230,85,154)" stroke="none" stroke-width="1"/><rect id="eBPfD3dY1im8" width="10" height="10" rx="1" ry="1" transform="matrix(1 0 0 1 0 32)" fill="rgb(125,199,168)" stroke="none" stroke-width="1"/><rect id="eBPfD3dY1im9" width="10" height="10" rx="1" ry="1" transform="matrix(1 0 0 1 11 32)" fill="rgb(125,199,168)" stroke="none" stroke-width="1"/><rect id="eBPfD3dY1im10" width="10" height="10" rx="1" ry="1" transform="matrix(1 0 0 1 22 32)" fill="rgb(230,85,154)" stroke="none" stroke-width="1"/></svg>