<svg width="536" height="417" viewBox="0 0 536 417" fill="none" xmlns="http://www.w3.org/2000/svg">
<g clip-path="url(#clip0)">
<rect x="250" y="55.7906" width="1" height="9" transform="rotate(-90 250 55.7906)" fill="#C7CBD8" fill-opacity="0.7"/>
<rect x="255" y="59.7906" width="1" height="9" transform="rotate(-180 255 59.7906)" fill="#C7CBD8" fill-opacity="0.7"/>
<rect x="296" y="55.7906" width="1" height="9" transform="rotate(-90 296 55.7906)" fill="#C7CBD8" fill-opacity="0.7"/>
<rect x="301" y="59.7906" width="1" height="9" transform="rotate(-180 301 59.7906)" fill="#C7CBD8" fill-opacity="0.7"/>
<rect x="342" y="55.7906" width="1" height="9" transform="rotate(-90 342 55.7906)" fill="#C7CBD8" fill-opacity="0.7"/>
<rect x="347" y="59.7906" width="1" height="9" transform="rotate(-180 347 59.7906)" fill="#C7CBD8" fill-opacity="0.7"/>
<rect x="273" y="55.7906" width="1" height="9" transform="rotate(-90 273 55.7906)" fill="#C7CBD8" fill-opacity="0.7"/>
<rect x="278" y="59.7906" width="1" height="9" transform="rotate(-180 278 59.7906)" fill="#C7CBD8" fill-opacity="0.7"/>
<rect x="319" y="55.7906" width="1" height="9" transform="rotate(-90 319 55.7906)" fill="#C7CBD8" fill-opacity="0.7"/>
<rect x="324" y="59.7906" width="1" height="9" transform="rotate(-180 324 59.7906)" fill="#C7CBD8" fill-opacity="0.7"/>
<rect x="365" y="55.7906" width="1" height="9" transform="rotate(-90 365 55.7906)" fill="#C7CBD8" fill-opacity="0.7"/>
<rect x="370" y="59.7906" width="1" height="9" transform="rotate(-180 370 59.7906)" fill="#C7CBD8" fill-opacity="0.7"/>
<path fill-rule="evenodd" clip-rule="evenodd" d="M231.21 57.3469L233.429 59.5406H235.42L231.921 56.0813C231.528 55.693 230.892 55.693 230.499 56.0813L227 59.5406H228.991L231.21 57.3469ZM231.21 53.7338L233.429 51.5401H235.42L231.921 54.9994C231.528 55.3877 230.892 55.3877 230.499 54.9994L227 51.5401H228.991L231.21 53.7338Z" fill="#C7CBD8" fill-opacity="0.7"/>
<rect width="1" height="9" transform="matrix(0 -1 -1 0 351 30.7906)" fill="#C7CBD8" fill-opacity="0.7"/>
<rect width="1" height="9" transform="matrix(1 0 0 -1 346 34.7906)" fill="#C7CBD8" fill-opacity="0.7"/>
<rect width="1" height="9" transform="matrix(0 -1 -1 0 374 30.7906)" fill="#C7CBD8" fill-opacity="0.7"/>
<rect width="1" height="9" transform="matrix(1 0 0 -1 369 34.7906)" fill="#C7CBD8" fill-opacity="0.7"/>
<rect width="1" height="9" transform="matrix(0 -1 -1 0 305 30.7906)" fill="#C7CBD8" fill-opacity="0.7"/>
<rect width="1" height="9" transform="matrix(1 0 0 -1 300 34.7906)" fill="#C7CBD8" fill-opacity="0.7"/>
<rect width="1" height="9" transform="matrix(0 -1 -1 0 259 30.7906)" fill="#C7CBD8" fill-opacity="0.7"/>
<rect width="1" height="9" transform="matrix(1 0 0 -1 254 34.7906)" fill="#C7CBD8" fill-opacity="0.7"/>
<rect width="1" height="9" transform="matrix(0 -1 -1 0 328 30.7906)" fill="#C7CBD8" fill-opacity="0.7"/>
<rect width="1" height="9" transform="matrix(1 0 0 -1 323 34.7906)" fill="#C7CBD8" fill-opacity="0.7"/>
<rect width="1" height="9" transform="matrix(0 -1 -1 0 282 30.7906)" fill="#C7CBD8" fill-opacity="0.7"/>
<rect width="1" height="9" transform="matrix(1 0 0 -1 277 34.7906)" fill="#C7CBD8" fill-opacity="0.7"/>
<rect width="1" height="9" transform="matrix(0 -1 -1 0 236 30.7906)" fill="#C7CBD8" fill-opacity="0.7"/>
<rect width="1" height="9" transform="matrix(1 0 0 -1 231 34.7906)" fill="#C7CBD8" fill-opacity="0.7"/>
<rect x="250" y="82.7906" width="1" height="9" transform="rotate(-90 250 82.7906)" fill="#C7CBD8" fill-opacity="0.7"/>
<rect x="255" y="86.7906" width="1" height="9" transform="rotate(-180 255 86.7906)" fill="#C7CBD8" fill-opacity="0.7"/>
<rect x="227" y="82.7906" width="1" height="9" transform="rotate(-90 227 82.7906)" fill="#C7CBD8" fill-opacity="0.7"/>
<rect x="232" y="86.7906" width="1" height="9" transform="rotate(-180 232 86.7906)" fill="#C7CBD8" fill-opacity="0.7"/>
<rect x="296" y="82.7906" width="1" height="9" transform="rotate(-90 296 82.7906)" fill="#C7CBD8" fill-opacity="0.7"/>
<rect x="301" y="86.7906" width="1" height="9" transform="rotate(-180 301 86.7906)" fill="#C7CBD8" fill-opacity="0.7"/>
<rect x="342" y="82.7906" width="1" height="9" transform="rotate(-90 342 82.7906)" fill="#C7CBD8" fill-opacity="0.7"/>
<rect x="347" y="86.7906" width="1" height="9" transform="rotate(-180 347 86.7906)" fill="#C7CBD8" fill-opacity="0.7"/>
<rect x="319" y="82.7906" width="1" height="9" transform="rotate(-90 319 82.7906)" fill="#C7CBD8" fill-opacity="0.7"/>
<rect x="324" y="86.7906" width="1" height="9" transform="rotate(-180 324 86.7906)" fill="#C7CBD8" fill-opacity="0.7"/>
<rect x="365" y="82.7906" width="1" height="9" transform="rotate(-90 365 82.7906)" fill="#C7CBD8" fill-opacity="0.7"/>
<rect x="370" y="86.7906" width="1" height="9" transform="rotate(-180 370 86.7906)" fill="#C7CBD8" fill-opacity="0.7"/>
<path fill-rule="evenodd" clip-rule="evenodd" d="M275.886 82.0694L277.171 77.9572H279.338L278.197 81.6072L279.683 81.31L279.879 82.2905L277.857 82.695L277.205 84.7822H280.963L280.511 86.6239H276.629L276.629 86.6239H274.463L275.546 83.1572L274.463 83.3739L274.267 82.3933L275.886 82.0694Z" fill="#C7CBD8" fill-opacity="0.7"/>
<rect x="250" y="109.791" width="1" height="9" transform="rotate(-90 250 109.791)" fill="#C7CBD8" fill-opacity="0.7"/>
<rect x="255" y="113.791" width="1" height="9" transform="rotate(-180 255 113.791)" fill="#C7CBD8" fill-opacity="0.7"/>
<rect x="227" y="109.791" width="1" height="9" transform="rotate(-90 227 109.791)" fill="#C7CBD8" fill-opacity="0.7"/>
<rect x="232" y="113.791" width="1" height="9" transform="rotate(-180 232 113.791)" fill="#C7CBD8" fill-opacity="0.7"/>
<rect x="296" y="109.791" width="1" height="9" transform="rotate(-90 296 109.791)" fill="#C7CBD8" fill-opacity="0.7"/>
<rect x="301" y="113.791" width="1" height="9" transform="rotate(-180 301 113.791)" fill="#C7CBD8" fill-opacity="0.7"/>
<rect x="273" y="109.791" width="1" height="9" transform="rotate(-90 273 109.791)" fill="#C7CBD8" fill-opacity="0.7"/>
<rect x="278" y="113.791" width="1" height="9" transform="rotate(-180 278 113.791)" fill="#C7CBD8" fill-opacity="0.7"/>
<rect x="319" y="109.791" width="1" height="9" transform="rotate(-90 319 109.791)" fill="#C7CBD8" fill-opacity="0.7"/>
<rect x="324" y="113.791" width="1" height="9" transform="rotate(-180 324 113.791)" fill="#C7CBD8" fill-opacity="0.7"/>
<rect x="365" y="109.791" width="1" height="9" transform="rotate(-90 365 109.791)" fill="#C7CBD8" fill-opacity="0.7"/>
<rect x="370" y="113.791" width="1" height="9" transform="rotate(-180 370 113.791)" fill="#C7CBD8" fill-opacity="0.7"/>
<path fill-rule="evenodd" clip-rule="evenodd" d="M346.9 102.791L343 109.291L346.9 111.891L350.8 109.291L346.9 102.791ZM346.901 115.791L343.001 109.941L346.901 112.541L350.801 109.941L346.901 115.791Z" fill="#C7CBD8" fill-opacity="0.7"/>
<rect x="250" y="6.79059" width="1" height="9" transform="rotate(-90 250 6.79059)" fill="#C7CBD8" fill-opacity="0.7"/>
<rect x="255" y="10.7906" width="1" height="9" transform="rotate(-180 255 10.7906)" fill="#C7CBD8" fill-opacity="0.7"/>
<rect x="227" y="6.79059" width="1" height="9" transform="rotate(-90 227 6.79059)" fill="#C7CBD8" fill-opacity="0.7"/>
<rect x="232" y="10.7906" width="1" height="9" transform="rotate(-180 232 10.7906)" fill="#C7CBD8" fill-opacity="0.7"/>
<rect x="273" y="6.79059" width="1" height="9" transform="rotate(-90 273 6.79059)" fill="#C7CBD8" fill-opacity="0.7"/>
<rect x="278" y="10.7906" width="1" height="9" transform="rotate(-180 278 10.7906)" fill="#C7CBD8" fill-opacity="0.7"/>
<rect x="319" y="6.79059" width="1" height="9" transform="rotate(-90 319 6.79059)" fill="#C7CBD8" fill-opacity="0.7"/>
<rect x="324" y="10.7906" width="1" height="9" transform="rotate(-180 324 10.7906)" fill="#C7CBD8" fill-opacity="0.7"/>
<rect x="342" y="6.79059" width="1" height="9" transform="rotate(-90 342 6.79059)" fill="#C7CBD8" fill-opacity="0.7"/>
<rect x="347" y="10.7906" width="1" height="9" transform="rotate(-180 347 10.7906)" fill="#C7CBD8" fill-opacity="0.7"/>
<rect x="365" y="6.79059" width="1" height="9" transform="rotate(-90 365 6.79059)" fill="#C7CBD8" fill-opacity="0.7"/>
<rect x="370" y="10.7906" width="1" height="9" transform="rotate(-180 370 10.7906)" fill="#C7CBD8" fill-opacity="0.7"/>
<path fill-rule="evenodd" clip-rule="evenodd" d="M304 7.87338C304 9.25173 302.883 10.3691 301.504 10.3691H299.3V11.5906H297.5V10.3692H296V8.7282H297.5V3.5316H296V1.89058H297.5V0.790576H299.3V1.89061H301.504C302.883 1.89061 304 3.00798 304 4.38634C304 5.06478 303.729 5.68 303.29 6.12986C303.729 6.57972 304 7.19494 304 7.87338ZM299.3 3.3949H301.436C301.983 3.3949 302.427 3.83879 302.427 4.38635C302.427 4.92799 301.993 5.36818 301.454 5.37765H299.3V3.3949ZM299.3 6.88207H301.436C301.983 6.88207 302.427 7.32596 302.427 7.87352C302.427 8.42109 301.983 8.86497 301.436 8.86497H299.3V6.88207Z" fill="#C7CBD8" fill-opacity="0.7"/>
<rect x="412" y="55.7906" width="1" height="9" transform="rotate(-90 412 55.7906)" fill="#C7CBD8" fill-opacity="0.7"/>
<rect x="417" y="59.7906" width="1" height="9" transform="rotate(-180 417 59.7906)" fill="#C7CBD8" fill-opacity="0.7"/>
<rect x="458" y="55.7906" width="1" height="9" transform="rotate(-90 458 55.7906)" fill="#C7CBD8" fill-opacity="0.7"/>
<rect x="463" y="59.7906" width="1" height="9" transform="rotate(-180 463 59.7906)" fill="#C7CBD8" fill-opacity="0.7"/>
<rect x="504" y="55.7906" width="1" height="9" transform="rotate(-90 504 55.7906)" fill="#C7CBD8" fill-opacity="0.7"/>
<rect x="509" y="59.7906" width="1" height="9" transform="rotate(-180 509 59.7906)" fill="#C7CBD8" fill-opacity="0.7"/>
<rect x="435" y="55.7906" width="1" height="9" transform="rotate(-90 435 55.7906)" fill="#C7CBD8" fill-opacity="0.7"/>
<rect x="440" y="59.7906" width="1" height="9" transform="rotate(-180 440 59.7906)" fill="#C7CBD8" fill-opacity="0.7"/>
<rect x="481" y="55.7906" width="1" height="9" transform="rotate(-90 481 55.7906)" fill="#C7CBD8" fill-opacity="0.7"/>
<rect x="486" y="59.7906" width="1" height="9" transform="rotate(-180 486 59.7906)" fill="#C7CBD8" fill-opacity="0.7"/>
<rect x="527" y="55.7906" width="1" height="9" transform="rotate(-90 527 55.7906)" fill="#C7CBD8" fill-opacity="0.7"/>
<rect x="532" y="59.7906" width="1" height="9" transform="rotate(-180 532 59.7906)" fill="#C7CBD8" fill-opacity="0.7"/>
<path fill-rule="evenodd" clip-rule="evenodd" d="M393.21 57.3469L395.429 59.5406H397.42L393.921 56.0813C393.528 55.693 392.892 55.693 392.499 56.0813L389 59.5406H390.991L393.21 57.3469ZM393.21 53.7338L395.429 51.5401H397.42L393.921 54.9994C393.528 55.3877 392.892 55.3877 392.499 54.9994L389 51.5401H390.991L393.21 53.7338Z" fill="#C7CBD8" fill-opacity="0.7"/>
<rect width="1" height="9" transform="matrix(0 -1 -1 0 513 30.7906)" fill="#C7CBD8" fill-opacity="0.7"/>
<rect width="1" height="9" transform="matrix(1 0 0 -1 508 34.7906)" fill="#C7CBD8" fill-opacity="0.7"/>
<rect width="1" height="9" transform="matrix(0 -1 -1 0 536 30.7906)" fill="#C7CBD8" fill-opacity="0.7"/>
<rect width="1" height="9" transform="matrix(1 0 0 -1 531 34.7906)" fill="#C7CBD8" fill-opacity="0.7"/>
<rect width="1" height="9" transform="matrix(0 -1 -1 0 467 30.7906)" fill="#C7CBD8" fill-opacity="0.7"/>
<rect width="1" height="9" transform="matrix(1 0 0 -1 462 34.7906)" fill="#C7CBD8" fill-opacity="0.7"/>
<rect width="1" height="9" transform="matrix(0 -1 -1 0 421 30.7906)" fill="#C7CBD8" fill-opacity="0.7"/>
<rect width="1" height="9" transform="matrix(1 0 0 -1 416 34.7906)" fill="#C7CBD8" fill-opacity="0.7"/>
<rect width="1" height="9" transform="matrix(0 -1 -1 0 490 30.7906)" fill="#C7CBD8" fill-opacity="0.7"/>
<rect width="1" height="9" transform="matrix(1 0 0 -1 485 34.7906)" fill="#C7CBD8" fill-opacity="0.7"/>
<rect width="1" height="9" transform="matrix(0 -1 -1 0 444 30.7906)" fill="#C7CBD8" fill-opacity="0.7"/>
<rect width="1" height="9" transform="matrix(1 0 0 -1 439 34.7906)" fill="#C7CBD8" fill-opacity="0.7"/>
<rect width="1" height="9" transform="matrix(0 -1 -1 0 398 30.7906)" fill="#C7CBD8" fill-opacity="0.7"/>
<rect width="1" height="9" transform="matrix(1 0 0 -1 393 34.7906)" fill="#C7CBD8" fill-opacity="0.7"/>
<rect x="412" y="82.7906" width="1" height="9" transform="rotate(-90 412 82.7906)" fill="#C7CBD8" fill-opacity="0.7"/>
<rect x="417" y="86.7906" width="1" height="9" transform="rotate(-180 417 86.7906)" fill="#C7CBD8" fill-opacity="0.7"/>
<rect x="389" y="82.7906" width="1" height="9" transform="rotate(-90 389 82.7906)" fill="#C7CBD8" fill-opacity="0.7"/>
<rect x="394" y="86.7906" width="1" height="9" transform="rotate(-180 394 86.7906)" fill="#C7CBD8" fill-opacity="0.7"/>
<rect x="458" y="82.7906" width="1" height="9" transform="rotate(-90 458 82.7906)" fill="#C7CBD8" fill-opacity="0.7"/>
<rect x="463" y="86.7906" width="1" height="9" transform="rotate(-180 463 86.7906)" fill="#C7CBD8" fill-opacity="0.7"/>
<rect x="504" y="82.7906" width="1" height="9" transform="rotate(-90 504 82.7906)" fill="#C7CBD8" fill-opacity="0.7"/>
<rect x="509" y="86.7906" width="1" height="9" transform="rotate(-180 509 86.7906)" fill="#C7CBD8" fill-opacity="0.7"/>
<rect x="481" y="82.7906" width="1" height="9" transform="rotate(-90 481 82.7906)" fill="#C7CBD8" fill-opacity="0.7"/>
<rect x="486" y="86.7906" width="1" height="9" transform="rotate(-180 486 86.7906)" fill="#C7CBD8" fill-opacity="0.7"/>
<rect x="527" y="82.7906" width="1" height="9" transform="rotate(-90 527 82.7906)" fill="#C7CBD8" fill-opacity="0.7"/>
<rect x="532" y="86.7906" width="1" height="9" transform="rotate(-180 532 86.7906)" fill="#C7CBD8" fill-opacity="0.7"/>
<path fill-rule="evenodd" clip-rule="evenodd" d="M437.886 82.0694L439.171 77.9572H441.338L440.197 81.6072L441.683 81.31L441.879 82.2905L439.857 82.695L439.205 84.7822H442.963L442.511 86.6239H438.629L438.629 86.6239H436.463L437.546 83.1572L436.463 83.3739L436.267 82.3933L437.886 82.0694Z" fill="#C7CBD8" fill-opacity="0.7"/>
<rect x="412" y="109.791" width="1" height="9" transform="rotate(-90 412 109.791)" fill="#C7CBD8" fill-opacity="0.7"/>
<rect x="417" y="113.791" width="1" height="9" transform="rotate(-180 417 113.791)" fill="#C7CBD8" fill-opacity="0.7"/>
<rect x="389" y="109.791" width="1" height="9" transform="rotate(-90 389 109.791)" fill="#C7CBD8" fill-opacity="0.7"/>
<rect x="394" y="113.791" width="1" height="9" transform="rotate(-180 394 113.791)" fill="#C7CBD8" fill-opacity="0.7"/>
<rect x="458" y="109.791" width="1" height="9" transform="rotate(-90 458 109.791)" fill="#C7CBD8" fill-opacity="0.7"/>
<rect x="463" y="113.791" width="1" height="9" transform="rotate(-180 463 113.791)" fill="#C7CBD8" fill-opacity="0.7"/>
<rect x="435" y="109.791" width="1" height="9" transform="rotate(-90 435 109.791)" fill="#C7CBD8" fill-opacity="0.7"/>
<rect x="440" y="113.791" width="1" height="9" transform="rotate(-180 440 113.791)" fill="#C7CBD8" fill-opacity="0.7"/>
<rect x="481" y="109.791" width="1" height="9" transform="rotate(-90 481 109.791)" fill="#C7CBD8" fill-opacity="0.7"/>
<rect x="486" y="113.791" width="1" height="9" transform="rotate(-180 486 113.791)" fill="#C7CBD8" fill-opacity="0.7"/>
<rect x="527" y="109.791" width="1" height="9" transform="rotate(-90 527 109.791)" fill="#C7CBD8" fill-opacity="0.7"/>
<rect x="532" y="113.791" width="1" height="9" transform="rotate(-180 532 113.791)" fill="#C7CBD8" fill-opacity="0.7"/>
<path fill-rule="evenodd" clip-rule="evenodd" d="M508.9 102.791L505 109.291L508.9 111.891L512.8 109.291L508.9 102.791ZM508.901 115.791L505.001 109.941L508.901 112.541L512.801 109.941L508.901 115.791Z" fill="#C7CBD8" fill-opacity="0.7"/>
<rect x="412" y="6.79059" width="1" height="9" transform="rotate(-90 412 6.79059)" fill="#C7CBD8" fill-opacity="0.7"/>
<rect x="417" y="10.7906" width="1" height="9" transform="rotate(-180 417 10.7906)" fill="#C7CBD8" fill-opacity="0.7"/>
<rect x="389" y="6.79059" width="1" height="9" transform="rotate(-90 389 6.79059)" fill="#C7CBD8" fill-opacity="0.7"/>
<rect x="394" y="10.7906" width="1" height="9" transform="rotate(-180 394 10.7906)" fill="#C7CBD8" fill-opacity="0.7"/>
<rect x="435" y="6.79059" width="1" height="9" transform="rotate(-90 435 6.79059)" fill="#C7CBD8" fill-opacity="0.7"/>
<rect x="440" y="10.7906" width="1" height="9" transform="rotate(-180 440 10.7906)" fill="#C7CBD8" fill-opacity="0.7"/>
<rect x="481" y="6.79059" width="1" height="9" transform="rotate(-90 481 6.79059)" fill="#C7CBD8" fill-opacity="0.7"/>
<rect x="486" y="10.7906" width="1" height="9" transform="rotate(-180 486 10.7906)" fill="#C7CBD8" fill-opacity="0.7"/>
<rect x="504" y="6.79059" width="1" height="9" transform="rotate(-90 504 6.79059)" fill="#C7CBD8" fill-opacity="0.7"/>
<rect x="509" y="10.7906" width="1" height="9" transform="rotate(-180 509 10.7906)" fill="#C7CBD8" fill-opacity="0.7"/>
<rect x="527" y="6.79059" width="1" height="9" transform="rotate(-90 527 6.79059)" fill="#C7CBD8" fill-opacity="0.7"/>
<rect x="532" y="10.7906" width="1" height="9" transform="rotate(-180 532 10.7906)" fill="#C7CBD8" fill-opacity="0.7"/>
<path fill-rule="evenodd" clip-rule="evenodd" d="M466 7.87338C466 9.25173 464.883 10.3691 463.504 10.3691H461.3V11.5906H459.5V10.3692H458V8.7282H459.5V3.5316H458V1.89058H459.5V0.790576H461.3V1.89061H463.504C464.883 1.89061 466 3.00798 466 4.38634C466 5.06478 465.729 5.68 465.29 6.12986C465.729 6.57972 466 7.19494 466 7.87338ZM461.3 3.3949H463.436C463.983 3.3949 464.427 3.83879 464.427 4.38635C464.427 4.92799 463.993 5.36818 463.454 5.37765H461.3V3.3949ZM461.3 6.88207H463.436C463.983 6.88207 464.427 7.32596 464.427 7.87352C464.427 8.42109 463.983 8.86497 463.436 8.86497H461.3V6.88207Z" fill="#C7CBD8" fill-opacity="0.7"/>
<rect x="26" y="144.79" width="1" height="9" transform="rotate(-90 26 144.79)" fill="#C7CBD8" fill-opacity="0.7"/>
<rect x="31" y="148.79" width="1" height="9" transform="rotate(-180 31 148.79)" fill="#C7CBD8" fill-opacity="0.7"/>
<rect x="72" y="144.79" width="1" height="9" transform="rotate(-90 72 144.79)" fill="#C7CBD8" fill-opacity="0.7"/>
<rect x="77" y="148.79" width="1" height="9" transform="rotate(-180 77 148.79)" fill="#C7CBD8" fill-opacity="0.7"/>
<rect x="118" y="144.79" width="1" height="9" transform="rotate(-90 118 144.79)" fill="#C7CBD8" fill-opacity="0.7"/>
<rect x="123" y="148.79" width="1" height="9" transform="rotate(-180 123 148.79)" fill="#C7CBD8" fill-opacity="0.7"/>
<rect x="49" y="144.79" width="1" height="9" transform="rotate(-90 49 144.79)" fill="#C7CBD8" fill-opacity="0.7"/>
<rect x="54" y="148.79" width="1" height="9" transform="rotate(-180 54 148.79)" fill="#C7CBD8" fill-opacity="0.7"/>
<rect x="95" y="144.79" width="1" height="9" transform="rotate(-90 95 144.79)" fill="#C7CBD8" fill-opacity="0.7"/>
<rect x="100" y="148.79" width="1" height="9" transform="rotate(-180 100 148.79)" fill="#C7CBD8" fill-opacity="0.7"/>
<rect x="141" y="144.79" width="1" height="9" transform="rotate(-90 141 144.79)" fill="#C7CBD8" fill-opacity="0.7"/>
<rect x="146" y="148.79" width="1" height="9" transform="rotate(-180 146 148.79)" fill="#C7CBD8" fill-opacity="0.7"/>
<path fill-rule="evenodd" clip-rule="evenodd" d="M7.20994 146.347L9.42875 148.54H11.4199L7.92106 145.081C7.52832 144.693 6.89156 144.693 6.49882 145.081L3 148.54H4.99113L7.20994 146.347ZM7.20994 142.734L9.42875 140.54H11.4199L7.92106 143.999C7.52832 144.387 6.89156 144.387 6.49882 143.999L3 140.54H4.99113L7.20994 142.734Z" fill="#C7CBD8" fill-opacity="0.7"/>
<rect width="1" height="9" transform="matrix(0 -1 -1 0 127 119.79)" fill="#C7CBD8" fill-opacity="0.7"/>
<rect width="1" height="9" transform="matrix(1 0 0 -1 122 123.79)" fill="#C7CBD8" fill-opacity="0.7"/>
<rect width="1" height="9" transform="matrix(0 -1 -1 0 150 119.79)" fill="#C7CBD8" fill-opacity="0.7"/>
<rect width="1" height="9" transform="matrix(1 0 0 -1 145 123.79)" fill="#C7CBD8" fill-opacity="0.7"/>
<rect width="1" height="9" transform="matrix(0 -1 -1 0 81 119.79)" fill="#C7CBD8" fill-opacity="0.7"/>
<rect width="1" height="9" transform="matrix(1 0 0 -1 76 123.79)" fill="#C7CBD8" fill-opacity="0.7"/>
<rect width="1" height="9" transform="matrix(0 -1 -1 0 35 119.79)" fill="#C7CBD8" fill-opacity="0.7"/>
<rect width="1" height="9" transform="matrix(1 0 0 -1 30 123.79)" fill="#C7CBD8" fill-opacity="0.7"/>
<rect width="1" height="9" transform="matrix(0 -1 -1 0 104 119.79)" fill="#C7CBD8" fill-opacity="0.7"/>
<rect width="1" height="9" transform="matrix(1 0 0 -1 99 123.79)" fill="#C7CBD8" fill-opacity="0.7"/>
<rect width="1" height="9" transform="matrix(0 -1 -1 0 58 119.79)" fill="#C7CBD8" fill-opacity="0.7"/>
<rect width="1" height="9" transform="matrix(1 0 0 -1 53 123.79)" fill="#C7CBD8" fill-opacity="0.7"/>
<rect width="1" height="9" transform="matrix(0 -1 -1 0 12 119.79)" fill="#C7CBD8" fill-opacity="0.7"/>
<rect width="1" height="9" transform="matrix(1 0 0 -1 7 123.79)" fill="#C7CBD8" fill-opacity="0.7"/>
<rect x="26" y="171.79" width="1" height="9" transform="rotate(-90 26 171.79)" fill="#C7CBD8" fill-opacity="0.7"/>
<rect x="31" y="175.79" width="1" height="9" transform="rotate(-180 31 175.79)" fill="#C7CBD8" fill-opacity="0.7"/>
<rect x="3" y="171.79" width="1" height="9" transform="rotate(-90 3 171.79)" fill="#C7CBD8" fill-opacity="0.7"/>
<rect x="8" y="175.79" width="1" height="9" transform="rotate(-180 8 175.79)" fill="#C7CBD8" fill-opacity="0.7"/>
<rect x="72" y="171.79" width="1" height="9" transform="rotate(-90 72 171.79)" fill="#C7CBD8" fill-opacity="0.7"/>
<rect x="77" y="175.79" width="1" height="9" transform="rotate(-180 77 175.79)" fill="#C7CBD8" fill-opacity="0.7"/>
<rect x="118" y="171.79" width="1" height="9" transform="rotate(-90 118 171.79)" fill="#C7CBD8" fill-opacity="0.7"/>
<rect x="123" y="175.79" width="1" height="9" transform="rotate(-180 123 175.79)" fill="#C7CBD8" fill-opacity="0.7"/>
<rect x="95" y="171.79" width="1" height="9" transform="rotate(-90 95 171.79)" fill="#C7CBD8" fill-opacity="0.7"/>
<rect x="100" y="175.79" width="1" height="9" transform="rotate(-180 100 175.79)" fill="#C7CBD8" fill-opacity="0.7"/>
<rect x="141" y="171.79" width="1" height="9" transform="rotate(-90 141 171.79)" fill="#C7CBD8" fill-opacity="0.7"/>
<rect x="146" y="175.79" width="1" height="9" transform="rotate(-180 146 175.79)" fill="#C7CBD8" fill-opacity="0.7"/>
<path fill-rule="evenodd" clip-rule="evenodd" d="M51.886 171.069L53.171 166.957H55.3377L54.1971 170.607L55.6833 170.31L55.8794 171.29L53.8572 171.695L53.2049 173.782H56.9627L56.5113 175.624H52.6294L52.6294 175.624H50.4627L51.546 172.157L50.4627 172.374L50.2666 171.393L51.886 171.069Z" fill="#C7CBD8" fill-opacity="0.7"/>
<rect x="26" y="198.79" width="1" height="9" transform="rotate(-90 26 198.79)" fill="#C7CBD8" fill-opacity="0.7"/>
<rect x="31" y="202.79" width="1" height="9" transform="rotate(-180 31 202.79)" fill="#C7CBD8" fill-opacity="0.7"/>
<rect x="3" y="198.79" width="1" height="9" transform="rotate(-90 3 198.79)" fill="#C7CBD8" fill-opacity="0.7"/>
<rect x="8" y="202.79" width="1" height="9" transform="rotate(-180 8 202.79)" fill="#C7CBD8" fill-opacity="0.7"/>
<rect x="72" y="198.79" width="1" height="9" transform="rotate(-90 72 198.79)" fill="#C7CBD8" fill-opacity="0.7"/>
<rect x="77" y="202.79" width="1" height="9" transform="rotate(-180 77 202.79)" fill="#C7CBD8" fill-opacity="0.7"/>
<rect x="49" y="198.79" width="1" height="9" transform="rotate(-90 49 198.79)" fill="#C7CBD8" fill-opacity="0.7"/>
<rect x="54" y="202.79" width="1" height="9" transform="rotate(-180 54 202.79)" fill="#C7CBD8" fill-opacity="0.7"/>
<rect x="95" y="198.79" width="1" height="9" transform="rotate(-90 95 198.79)" fill="#C7CBD8" fill-opacity="0.7"/>
<rect x="100" y="202.79" width="1" height="9" transform="rotate(-180 100 202.79)" fill="#C7CBD8" fill-opacity="0.7"/>
<rect x="141" y="198.79" width="1" height="9" transform="rotate(-90 141 198.79)" fill="#C7CBD8" fill-opacity="0.7"/>
<rect x="146" y="202.79" width="1" height="9" transform="rotate(-180 146 202.79)" fill="#C7CBD8" fill-opacity="0.7"/>
<path fill-rule="evenodd" clip-rule="evenodd" d="M122.9 191.79L119 198.29L122.9 200.89L126.8 198.29L122.9 191.79ZM122.901 204.79L119.001 198.94L122.901 201.54L126.801 198.94L122.901 204.79Z" fill="#C7CBD8" fill-opacity="0.7"/>
<rect x="26" y="95.7904" width="1" height="9" transform="rotate(-90 26 95.7904)" fill="#C7CBD8" fill-opacity="0.7"/>
<rect x="31" y="99.7904" width="1" height="9" transform="rotate(-180 31 99.7904)" fill="#C7CBD8" fill-opacity="0.7"/>
<rect x="3" y="95.7904" width="1" height="9" transform="rotate(-90 3 95.7904)" fill="#C7CBD8" fill-opacity="0.7"/>
<rect x="8" y="99.7904" width="1" height="9" transform="rotate(-180 8 99.7904)" fill="#C7CBD8" fill-opacity="0.7"/>
<rect x="49" y="95.7904" width="1" height="9" transform="rotate(-90 49 95.7904)" fill="#C7CBD8" fill-opacity="0.7"/>
<rect x="54" y="99.7904" width="1" height="9" transform="rotate(-180 54 99.7904)" fill="#C7CBD8" fill-opacity="0.7"/>
<rect x="95" y="95.7904" width="1" height="9" transform="rotate(-90 95 95.7904)" fill="#C7CBD8" fill-opacity="0.7"/>
<rect x="100" y="99.7904" width="1" height="9" transform="rotate(-180 100 99.7904)" fill="#C7CBD8" fill-opacity="0.7"/>
<rect x="118" y="95.7904" width="1" height="9" transform="rotate(-90 118 95.7904)" fill="#C7CBD8" fill-opacity="0.7"/>
<rect x="123" y="99.7904" width="1" height="9" transform="rotate(-180 123 99.7904)" fill="#C7CBD8" fill-opacity="0.7"/>
<rect x="141" y="95.7904" width="1" height="9" transform="rotate(-90 141 95.7904)" fill="#C7CBD8" fill-opacity="0.7"/>
<rect x="146" y="99.7904" width="1" height="9" transform="rotate(-180 146 99.7904)" fill="#C7CBD8" fill-opacity="0.7"/>
<path fill-rule="evenodd" clip-rule="evenodd" d="M80 96.8732C80 98.2516 78.8826 99.3689 77.5043 99.3689H75.2998V100.59H73.4998V99.369H72V97.728H73.4998V92.5314H72V90.8904H73.4998V89.7904H75.2998V90.8904H77.5043C78.8826 90.8904 80 92.0078 80 93.3862C80 94.0646 79.7293 94.6798 79.29 95.1297C79.7293 95.5795 80 96.1948 80 96.8732ZM75.2998 92.3947H77.4359C77.9834 92.3947 78.4273 92.8386 78.4273 93.3862C78.4273 93.9278 77.993 94.368 77.4536 94.3775H75.2998V92.3947ZM75.2998 95.8819H77.4359C77.9834 95.8819 78.4273 96.3258 78.4273 96.8733C78.4273 97.4209 77.9834 97.8648 77.4359 97.8648H75.2998V95.8819Z" fill="#C7CBD8" fill-opacity="0.7"/>
<g filter="url(#filter0_d)">
<ellipse cx="269.5" cy="415.262" rx="166.531" ry="1.31321" fill="#C4C4C4" fill-opacity="0.01"/>
</g>
<rect x="42" y="41.7906" width="455" height="317.505" rx="4.53542" fill="#F1F1F1"/>
<path d="M42 314.063H497V354.761C497 357.265 494.969 359.296 492.465 359.296H46.5354C44.0306 359.296 42 357.265 42 354.761V314.063Z" fill="#F5F5F5"/>
<g filter="url(#filter1_d)">
<path d="M192.887 415.181C192.079 414.375 192.156 411.971 193.91 410.657H345.09C346.844 411.971 346.99 413.867 346.113 415.181C345.206 416.538 340.703 416.834 338.364 416.786H200.636C198.297 416.834 194.203 416.494 192.887 415.181Z" fill="url(#paint0_linear)"/>
</g>
<path d="M217.742 359.296C217.742 359.296 213.21 391.835 211.894 395.336C210.578 398.838 204.145 402.632 202.975 403.508C201.805 404.383 197.712 407.301 195.957 408.615C194.203 409.928 192.037 411.441 192.887 413.138C193.618 414.597 198.297 414.791 200.636 414.743H277.98H338.364C340.703 414.791 345.382 414.597 346.113 413.138C346.963 411.441 344.797 409.928 343.043 408.615C341.288 407.301 337.195 404.383 336.025 403.508C334.855 402.632 328.422 398.838 327.106 395.336C325.79 391.835 321.258 359.296 321.258 359.296H277.98H217.742Z" fill="#F5F5F5"/>
<path d="M217.742 359.296C217.742 359.296 213.21 391.835 211.894 395.336C210.578 398.838 204.145 402.632 202.975 403.508C201.805 404.383 197.712 407.301 195.957 408.615C194.203 409.928 192.037 411.441 192.887 413.138C193.618 414.597 198.297 414.791 200.636 414.743H277.98H338.364C340.703 414.791 345.382 414.597 346.113 413.138C346.963 411.441 344.797 409.928 343.043 408.615C341.288 407.301 337.195 404.383 336.025 403.508C334.855 402.632 328.422 398.838 327.106 395.336C325.79 391.835 321.258 359.296 321.258 359.296H277.98H217.742Z" fill="url(#paint1_radial)"/>
<path d="M217.742 359.296C217.742 359.296 213.21 391.835 211.894 395.336C210.578 398.838 204.145 402.632 202.975 403.508C201.805 404.383 197.712 407.301 195.957 408.615C194.203 409.928 192.037 411.441 192.887 413.138C193.618 414.597 198.297 414.791 200.636 414.743H277.98H338.364C340.703 414.791 345.382 414.597 346.113 413.138C346.963 411.441 344.797 409.928 343.043 408.615C341.288 407.301 337.195 404.383 336.025 403.508C334.855 402.632 328.422 398.838 327.106 395.336C325.79 391.835 321.258 359.296 321.258 359.296H277.98H217.742Z" fill="url(#paint2_linear)"/>
<path d="M217.742 359.296C217.742 359.296 213.21 391.835 211.894 395.336C210.578 398.838 204.145 402.632 202.975 403.508C201.805 404.383 197.712 407.301 195.957 408.615C194.203 409.928 192.037 411.441 192.887 413.138C193.618 414.597 198.297 414.791 200.636 414.743H277.98H338.364C340.703 414.791 345.382 414.597 346.113 413.138C346.963 411.441 344.797 409.928 343.043 408.615C341.288 407.301 337.195 404.383 336.025 403.508C334.855 402.632 328.422 398.838 327.106 395.336C325.79 391.835 321.258 359.296 321.258 359.296H277.98H217.742Z" fill="url(#paint3_linear)"/>
<rect x="57.3995" y="58.6189" width="424.2" height="238.908" stroke="#E1E1E1" stroke-width="0.38875"/>
<mask id="mask0" mask-type="alpha" maskUnits="userSpaceOnUse" x="58" y="59" width="423" height="238">
<rect x="58.083" y="59.2996" width="422.834" height="237.545" fill="#F5F5F5"/>
</mask>
<g mask="url(#mask0)">
<rect x="58.1416" y="59.2997" width="422.834" height="237.545" fill="#F5F5F5"/>
<mask id="mask1" mask-type="alpha" maskUnits="userSpaceOnUse" x="57" y="58" width="425" height="239">
<rect x="57.3032" y="58.4246" width="424.491" height="238.421" fill="#F5F5F5"/>
</mask>
<g mask="url(#mask1)">
<rect x="57.3516" y="58.4248" width="424.443" height="239.442" fill="white"/>
</g>
</g>
<path fill-rule="evenodd" clip-rule="evenodd" d="M279.525 285.161L268.64 275.111L257.756 285.161H246L267.905 264.936C268.311 264.561 268.969 264.561 269.375 264.936L291.28 285.161H279.525ZM291.995 286.122V286.324C292.002 286.257 292.002 286.189 291.995 286.122ZM269.239 307.616H268.041C268.399 307.85 268.881 307.85 269.239 307.616Z" fill="#515DF6"/>
<path fill-rule="evenodd" clip-rule="evenodd" d="M279.525 242.421L268.64 252.471L257.756 242.421H246L267.906 262.646C268.311 263.021 268.969 263.021 269.375 262.646L291.28 242.421H279.525ZM291.995 241.46V241.258C292.002 241.325 292.002 241.393 291.995 241.46ZM269.239 219.966H268.042C268.399 219.732 268.881 219.732 269.239 219.966Z" fill="#515DF6"/>
<rect x="299" y="170.068" width="60" height="60" rx="30" transform="rotate(90 299 170.068)" stroke="#C7CBD8" stroke-width="4"/>
<path fill-rule="evenodd" clip-rule="evenodd" d="M268.333 178.735C267.228 178.735 266.333 179.63 266.333 180.735V201.624C266.333 201.634 266.333 201.645 266.333 201.655V202.068C266.333 203.172 267.229 204.068 268.333 204.068H283.889C284.993 204.068 285.889 203.172 285.889 202.068V200.734C285.889 199.63 284.993 198.734 283.889 198.734H271.666V180.735C271.666 179.63 270.771 178.735 269.666 178.735H268.333Z" fill="#7DC7A8"/>
<path fill-rule="evenodd" clip-rule="evenodd" d="M173.128 172.786H172.23V169.232H168.64V168.344H172.23V164.791H173.128V168.344H176.717V169.232H173.128V172.786ZM209.922 168.344V169.232H213.512V172.786H214.409V169.232H217.999V168.344H214.409V164.791H213.512V168.344H209.922ZM189.281 168.344V169.232H192.871V172.786H193.769V169.232H197.358V168.344H193.769V164.791H192.871V168.344H189.281ZM168.64 188.776V189.664H172.23V193.217H173.128V189.664H176.717V188.776H173.128V185.222H172.23V188.776H168.64ZM148 188.776V189.664H151.59V193.217H152.488V189.664H156.077V188.776H152.488V185.222H151.59V188.776H148ZM209.923 188.776V189.664H213.512V193.217H214.41V189.664H217.999V188.776H214.41V185.222H213.512V188.776H209.923ZM193.026 185.37L191.911 188.902L190.397 189.202L190.595 190.182L191.568 189.99L190.595 193.069L191.567 193.069H196.023L196.428 191.433H193.056L193.642 189.579L195.457 189.22L195.259 188.239L193.985 188.492L194.97 185.37H193.026ZM218 210.096V209.207H214.41V205.654H213.513V209.207H209.923V210.096H213.513V213.649H214.41V210.096H218ZM197.359 210.096V209.207H193.769V205.654H192.872V209.207H189.282V210.096H192.872V213.649H193.769V210.096H197.359ZM156.077 210.096V209.207H152.487V205.654H151.59V209.207H148V210.096H151.59V213.649H152.487V210.096H156.077ZM168.641 230.527V229.639H172.231V226.085H173.129V229.639H176.718V230.527H173.129V234.08H172.231V230.527H168.641ZM148.001 230.527V229.639H151.591V226.086H152.488V229.639H156.078V230.527H152.488V234.08H151.591V230.527H148.001ZM189.283 230.527V229.639H192.872V226.085H193.77V229.639H197.36V230.527H193.77V234.08H192.872V230.527H189.283Z" fill="#C7CBD8"/>
<path fill-rule="evenodd" clip-rule="evenodd" d="M151.779 170.545L153.842 172.563H155.555C155.543 172.55 155.53 172.537 155.517 172.524L152.494 169.565C152.099 169.179 151.459 169.179 151.064 169.565L148.041 172.524C148.028 172.537 148.015 172.55 148.003 172.563H149.716L151.779 170.545ZM151.779 167.698L153.842 165.679H155.555C155.543 165.692 155.53 165.705 155.517 165.718L152.494 168.677C152.099 169.063 151.459 169.063 151.064 168.677L148.041 165.718C148.028 165.705 148.015 165.692 148.003 165.679H149.716L151.779 167.698Z" fill="#515DF6"/>
<path fill-rule="evenodd" clip-rule="evenodd" d="M172.32 203.877L175.82 209.651L172.32 211.961L168.82 209.651L172.32 203.877ZM172.32 215.425L175.82 210.228L172.32 212.538L168.82 210.228L172.32 215.425Z" fill="#7DC7A8"/>
<path fill-rule="evenodd" clip-rule="evenodd" d="M217.103 231.488C217.103 232.713 216.11 233.705 214.886 233.705H212.884V234.791H211.269V233.706H209.923V232.248H211.269V227.632H209.923V226.174H211.269V225.197H212.884V226.173H214.886C216.11 226.173 217.103 227.166 217.103 228.39C217.103 228.993 216.862 229.54 216.472 229.939C216.862 230.339 217.103 230.886 217.103 231.488ZM212.884 227.51H214.811C215.297 227.51 215.691 227.904 215.691 228.39C215.691 228.877 215.297 229.271 214.811 229.271H212.884V227.51ZM212.884 230.608H214.811C215.297 230.608 215.691 231.002 215.691 231.489C215.691 231.975 215.297 232.369 214.811 232.369H212.884V230.608Z" fill="#E6559A"/>
<rect x="143" y="159.791" width="80" height="80" rx="8" stroke="#EEEEEE" stroke-width="4"/>
<path d="M179.512 146.468H188.216V140.676C192.227 139.972 195.437 138.351 197.848 135.812C200.259 133.252 201.464 130.105 201.464 126.372C201.464 123.065 200.557 120.409 198.744 118.404C196.952 116.399 194.019 114.809 189.944 113.636L181.816 111.332C179.768 110.756 178.275 110.073 177.336 109.284C176.397 108.473 175.928 107.513 175.928 106.404C175.928 104.889 176.653 103.631 178.104 102.628C179.576 101.625 181.368 101.156 183.48 101.22C185.699 101.284 187.587 101.956 189.144 103.236C190.723 104.495 191.736 106.148 192.184 108.196L201.144 106.596C200.248 103.076 198.691 100.217 196.472 98.0201C194.275 95.8014 191.523 94.3294 188.216 93.6041V87.6521H179.512V93.4121C175.715 94.0307 172.728 95.5241 170.552 97.8921C168.376 100.26 167.288 103.247 167.288 106.852C167.288 112.847 170.573 116.857 177.144 118.884L188.536 122.404C191.395 123.343 192.824 124.879 192.824 127.012C192.824 128.676 192.024 130.073 190.424 131.204C188.845 132.335 186.851 132.9 184.44 132.9C181.88 132.9 179.672 132.153 177.816 130.66C175.981 129.167 174.776 127.161 174.2 124.644L165.56 125.988C166.136 129.871 167.651 133.092 170.104 135.652C172.579 138.212 175.715 139.865 179.512 140.612V146.468Z" fill="#C7CBD8"/>
<path fill-rule="evenodd" clip-rule="evenodd" d="M350.22 110.703L354.177 98.0681H362.177L358.754 108.999L362.998 108.152L364.177 114.035L356.71 115.525L354.302 123.217H368.177L366.51 130.003H352.177L352.177 130.003H344.177L348.177 117.229L344.177 118.028L342.998 112.145L350.22 110.703Z" fill="#7DC7A8"/>
<rect x="229" y="73.7906" width="80" height="80" rx="8" stroke="#EEEEEE" stroke-width="4"/>
<path fill-rule="evenodd" clip-rule="evenodd" d="M269.001 85.7906L285 112.791L269.001 123.591L253.003 112.791L269.001 85.7906ZM268.999 139.791L284.997 115.49L268.999 126.29L253 115.49L268.999 139.791Z" fill="#515DF6"/>
<rect x="315" y="159.791" width="80" height="80" rx="8" stroke="#EEEEEE" stroke-width="4"/>
<rect x="341" y="196.464" width="4.67337" height="28.0971" rx="1" transform="rotate(-90 341 196.464)" fill="#515DF6"/>
<rect x="341" y="207.758" width="4.67337" height="28.0971" rx="1" transform="rotate(-90 341 207.758)" fill="#515DF6"/>
<path fill-rule="evenodd" clip-rule="evenodd" d="M347 171.417C347 180.776 339.413 188.362 330.055 188.362H325.77V196.254H318.847V188.362H314.693V188.363H312.846V196.254H305.923V188.363H304.077V130.796H305.923V122.904H312.846V130.796H314.693V130.797H330.055C339.413 130.797 347 138.383 347 147.742C347 152.348 345.162 156.525 342.179 159.58C345.162 162.634 347 166.811 347 171.417ZM314.693 141.01H329.653C333.37 141.01 336.384 144.023 336.384 147.741C336.384 151.43 333.418 154.425 329.74 154.472H314.693V141.01ZM314.693 164.687H329.755C333.426 164.742 336.384 167.734 336.384 171.418C336.384 175.135 333.37 178.149 329.653 178.149H314.693V164.687ZM304.077 188.362V177.22H293V188.362H304.077ZM325.77 130.796V122.904H318.847V130.796H325.77ZM304.077 130.796V141.938H293V130.796H304.077Z" fill="#E6559A"/>
<path d="M385.211 219.094L387.55 227.785C387.625 228.064 387.663 228.353 387.663 228.644L387.664 241.844C387.664 243.597 386.307 245.2 384.386 245.715L362.859 251.483C362.206 251.658 361.526 251.695 360.875 251.592C360.223 251.489 359.618 251.248 359.11 250.889L341.576 238.505C339.796 237.248 339.595 234.874 341.128 233.202C342.66 231.53 345.346 231.194 347.126 232.451L351.461 235.513L344.738 210.528C344.199 208.528 345.617 206.41 347.903 205.797C350.189 205.185 352.479 206.309 353.017 208.309L357.889 226.415L358.717 226.193L357.743 222.572C357.204 220.572 358.622 218.454 360.908 217.842C363.194 217.229 365.484 218.354 366.022 220.354L366.996 223.975L367.824 223.753L367.24 221.58C366.702 219.581 368.119 217.463 370.405 216.85C372.691 216.237 374.981 217.362 375.519 219.362L376.104 221.535L376.932 221.313C376.393 219.313 377.811 217.195 380.097 216.582C382.383 215.97 384.673 217.095 385.211 219.094Z" fill="#C7CBD8"/>
</g>
<defs>
<filter id="filter0_d" x="92.2678" y="403.248" width="354.464" height="24.0284" filterUnits="userSpaceOnUse" color-interpolation-filters="sRGB">
<feFlood flood-opacity="0" result="BackgroundImageFix"/>
<feColorMatrix in="SourceAlpha" type="matrix" values="0 0 0 0 0 0 0 0 0 0 0 0 0 0 0 0 0 0 127 0"/>
<feOffset/>
<feGaussianBlur stdDeviation="5.3505"/>
<feColorMatrix type="matrix" values="0 0 0 0 0 0 0 0 0 0 0 0 0 0 0 0 0 0 0.46 0"/>
<feBlend mode="normal" in2="BackgroundImageFix" result="effect1_dropShadow"/>
<feBlend mode="normal" in="SourceGraphic" in2="effect1_dropShadow" result="shape"/>
</filter>
<filter id="filter1_d" x="191.745" y="410.398" width="155.541" height="7.42907" filterUnits="userSpaceOnUse" color-interpolation-filters="sRGB">
<feFlood flood-opacity="0" result="BackgroundImageFix"/>
<feColorMatrix in="SourceAlpha" type="matrix" values="0 0 0 0 0 0 0 0 0 0 0 0 0 0 0 0 0 0 127 0"/>
<feOffset dy="0.38875"/>
<feGaussianBlur stdDeviation="0.323958"/>
<feColorMatrix type="matrix" values="0 0 0 0 0 0 0 0 0 0 0 0 0 0 0 0 0 0 0.38 0"/>
<feBlend mode="normal" in2="BackgroundImageFix" result="effect1_dropShadow"/>
<feBlend mode="normal" in="SourceGraphic" in2="effect1_dropShadow" result="shape"/>
</filter>
<linearGradient id="paint0_linear" x1="269.5" y1="414.743" x2="269.5" y2="417.223" gradientUnits="userSpaceOnUse">
<stop offset="0.474551" stop-color="#D4D4D4"/>
<stop offset="1" stop-color="#B4B4B4"/>
</linearGradient>
<radialGradient id="paint1_radial" cx="0" cy="0" r="1" gradientUnits="userSpaceOnUse" gradientTransform="translate(269.5 402.048) rotate(90) scale(39.6882 263.556)">
<stop stop-color="#DBDBDB"/>
<stop offset="1" stop-color="white" stop-opacity="0"/>
</radialGradient>
<linearGradient id="paint2_linear" x1="269.5" y1="359.296" x2="269.5" y2="414.749" gradientUnits="userSpaceOnUse">
<stop stop-color="white" stop-opacity="0"/>
<stop offset="0.541436" stop-color="white"/>
<stop offset="1" stop-color="white" stop-opacity="0"/>
</linearGradient>
<linearGradient id="paint3_linear" x1="269.5" y1="359.296" x2="269.5" y2="398.109" gradientUnits="userSpaceOnUse">
<stop stop-color="#D7D7D7"/>
<stop offset="1" stop-color="white" stop-opacity="0"/>
</linearGradient>
<clipPath id="clip0">
<rect width="536" height="415.839" fill="white" transform="translate(0 0.790588)"/>
</clipPath>
</defs>
</svg>
