<svg width="871" height="810" viewBox="0 0 871 810" fill="none" xmlns="http://www.w3.org/2000/svg">
<rect x="232" y="237.723" width="1" height="9" transform="rotate(-90 232 237.723)" fill="#C7CBD8" fill-opacity="0.8"/>
<rect x="237" y="241.723" width="1" height="9" transform="rotate(-180 237 241.723)" fill="#C7CBD8" fill-opacity="0.8"/>
<rect x="278" y="237.723" width="1" height="9" transform="rotate(-90 278 237.723)" fill="#C7CBD8" fill-opacity="0.8"/>
<rect x="283" y="241.723" width="1" height="9" transform="rotate(-180 283 241.723)" fill="#C7CBD8" fill-opacity="0.8"/>
<rect x="324" y="237.723" width="1" height="9" transform="rotate(-90 324 237.723)" fill="#C7CBD8" fill-opacity="0.8"/>
<rect x="329" y="241.723" width="1" height="9" transform="rotate(-180 329 241.723)" fill="#C7CBD8" fill-opacity="0.8"/>
<rect x="255" y="237.723" width="1" height="9" transform="rotate(-90 255 237.723)" fill="#C7CBD8" fill-opacity="0.8"/>
<rect x="260" y="241.723" width="1" height="9" transform="rotate(-180 260 241.723)" fill="#C7CBD8" fill-opacity="0.8"/>
<rect x="301" y="237.723" width="1" height="9" transform="rotate(-90 301 237.723)" fill="#C7CBD8" fill-opacity="0.8"/>
<rect x="306" y="241.723" width="1" height="9" transform="rotate(-180 306 241.723)" fill="#C7CBD8" fill-opacity="0.8"/>
<rect x="347" y="237.723" width="1" height="9" transform="rotate(-90 347 237.723)" fill="#C7CBD8" fill-opacity="0.8"/>
<rect x="352" y="241.723" width="1" height="9" transform="rotate(-180 352 241.723)" fill="#C7CBD8" fill-opacity="0.8"/>
<path fill-rule="evenodd" clip-rule="evenodd" d="M213.21 239.279L215.429 241.473H217.42L213.921 238.013C213.528 237.625 212.892 237.625 212.499 238.013L209 241.473H210.991L213.21 239.279ZM213.21 235.666L215.429 233.472H217.42L213.921 236.931C213.528 237.32 212.892 237.32 212.499 236.931L209 233.472H210.991L213.21 235.666Z" fill="#C7CBD8" fill-opacity="0.8"/>
<rect width="1" height="9" transform="matrix(0 -1 -1 0 333 212.723)" fill="#C7CBD8" fill-opacity="0.8"/>
<rect width="1" height="9" transform="matrix(1 0 0 -1 328 216.723)" fill="#C7CBD8" fill-opacity="0.8"/>
<rect width="1" height="9" transform="matrix(0 -1 -1 0 356 212.723)" fill="#C7CBD8" fill-opacity="0.8"/>
<rect width="1" height="9" transform="matrix(1 0 0 -1 351 216.723)" fill="#C7CBD8" fill-opacity="0.8"/>
<rect width="1" height="9" transform="matrix(0 -1 -1 0 287 212.723)" fill="#C7CBD8" fill-opacity="0.8"/>
<rect width="1" height="9" transform="matrix(1 0 0 -1 282 216.723)" fill="#C7CBD8" fill-opacity="0.8"/>
<rect width="1" height="9" transform="matrix(0 -1 -1 0 241 212.723)" fill="#C7CBD8" fill-opacity="0.8"/>
<rect width="1" height="9" transform="matrix(1 0 0 -1 236 216.723)" fill="#C7CBD8" fill-opacity="0.8"/>
<rect width="1" height="9" transform="matrix(0 -1 -1 0 310 212.723)" fill="#C7CBD8" fill-opacity="0.8"/>
<rect width="1" height="9" transform="matrix(1 0 0 -1 305 216.723)" fill="#C7CBD8" fill-opacity="0.8"/>
<rect width="1" height="9" transform="matrix(0 -1 -1 0 264 212.723)" fill="#C7CBD8" fill-opacity="0.8"/>
<rect width="1" height="9" transform="matrix(1 0 0 -1 259 216.723)" fill="#C7CBD8" fill-opacity="0.8"/>
<rect width="1" height="9" transform="matrix(0 -1 -1 0 218 212.723)" fill="#C7CBD8" fill-opacity="0.8"/>
<rect width="1" height="9" transform="matrix(1 0 0 -1 213 216.723)" fill="#C7CBD8" fill-opacity="0.8"/>
<rect x="232" y="264.723" width="1" height="9" transform="rotate(-90 232 264.723)" fill="#C7CBD8" fill-opacity="0.8"/>
<rect x="237" y="268.723" width="1" height="9" transform="rotate(-180 237 268.723)" fill="#C7CBD8" fill-opacity="0.8"/>
<rect x="209" y="264.723" width="1" height="9" transform="rotate(-90 209 264.723)" fill="#C7CBD8" fill-opacity="0.8"/>
<rect x="214" y="268.723" width="1" height="9" transform="rotate(-180 214 268.723)" fill="#C7CBD8" fill-opacity="0.8"/>
<rect x="278" y="264.723" width="1" height="9" transform="rotate(-90 278 264.723)" fill="#C7CBD8" fill-opacity="0.8"/>
<rect x="283" y="268.723" width="1" height="9" transform="rotate(-180 283 268.723)" fill="#C7CBD8" fill-opacity="0.8"/>
<rect x="324" y="264.723" width="1" height="9" transform="rotate(-90 324 264.723)" fill="#C7CBD8" fill-opacity="0.8"/>
<rect x="329" y="268.723" width="1" height="9" transform="rotate(-180 329 268.723)" fill="#C7CBD8" fill-opacity="0.8"/>
<rect x="301" y="264.723" width="1" height="9" transform="rotate(-90 301 264.723)" fill="#C7CBD8" fill-opacity="0.8"/>
<rect x="306" y="268.723" width="1" height="9" transform="rotate(-180 306 268.723)" fill="#C7CBD8" fill-opacity="0.8"/>
<rect x="347" y="264.723" width="1" height="9" transform="rotate(-90 347 264.723)" fill="#C7CBD8" fill-opacity="0.8"/>
<rect x="352" y="268.723" width="1" height="9" transform="rotate(-180 352 268.723)" fill="#C7CBD8" fill-opacity="0.8"/>
<path fill-rule="evenodd" clip-rule="evenodd" d="M257.886 264.001L259.171 259.889H261.338L260.197 263.539L261.683 263.242L261.879 264.222L259.857 264.627L259.205 266.714H262.963L262.511 268.556H258.629L258.629 268.556H256.463L257.546 265.089L256.463 265.306L256.267 264.325L257.886 264.001Z" fill="#C7CBD8" fill-opacity="0.8"/>
<rect x="232" y="291.723" width="1" height="9" transform="rotate(-90 232 291.723)" fill="#C7CBD8" fill-opacity="0.8"/>
<rect x="237" y="295.723" width="1" height="9" transform="rotate(-180 237 295.723)" fill="#C7CBD8" fill-opacity="0.8"/>
<rect x="209" y="291.723" width="1" height="9" transform="rotate(-90 209 291.723)" fill="#C7CBD8" fill-opacity="0.8"/>
<rect x="214" y="295.723" width="1" height="9" transform="rotate(-180 214 295.723)" fill="#C7CBD8" fill-opacity="0.8"/>
<rect x="278" y="291.723" width="1" height="9" transform="rotate(-90 278 291.723)" fill="#C7CBD8" fill-opacity="0.8"/>
<rect x="283" y="295.723" width="1" height="9" transform="rotate(-180 283 295.723)" fill="#C7CBD8" fill-opacity="0.8"/>
<rect x="255" y="291.723" width="1" height="9" transform="rotate(-90 255 291.723)" fill="#C7CBD8" fill-opacity="0.8"/>
<rect x="260" y="295.723" width="1" height="9" transform="rotate(-180 260 295.723)" fill="#C7CBD8" fill-opacity="0.8"/>
<rect x="301" y="291.723" width="1" height="9" transform="rotate(-90 301 291.723)" fill="#C7CBD8" fill-opacity="0.8"/>
<rect x="306" y="295.723" width="1" height="9" transform="rotate(-180 306 295.723)" fill="#C7CBD8" fill-opacity="0.8"/>
<rect x="347" y="291.723" width="1" height="9" transform="rotate(-90 347 291.723)" fill="#C7CBD8" fill-opacity="0.8"/>
<rect x="352" y="295.723" width="1" height="9" transform="rotate(-180 352 295.723)" fill="#C7CBD8" fill-opacity="0.8"/>
<path fill-rule="evenodd" clip-rule="evenodd" d="M328.9 284.723L325 291.223L328.9 293.823L332.8 291.223L328.9 284.723ZM328.901 297.723L325.001 291.873L328.901 294.473L332.801 291.873L328.901 297.723Z" fill="#C7CBD8" fill-opacity="0.8"/>
<rect x="232" y="364.723" width="1" height="9" transform="rotate(-90 232 364.723)" fill="#C7CBD8" fill-opacity="0.8"/>
<rect x="237" y="368.723" width="1" height="9" transform="rotate(-180 237 368.723)" fill="#C7CBD8" fill-opacity="0.8"/>
<rect x="278" y="364.723" width="1" height="9" transform="rotate(-90 278 364.723)" fill="#C7CBD8" fill-opacity="0.8"/>
<rect x="283" y="368.723" width="1" height="9" transform="rotate(-180 283 368.723)" fill="#C7CBD8" fill-opacity="0.8"/>
<rect x="324" y="364.723" width="1" height="9" transform="rotate(-90 324 364.723)" fill="#C7CBD8" fill-opacity="0.8"/>
<rect x="329" y="368.723" width="1" height="9" transform="rotate(-180 329 368.723)" fill="#C7CBD8" fill-opacity="0.8"/>
<rect x="255" y="364.723" width="1" height="9" transform="rotate(-90 255 364.723)" fill="#C7CBD8" fill-opacity="0.8"/>
<rect x="260" y="368.723" width="1" height="9" transform="rotate(-180 260 368.723)" fill="#C7CBD8" fill-opacity="0.8"/>
<rect x="301" y="364.723" width="1" height="9" transform="rotate(-90 301 364.723)" fill="#C7CBD8" fill-opacity="0.8"/>
<rect x="306" y="368.723" width="1" height="9" transform="rotate(-180 306 368.723)" fill="#C7CBD8" fill-opacity="0.8"/>
<rect x="347" y="364.723" width="1" height="9" transform="rotate(-90 347 364.723)" fill="#C7CBD8" fill-opacity="0.8"/>
<rect x="352" y="368.723" width="1" height="9" transform="rotate(-180 352 368.723)" fill="#C7CBD8" fill-opacity="0.8"/>
<path fill-rule="evenodd" clip-rule="evenodd" d="M213.21 366.279L215.429 368.473H217.42L213.921 365.013C213.528 364.625 212.892 364.625 212.499 365.013L209 368.473H210.991L213.21 366.279ZM213.21 362.666L215.429 360.472H217.42L213.921 363.931C213.528 364.32 212.892 364.32 212.499 363.931L209 360.472H210.991L213.21 362.666Z" fill="#C7CBD8" fill-opacity="0.8"/>
<rect width="1" height="9" transform="matrix(0 -1 -1 0 333 339.723)" fill="#C7CBD8" fill-opacity="0.8"/>
<rect width="1" height="9" transform="matrix(1 0 0 -1 328 343.723)" fill="#C7CBD8" fill-opacity="0.8"/>
<rect width="1" height="9" transform="matrix(0 -1 -1 0 356 339.723)" fill="#C7CBD8" fill-opacity="0.8"/>
<rect width="1" height="9" transform="matrix(1 0 0 -1 351 343.723)" fill="#C7CBD8" fill-opacity="0.8"/>
<rect width="1" height="9" transform="matrix(0 -1 -1 0 287 339.723)" fill="#C7CBD8" fill-opacity="0.8"/>
<rect width="1" height="9" transform="matrix(1 0 0 -1 282 343.723)" fill="#C7CBD8" fill-opacity="0.8"/>
<rect width="1" height="9" transform="matrix(0 -1 -1 0 241 339.723)" fill="#C7CBD8" fill-opacity="0.8"/>
<rect width="1" height="9" transform="matrix(1 0 0 -1 236 343.723)" fill="#C7CBD8" fill-opacity="0.8"/>
<rect width="1" height="9" transform="matrix(0 -1 -1 0 310 339.723)" fill="#C7CBD8" fill-opacity="0.8"/>
<rect width="1" height="9" transform="matrix(1 0 0 -1 305 343.723)" fill="#C7CBD8" fill-opacity="0.8"/>
<rect width="1" height="9" transform="matrix(0 -1 -1 0 264 339.723)" fill="#C7CBD8" fill-opacity="0.8"/>
<rect width="1" height="9" transform="matrix(1 0 0 -1 259 343.723)" fill="#C7CBD8" fill-opacity="0.8"/>
<rect width="1" height="9" transform="matrix(0 -1 -1 0 218 339.723)" fill="#C7CBD8" fill-opacity="0.8"/>
<rect width="1" height="9" transform="matrix(1 0 0 -1 213 343.723)" fill="#C7CBD8" fill-opacity="0.8"/>
<rect x="232" y="391.723" width="1" height="9" transform="rotate(-90 232 391.723)" fill="#C7CBD8" fill-opacity="0.8"/>
<rect x="237" y="395.723" width="1" height="9" transform="rotate(-180 237 395.723)" fill="#C7CBD8" fill-opacity="0.8"/>
<rect x="209" y="391.723" width="1" height="9" transform="rotate(-90 209 391.723)" fill="#C7CBD8" fill-opacity="0.8"/>
<rect x="214" y="395.723" width="1" height="9" transform="rotate(-180 214 395.723)" fill="#C7CBD8" fill-opacity="0.8"/>
<rect x="278" y="391.723" width="1" height="9" transform="rotate(-90 278 391.723)" fill="#C7CBD8" fill-opacity="0.8"/>
<rect x="283" y="395.723" width="1" height="9" transform="rotate(-180 283 395.723)" fill="#C7CBD8" fill-opacity="0.8"/>
<rect x="324" y="391.723" width="1" height="9" transform="rotate(-90 324 391.723)" fill="#C7CBD8" fill-opacity="0.8"/>
<rect x="329" y="395.723" width="1" height="9" transform="rotate(-180 329 395.723)" fill="#C7CBD8" fill-opacity="0.8"/>
<rect x="301" y="391.723" width="1" height="9" transform="rotate(-90 301 391.723)" fill="#C7CBD8" fill-opacity="0.8"/>
<rect x="306" y="395.723" width="1" height="9" transform="rotate(-180 306 395.723)" fill="#C7CBD8" fill-opacity="0.8"/>
<rect x="347" y="391.723" width="1" height="9" transform="rotate(-90 347 391.723)" fill="#C7CBD8" fill-opacity="0.8"/>
<rect x="352" y="395.723" width="1" height="9" transform="rotate(-180 352 395.723)" fill="#C7CBD8" fill-opacity="0.8"/>
<path fill-rule="evenodd" clip-rule="evenodd" d="M257.886 391.001L259.171 386.889H261.338L260.197 390.539L261.683 390.242L261.879 391.222L259.857 391.627L259.205 393.714H262.963L262.511 395.556H258.629L258.629 395.556H256.463L257.546 392.089L256.463 392.306L256.267 391.325L257.886 391.001Z" fill="#C7CBD8" fill-opacity="0.8"/>
<rect x="232" y="418.723" width="1" height="9" transform="rotate(-90 232 418.723)" fill="#C7CBD8" fill-opacity="0.8"/>
<rect x="237" y="422.723" width="1" height="9" transform="rotate(-180 237 422.723)" fill="#C7CBD8" fill-opacity="0.8"/>
<rect x="209" y="418.723" width="1" height="9" transform="rotate(-90 209 418.723)" fill="#C7CBD8" fill-opacity="0.8"/>
<rect x="214" y="422.723" width="1" height="9" transform="rotate(-180 214 422.723)" fill="#C7CBD8" fill-opacity="0.8"/>
<rect x="278" y="418.723" width="1" height="9" transform="rotate(-90 278 418.723)" fill="#C7CBD8" fill-opacity="0.8"/>
<rect x="283" y="422.723" width="1" height="9" transform="rotate(-180 283 422.723)" fill="#C7CBD8" fill-opacity="0.8"/>
<rect x="255" y="418.723" width="1" height="9" transform="rotate(-90 255 418.723)" fill="#C7CBD8" fill-opacity="0.8"/>
<rect x="260" y="422.723" width="1" height="9" transform="rotate(-180 260 422.723)" fill="#C7CBD8" fill-opacity="0.8"/>
<rect x="301" y="418.723" width="1" height="9" transform="rotate(-90 301 418.723)" fill="#C7CBD8" fill-opacity="0.8"/>
<rect x="306" y="422.723" width="1" height="9" transform="rotate(-180 306 422.723)" fill="#C7CBD8" fill-opacity="0.8"/>
<rect x="347" y="418.723" width="1" height="9" transform="rotate(-90 347 418.723)" fill="#C7CBD8" fill-opacity="0.8"/>
<rect x="352" y="422.723" width="1" height="9" transform="rotate(-180 352 422.723)" fill="#C7CBD8" fill-opacity="0.8"/>
<path fill-rule="evenodd" clip-rule="evenodd" d="M328.9 411.723L325 418.223L328.9 420.823L332.8 418.223L328.9 411.723ZM328.901 424.723L325.001 418.873L328.901 421.473L332.801 418.873L328.901 424.723Z" fill="#C7CBD8" fill-opacity="0.8"/>
<rect x="232" y="315.723" width="1" height="9" transform="rotate(-90 232 315.723)" fill="#C7CBD8" fill-opacity="0.8"/>
<rect x="237" y="319.723" width="1" height="9" transform="rotate(-180 237 319.723)" fill="#C7CBD8" fill-opacity="0.8"/>
<rect x="209" y="315.723" width="1" height="9" transform="rotate(-90 209 315.723)" fill="#C7CBD8" fill-opacity="0.8"/>
<rect x="214" y="319.723" width="1" height="9" transform="rotate(-180 214 319.723)" fill="#C7CBD8" fill-opacity="0.8"/>
<rect x="255" y="315.723" width="1" height="9" transform="rotate(-90 255 315.723)" fill="#C7CBD8" fill-opacity="0.8"/>
<rect x="260" y="319.723" width="1" height="9" transform="rotate(-180 260 319.723)" fill="#C7CBD8" fill-opacity="0.8"/>
<rect x="301" y="315.723" width="1" height="9" transform="rotate(-90 301 315.723)" fill="#C7CBD8" fill-opacity="0.8"/>
<rect x="306" y="319.723" width="1" height="9" transform="rotate(-180 306 319.723)" fill="#C7CBD8" fill-opacity="0.8"/>
<rect x="324" y="315.723" width="1" height="9" transform="rotate(-90 324 315.723)" fill="#C7CBD8" fill-opacity="0.8"/>
<rect x="329" y="319.723" width="1" height="9" transform="rotate(-180 329 319.723)" fill="#C7CBD8" fill-opacity="0.8"/>
<rect x="347" y="315.723" width="1" height="9" transform="rotate(-90 347 315.723)" fill="#C7CBD8" fill-opacity="0.8"/>
<rect x="352" y="319.723" width="1" height="9" transform="rotate(-180 352 319.723)" fill="#C7CBD8" fill-opacity="0.8"/>
<path fill-rule="evenodd" clip-rule="evenodd" d="M286 316.805C286 318.184 284.883 319.301 283.504 319.301H281.3V320.523H279.5V319.301H278V317.66H279.5V312.464H278V310.823H279.5V309.723H281.3V310.823H283.504C284.883 310.823 286 311.94 286 313.318C286 313.997 285.729 314.612 285.29 315.062C285.729 315.512 286 316.127 286 316.805ZM281.3 312.327H283.436C283.983 312.327 284.427 312.771 284.427 313.318C284.427 313.86 283.993 314.3 283.454 314.31H281.3V312.327ZM281.3 315.814H283.436C283.983 315.814 284.427 316.258 284.427 316.806C284.427 317.353 283.983 317.797 283.436 317.797H281.3V315.814Z" fill="#C7CBD8" fill-opacity="0.8"/>
<rect x="232" y="489.723" width="1" height="9" transform="rotate(-90 232 489.723)" fill="#C7CBD8" fill-opacity="0.8"/>
<rect x="237" y="493.723" width="1" height="9" transform="rotate(-180 237 493.723)" fill="#C7CBD8" fill-opacity="0.8"/>
<rect x="278" y="489.723" width="1" height="9" transform="rotate(-90 278 489.723)" fill="#C7CBD8" fill-opacity="0.8"/>
<rect x="283" y="493.723" width="1" height="9" transform="rotate(-180 283 493.723)" fill="#C7CBD8" fill-opacity="0.8"/>
<rect x="324" y="489.723" width="1" height="9" transform="rotate(-90 324 489.723)" fill="#C7CBD8" fill-opacity="0.8"/>
<rect x="329" y="493.723" width="1" height="9" transform="rotate(-180 329 493.723)" fill="#C7CBD8" fill-opacity="0.8"/>
<rect x="255" y="489.723" width="1" height="9" transform="rotate(-90 255 489.723)" fill="#C7CBD8" fill-opacity="0.8"/>
<rect x="260" y="493.723" width="1" height="9" transform="rotate(-180 260 493.723)" fill="#C7CBD8" fill-opacity="0.8"/>
<rect x="301" y="489.723" width="1" height="9" transform="rotate(-90 301 489.723)" fill="#C7CBD8" fill-opacity="0.8"/>
<rect x="306" y="493.723" width="1" height="9" transform="rotate(-180 306 493.723)" fill="#C7CBD8" fill-opacity="0.8"/>
<rect x="347" y="489.723" width="1" height="9" transform="rotate(-90 347 489.723)" fill="#C7CBD8" fill-opacity="0.8"/>
<rect x="352" y="493.723" width="1" height="9" transform="rotate(-180 352 493.723)" fill="#C7CBD8" fill-opacity="0.8"/>
<path fill-rule="evenodd" clip-rule="evenodd" d="M213.21 491.279L215.429 493.473H217.42L213.921 490.013C213.528 489.625 212.892 489.625 212.499 490.013L209 493.473H210.991L213.21 491.279ZM213.21 487.666L215.429 485.472H217.42L213.921 488.931C213.528 489.32 212.892 489.32 212.499 488.931L209 485.472H210.991L213.21 487.666Z" fill="#C7CBD8" fill-opacity="0.8"/>
<rect width="1" height="9" transform="matrix(0 -1 -1 0 333 464.723)" fill="#C7CBD8" fill-opacity="0.8"/>
<rect width="1" height="9" transform="matrix(1 0 0 -1 328 468.723)" fill="#C7CBD8" fill-opacity="0.8"/>
<rect width="1" height="9" transform="matrix(0 -1 -1 0 356 464.723)" fill="#C7CBD8" fill-opacity="0.8"/>
<rect width="1" height="9" transform="matrix(1 0 0 -1 351 468.723)" fill="#C7CBD8" fill-opacity="0.8"/>
<rect width="1" height="9" transform="matrix(0 -1 -1 0 287 464.723)" fill="#C7CBD8" fill-opacity="0.8"/>
<rect width="1" height="9" transform="matrix(1 0 0 -1 282 468.723)" fill="#C7CBD8" fill-opacity="0.8"/>
<rect width="1" height="9" transform="matrix(0 -1 -1 0 241 464.723)" fill="#C7CBD8" fill-opacity="0.8"/>
<rect width="1" height="9" transform="matrix(1 0 0 -1 236 468.723)" fill="#C7CBD8" fill-opacity="0.8"/>
<rect width="1" height="9" transform="matrix(0 -1 -1 0 310 464.723)" fill="#C7CBD8" fill-opacity="0.8"/>
<rect width="1" height="9" transform="matrix(1 0 0 -1 305 468.723)" fill="#C7CBD8" fill-opacity="0.8"/>
<rect width="1" height="9" transform="matrix(0 -1 -1 0 264 464.723)" fill="#C7CBD8" fill-opacity="0.8"/>
<rect width="1" height="9" transform="matrix(1 0 0 -1 259 468.723)" fill="#C7CBD8" fill-opacity="0.8"/>
<rect width="1" height="9" transform="matrix(0 -1 -1 0 218 464.723)" fill="#C7CBD8" fill-opacity="0.8"/>
<rect width="1" height="9" transform="matrix(1 0 0 -1 213 468.723)" fill="#C7CBD8" fill-opacity="0.8"/>
<rect x="232" y="516.723" width="1" height="9" transform="rotate(-90 232 516.723)" fill="#C7CBD8" fill-opacity="0.8"/>
<rect x="237" y="520.723" width="1" height="9" transform="rotate(-180 237 520.723)" fill="#C7CBD8" fill-opacity="0.8"/>
<rect x="209" y="516.723" width="1" height="9" transform="rotate(-90 209 516.723)" fill="#C7CBD8" fill-opacity="0.8"/>
<rect x="214" y="520.723" width="1" height="9" transform="rotate(-180 214 520.723)" fill="#C7CBD8" fill-opacity="0.8"/>
<rect x="278" y="516.723" width="1" height="9" transform="rotate(-90 278 516.723)" fill="#C7CBD8" fill-opacity="0.8"/>
<rect x="283" y="520.723" width="1" height="9" transform="rotate(-180 283 520.723)" fill="#C7CBD8" fill-opacity="0.8"/>
<rect x="324" y="516.723" width="1" height="9" transform="rotate(-90 324 516.723)" fill="#C7CBD8" fill-opacity="0.8"/>
<rect x="329" y="520.723" width="1" height="9" transform="rotate(-180 329 520.723)" fill="#C7CBD8" fill-opacity="0.8"/>
<rect x="301" y="516.723" width="1" height="9" transform="rotate(-90 301 516.723)" fill="#C7CBD8" fill-opacity="0.8"/>
<rect x="306" y="520.723" width="1" height="9" transform="rotate(-180 306 520.723)" fill="#C7CBD8" fill-opacity="0.8"/>
<rect x="347" y="516.723" width="1" height="9" transform="rotate(-90 347 516.723)" fill="#C7CBD8" fill-opacity="0.8"/>
<rect x="352" y="520.723" width="1" height="9" transform="rotate(-180 352 520.723)" fill="#C7CBD8" fill-opacity="0.8"/>
<path fill-rule="evenodd" clip-rule="evenodd" d="M257.886 516.001L259.171 511.889H261.338L260.197 515.539L261.683 515.242L261.879 516.222L259.857 516.627L259.205 518.714H262.963L262.511 520.556H258.629L258.629 520.556H256.463L257.546 517.089L256.463 517.306L256.267 516.325L257.886 516.001Z" fill="#C7CBD8" fill-opacity="0.8"/>
<rect x="232" y="440.723" width="1" height="9" transform="rotate(-90 232 440.723)" fill="#C7CBD8" fill-opacity="0.8"/>
<rect x="237" y="444.723" width="1" height="9" transform="rotate(-180 237 444.723)" fill="#C7CBD8" fill-opacity="0.8"/>
<rect x="209" y="440.723" width="1" height="9" transform="rotate(-90 209 440.723)" fill="#C7CBD8" fill-opacity="0.8"/>
<rect x="214" y="444.723" width="1" height="9" transform="rotate(-180 214 444.723)" fill="#C7CBD8" fill-opacity="0.8"/>
<rect x="255" y="440.723" width="1" height="9" transform="rotate(-90 255 440.723)" fill="#C7CBD8" fill-opacity="0.8"/>
<rect x="260" y="444.723" width="1" height="9" transform="rotate(-180 260 444.723)" fill="#C7CBD8" fill-opacity="0.8"/>
<rect x="301" y="440.723" width="1" height="9" transform="rotate(-90 301 440.723)" fill="#C7CBD8" fill-opacity="0.8"/>
<rect x="306" y="444.723" width="1" height="9" transform="rotate(-180 306 444.723)" fill="#C7CBD8" fill-opacity="0.8"/>
<rect x="324" y="440.723" width="1" height="9" transform="rotate(-90 324 440.723)" fill="#C7CBD8" fill-opacity="0.8"/>
<rect x="329" y="444.723" width="1" height="9" transform="rotate(-180 329 444.723)" fill="#C7CBD8" fill-opacity="0.8"/>
<rect x="347" y="440.723" width="1" height="9" transform="rotate(-90 347 440.723)" fill="#C7CBD8" fill-opacity="0.8"/>
<rect x="352" y="444.723" width="1" height="9" transform="rotate(-180 352 444.723)" fill="#C7CBD8" fill-opacity="0.8"/>
<path fill-rule="evenodd" clip-rule="evenodd" d="M286 441.805C286 443.184 284.883 444.301 283.504 444.301H281.3V445.523H279.5V444.301H278V442.66H279.5V437.464H278V435.823H279.5V434.723H281.3V435.823H283.504C284.883 435.823 286 436.94 286 438.318C286 438.997 285.729 439.612 285.29 440.062C285.729 440.512 286 441.127 286 441.805ZM281.3 437.327H283.436C283.983 437.327 284.427 437.771 284.427 438.318C284.427 438.86 283.993 439.3 283.454 439.31H281.3V437.327ZM281.3 440.814H283.436C283.983 440.814 284.427 441.258 284.427 441.806C284.427 442.353 283.983 442.797 283.436 442.797H281.3V440.814Z" fill="#C7CBD8" fill-opacity="0.8"/>
<g filter="url(#filter0_d)">
<path fill-rule="evenodd" clip-rule="evenodd" d="M275.073 249.179H664.675C673.197 249.179 675.588 249.179 679.257 250.412C683.595 251.997 687.031 255.434 688.616 259.771C689.85 263.44 689.85 265.832 689.85 274.354C689.85 297.956 689.85 533.098 689.85 533.098C689.85 541.62 689.85 544.011 688.616 547.68C687.031 552.017 683.595 555.454 679.257 557.039C675.588 558.273 673.197 558.273 664.675 558.273C641.073 558.273 275.073 558.273 275.073 558.273C266.552 558.273 264.16 558.273 260.491 557.039C256.154 555.454 252.717 552.017 251.132 547.68C249.898 544.011 249.898 541.62 249.898 533.098C249.898 509.496 249.898 274.354 249.898 274.354C249.898 265.832 249.898 263.44 251.132 259.771C252.717 255.434 256.154 251.997 260.491 250.412C264.16 249.179 266.552 249.179 275.073 249.179Z" fill="url(#paint0_linear)"/>
</g>
<defs>
<filter id="filter0_d" x="0.0929108" y="0.599224" width="939.563" height="808.705" filterUnits="userSpaceOnUse" color-interpolation-filters="sRGB">
<feFlood flood-opacity="0" result="BackgroundImageFix"/>
<feColorMatrix in="SourceAlpha" type="matrix" values="0 0 0 0 0 0 0 0 0 0 0 0 0 0 0 0 0 0 127 0"/>
<feOffset dy="1.22604"/>
<feGaussianBlur stdDeviation="124.903"/>
<feColorMatrix type="matrix" values="0 0 0 0 0 0 0 0 0 0 0 0 0 0 0 0 0 0 0.03 0"/>
<feBlend mode="normal" in2="BackgroundImageFix" result="effect1_dropShadow"/>
<feBlend mode="normal" in="SourceGraphic" in2="effect1_dropShadow" result="shape"/>
</filter>
<linearGradient id="paint0_linear" x1="469.875" y1="248.677" x2="469.875" y2="558.774" gradientUnits="userSpaceOnUse">
<stop offset="0.625" stop-color="#F4F4F4"/>
<stop offset="0.931" stop-color="#F3F3F3"/>
</linearGradient>
</defs>
</svg>
