<svg width="507" height="504" viewBox="0 0 507 504" fill="none" xmlns="http://www.w3.org/2000/svg">
<g clip-path="url(#clip0)">
<rect x="26" y="349.055" width="1" height="9" transform="rotate(-90 26 349.055)" fill="#C7CBD8" fill-opacity="0.7"/>
<rect x="31" y="353.055" width="1" height="9" transform="rotate(-180 31 353.055)" fill="#C7CBD8" fill-opacity="0.7"/>
<rect x="72" y="349.055" width="1" height="9" transform="rotate(-90 72 349.055)" fill="#C7CBD8" fill-opacity="0.7"/>
<rect x="77" y="353.055" width="1" height="9" transform="rotate(-180 77 353.055)" fill="#C7CBD8" fill-opacity="0.7"/>
<rect x="118" y="349.055" width="1" height="9" transform="rotate(-90 118 349.055)" fill="#C7CBD8" fill-opacity="0.7"/>
<rect x="123" y="353.055" width="1" height="9" transform="rotate(-180 123 353.055)" fill="#C7CBD8" fill-opacity="0.7"/>
<rect x="49" y="349.055" width="1" height="9" transform="rotate(-90 49 349.055)" fill="#C7CBD8" fill-opacity="0.7"/>
<rect x="54" y="353.055" width="1" height="9" transform="rotate(-180 54 353.055)" fill="#C7CBD8" fill-opacity="0.7"/>
<rect x="95" y="349.055" width="1" height="9" transform="rotate(-90 95 349.055)" fill="#C7CBD8" fill-opacity="0.7"/>
<rect x="100" y="353.055" width="1" height="9" transform="rotate(-180 100 353.055)" fill="#C7CBD8" fill-opacity="0.7"/>
<rect x="141" y="349.055" width="1" height="9" transform="rotate(-90 141 349.055)" fill="#C7CBD8" fill-opacity="0.7"/>
<rect x="146" y="353.055" width="1" height="9" transform="rotate(-180 146 353.055)" fill="#C7CBD8" fill-opacity="0.7"/>
<path fill-rule="evenodd" clip-rule="evenodd" d="M7.20994 350.611L9.42875 352.805H11.4199L7.92106 349.346C7.52832 348.957 6.89156 348.957 6.49882 349.346L3 352.805H4.99113L7.20994 350.611ZM7.20994 346.998L9.42875 344.804H11.4199L7.92106 348.264C7.52832 348.652 6.89156 348.652 6.49882 348.264L3 344.804H4.99113L7.20994 346.998Z" fill="#C7CBD8" fill-opacity="0.7"/>
<rect width="1" height="9" transform="matrix(0 -1 -1 0 127 324.055)" fill="#C7CBD8" fill-opacity="0.7"/>
<rect width="1" height="9" transform="matrix(1 0 0 -1 122 328.055)" fill="#C7CBD8" fill-opacity="0.7"/>
<rect width="1" height="9" transform="matrix(0 -1 -1 0 150 324.055)" fill="#C7CBD8" fill-opacity="0.7"/>
<rect width="1" height="9" transform="matrix(1 0 0 -1 145 328.055)" fill="#C7CBD8" fill-opacity="0.7"/>
<rect width="1" height="9" transform="matrix(0 -1 -1 0 81 324.055)" fill="#C7CBD8" fill-opacity="0.7"/>
<rect width="1" height="9" transform="matrix(1 0 0 -1 76 328.055)" fill="#C7CBD8" fill-opacity="0.7"/>
<rect width="1" height="9" transform="matrix(0 -1 -1 0 35 324.055)" fill="#C7CBD8" fill-opacity="0.7"/>
<rect width="1" height="9" transform="matrix(1 0 0 -1 30 328.055)" fill="#C7CBD8" fill-opacity="0.7"/>
<rect width="1" height="9" transform="matrix(0 -1 -1 0 104 324.055)" fill="#C7CBD8" fill-opacity="0.7"/>
<rect width="1" height="9" transform="matrix(1 0 0 -1 99 328.055)" fill="#C7CBD8" fill-opacity="0.7"/>
<rect width="1" height="9" transform="matrix(0 -1 -1 0 58 324.055)" fill="#C7CBD8" fill-opacity="0.7"/>
<rect width="1" height="9" transform="matrix(1 0 0 -1 53 328.055)" fill="#C7CBD8" fill-opacity="0.7"/>
<rect width="1" height="9" transform="matrix(0 -1 -1 0 12 324.055)" fill="#C7CBD8" fill-opacity="0.7"/>
<rect width="1" height="9" transform="matrix(1 0 0 -1 7 328.055)" fill="#C7CBD8" fill-opacity="0.7"/>
<rect x="26" y="376.055" width="1" height="9" transform="rotate(-90 26 376.055)" fill="#C7CBD8" fill-opacity="0.7"/>
<rect x="31" y="380.055" width="1" height="9" transform="rotate(-180 31 380.055)" fill="#C7CBD8" fill-opacity="0.7"/>
<rect x="3" y="376.055" width="1" height="9" transform="rotate(-90 3 376.055)" fill="#C7CBD8" fill-opacity="0.7"/>
<rect x="8" y="380.055" width="1" height="9" transform="rotate(-180 8 380.055)" fill="#C7CBD8" fill-opacity="0.7"/>
<rect x="72" y="376.055" width="1" height="9" transform="rotate(-90 72 376.055)" fill="#C7CBD8" fill-opacity="0.7"/>
<rect x="77" y="380.055" width="1" height="9" transform="rotate(-180 77 380.055)" fill="#C7CBD8" fill-opacity="0.7"/>
<rect x="118" y="376.055" width="1" height="9" transform="rotate(-90 118 376.055)" fill="#C7CBD8" fill-opacity="0.7"/>
<rect x="123" y="380.055" width="1" height="9" transform="rotate(-180 123 380.055)" fill="#C7CBD8" fill-opacity="0.7"/>
<rect x="95" y="376.055" width="1" height="9" transform="rotate(-90 95 376.055)" fill="#C7CBD8" fill-opacity="0.7"/>
<rect x="100" y="380.055" width="1" height="9" transform="rotate(-180 100 380.055)" fill="#C7CBD8" fill-opacity="0.7"/>
<rect x="141" y="376.055" width="1" height="9" transform="rotate(-90 141 376.055)" fill="#C7CBD8" fill-opacity="0.7"/>
<rect x="146" y="380.055" width="1" height="9" transform="rotate(-180 146 380.055)" fill="#C7CBD8" fill-opacity="0.7"/>
<path fill-rule="evenodd" clip-rule="evenodd" d="M51.886 375.334L53.171 371.221H55.3377L54.1971 374.871L55.6833 374.574L55.8794 375.555L53.8572 375.959L53.2049 378.046H56.9627L56.5113 379.888H52.6294L52.6294 379.888H50.4627L51.546 376.421L50.4627 376.638L50.2666 375.658L51.886 375.334Z" fill="#C7CBD8" fill-opacity="0.7"/>
<rect x="26" y="403.055" width="1" height="9" transform="rotate(-90 26 403.055)" fill="#C7CBD8" fill-opacity="0.7"/>
<rect x="31" y="407.055" width="1" height="9" transform="rotate(-180 31 407.055)" fill="#C7CBD8" fill-opacity="0.7"/>
<rect x="3" y="403.055" width="1" height="9" transform="rotate(-90 3 403.055)" fill="#C7CBD8" fill-opacity="0.7"/>
<rect x="8" y="407.055" width="1" height="9" transform="rotate(-180 8 407.055)" fill="#C7CBD8" fill-opacity="0.7"/>
<rect x="72" y="403.055" width="1" height="9" transform="rotate(-90 72 403.055)" fill="#C7CBD8" fill-opacity="0.7"/>
<rect x="77" y="407.055" width="1" height="9" transform="rotate(-180 77 407.055)" fill="#C7CBD8" fill-opacity="0.7"/>
<rect x="49" y="403.055" width="1" height="9" transform="rotate(-90 49 403.055)" fill="#C7CBD8" fill-opacity="0.7"/>
<rect x="54" y="407.055" width="1" height="9" transform="rotate(-180 54 407.055)" fill="#C7CBD8" fill-opacity="0.7"/>
<rect x="95" y="403.055" width="1" height="9" transform="rotate(-90 95 403.055)" fill="#C7CBD8" fill-opacity="0.7"/>
<rect x="100" y="407.055" width="1" height="9" transform="rotate(-180 100 407.055)" fill="#C7CBD8" fill-opacity="0.7"/>
<rect x="141" y="403.055" width="1" height="9" transform="rotate(-90 141 403.055)" fill="#C7CBD8" fill-opacity="0.7"/>
<rect x="146" y="407.055" width="1" height="9" transform="rotate(-180 146 407.055)" fill="#C7CBD8" fill-opacity="0.7"/>
<path fill-rule="evenodd" clip-rule="evenodd" d="M122.9 396.055L119 402.555L122.9 405.155L126.8 402.555L122.9 396.055ZM122.901 409.055L119.001 403.205L122.901 405.805L126.801 403.205L122.901 409.055Z" fill="#C7CBD8" fill-opacity="0.7"/>
<rect x="26" y="300.055" width="1" height="9" transform="rotate(-90 26 300.055)" fill="#C7CBD8" fill-opacity="0.7"/>
<rect x="31" y="304.055" width="1" height="9" transform="rotate(-180 31 304.055)" fill="#C7CBD8" fill-opacity="0.7"/>
<rect x="3" y="300.055" width="1" height="9" transform="rotate(-90 3 300.055)" fill="#C7CBD8" fill-opacity="0.7"/>
<rect x="8" y="304.055" width="1" height="9" transform="rotate(-180 8 304.055)" fill="#C7CBD8" fill-opacity="0.7"/>
<rect x="49" y="300.055" width="1" height="9" transform="rotate(-90 49 300.055)" fill="#C7CBD8" fill-opacity="0.7"/>
<rect x="54" y="304.055" width="1" height="9" transform="rotate(-180 54 304.055)" fill="#C7CBD8" fill-opacity="0.7"/>
<rect x="95" y="300.055" width="1" height="9" transform="rotate(-90 95 300.055)" fill="#C7CBD8" fill-opacity="0.7"/>
<rect x="100" y="304.055" width="1" height="9" transform="rotate(-180 100 304.055)" fill="#C7CBD8" fill-opacity="0.7"/>
<rect x="118" y="300.055" width="1" height="9" transform="rotate(-90 118 300.055)" fill="#C7CBD8" fill-opacity="0.7"/>
<rect x="123" y="304.055" width="1" height="9" transform="rotate(-180 123 304.055)" fill="#C7CBD8" fill-opacity="0.7"/>
<rect x="141" y="300.055" width="1" height="9" transform="rotate(-90 141 300.055)" fill="#C7CBD8" fill-opacity="0.7"/>
<rect x="146" y="304.055" width="1" height="9" transform="rotate(-180 146 304.055)" fill="#C7CBD8" fill-opacity="0.7"/>
<path fill-rule="evenodd" clip-rule="evenodd" d="M80 301.138C80 302.516 78.8826 303.633 77.5043 303.633H75.2998V304.855H73.4998V303.633H72V301.992H73.4998V296.796H72V295.155H73.4998V294.055H75.2998V295.155H77.5043C78.8826 295.155 80 296.272 80 297.651C80 298.329 79.7293 298.944 79.29 299.394C79.7293 299.844 80 300.459 80 301.138ZM75.2998 296.659H77.4359C77.9834 296.659 78.4273 297.103 78.4273 297.651C78.4273 298.192 77.993 298.632 77.4536 298.642H75.2998V296.659ZM75.2998 300.146H77.4359C77.9834 300.146 78.4273 300.59 78.4273 301.138C78.4273 301.685 77.9834 302.129 77.4359 302.129H75.2998V300.146Z" fill="#C7CBD8" fill-opacity="0.7"/>
<rect x="383" y="120.905" width="0.998165" height="9" transform="rotate(-90 383 120.905)" fill="#C7CBD8" fill-opacity="0.7"/>
<rect x="388" y="124.897" width="1" height="8.98348" transform="rotate(-180 388 124.897)" fill="#C7CBD8" fill-opacity="0.7"/>
<rect x="429" y="120.905" width="0.998165" height="9" transform="rotate(-90 429 120.905)" fill="#C7CBD8" fill-opacity="0.7"/>
<rect x="434" y="124.897" width="1" height="8.98348" transform="rotate(-180 434 124.897)" fill="#C7CBD8" fill-opacity="0.7"/>
<rect x="475" y="120.905" width="0.998165" height="9" transform="rotate(-90 475 120.905)" fill="#C7CBD8" fill-opacity="0.7"/>
<rect x="480" y="124.897" width="1" height="8.98348" transform="rotate(-180 480 124.897)" fill="#C7CBD8" fill-opacity="0.7"/>
<rect x="406" y="120.905" width="0.998165" height="9" transform="rotate(-90 406 120.905)" fill="#C7CBD8" fill-opacity="0.7"/>
<rect x="411" y="124.897" width="1" height="8.98348" transform="rotate(-180 411 124.897)" fill="#C7CBD8" fill-opacity="0.7"/>
<rect x="452" y="120.905" width="0.998165" height="9" transform="rotate(-90 452 120.905)" fill="#C7CBD8" fill-opacity="0.7"/>
<rect x="457" y="124.897" width="1" height="8.98348" transform="rotate(-180 457 124.897)" fill="#C7CBD8" fill-opacity="0.7"/>
<rect x="498" y="120.905" width="0.998165" height="9" transform="rotate(-90 498 120.905)" fill="#C7CBD8" fill-opacity="0.7"/>
<rect x="503" y="124.897" width="1" height="8.98348" transform="rotate(-180 503 124.897)" fill="#C7CBD8" fill-opacity="0.7"/>
<path fill-rule="evenodd" clip-rule="evenodd" d="M364.21 122.46L366.427 124.648H368.42L364.922 121.196C364.529 120.808 363.891 120.808 363.498 121.196L360 124.648H361.993L364.21 122.46ZM364.21 118.85L366.427 116.662H368.42L364.922 120.114C364.529 120.502 363.891 120.502 363.498 120.114L360 116.662H361.993L364.21 118.85Z" fill="#C7CBD8" fill-opacity="0.7"/>
<rect width="0.998165" height="9" transform="matrix(0 -1 -1 0 484 95.9507)" fill="#C7CBD8" fill-opacity="0.7"/>
<rect width="1" height="8.98348" transform="matrix(1 0 0 -1 479 99.9433)" fill="#C7CBD8" fill-opacity="0.7"/>
<rect width="0.998165" height="9" transform="matrix(0 -1 -1 0 507 95.9507)" fill="#C7CBD8" fill-opacity="0.7"/>
<rect width="1" height="8.98348" transform="matrix(1 0 0 -1 502 99.9433)" fill="#C7CBD8" fill-opacity="0.7"/>
<rect width="0.998165" height="9" transform="matrix(0 -1 -1 0 438 95.9507)" fill="#C7CBD8" fill-opacity="0.7"/>
<rect width="1" height="8.98348" transform="matrix(1 0 0 -1 433 99.9433)" fill="#C7CBD8" fill-opacity="0.7"/>
<rect width="0.998165" height="9" transform="matrix(0 -1 -1 0 392 95.9507)" fill="#C7CBD8" fill-opacity="0.7"/>
<rect width="1" height="8.98348" transform="matrix(1 0 0 -1 387 99.9433)" fill="#C7CBD8" fill-opacity="0.7"/>
<rect width="0.998165" height="9" transform="matrix(0 -1 -1 0 461 95.9507)" fill="#C7CBD8" fill-opacity="0.7"/>
<rect width="1" height="8.98348" transform="matrix(1 0 0 -1 456 99.9433)" fill="#C7CBD8" fill-opacity="0.7"/>
<rect width="0.998165" height="9" transform="matrix(0 -1 -1 0 415 95.9507)" fill="#C7CBD8" fill-opacity="0.7"/>
<rect width="1" height="8.98348" transform="matrix(1 0 0 -1 410 99.9433)" fill="#C7CBD8" fill-opacity="0.7"/>
<rect width="0.998165" height="9" transform="matrix(0 -1 -1 0 369 95.9507)" fill="#C7CBD8" fill-opacity="0.7"/>
<rect width="1" height="8.98348" transform="matrix(1 0 0 -1 364 99.9433)" fill="#C7CBD8" fill-opacity="0.7"/>
<rect x="383" y="147.855" width="0.998165" height="9" transform="rotate(-90 383 147.855)" fill="#C7CBD8" fill-opacity="0.7"/>
<rect x="388" y="151.848" width="1" height="8.98348" transform="rotate(-180 388 151.848)" fill="#C7CBD8" fill-opacity="0.7"/>
<rect x="360" y="147.855" width="0.998165" height="9" transform="rotate(-90 360 147.855)" fill="#C7CBD8" fill-opacity="0.7"/>
<rect x="365" y="151.848" width="1" height="8.98348" transform="rotate(-180 365 151.848)" fill="#C7CBD8" fill-opacity="0.7"/>
<rect x="429" y="147.855" width="0.998165" height="9" transform="rotate(-90 429 147.855)" fill="#C7CBD8" fill-opacity="0.7"/>
<rect x="434" y="151.848" width="1" height="8.98348" transform="rotate(-180 434 151.848)" fill="#C7CBD8" fill-opacity="0.7"/>
<rect x="475" y="147.855" width="0.998165" height="9" transform="rotate(-90 475 147.855)" fill="#C7CBD8" fill-opacity="0.7"/>
<rect x="480" y="151.848" width="1" height="8.98348" transform="rotate(-180 480 151.848)" fill="#C7CBD8" fill-opacity="0.7"/>
<rect x="452" y="147.855" width="0.998165" height="9" transform="rotate(-90 452 147.855)" fill="#C7CBD8" fill-opacity="0.7"/>
<rect x="457" y="151.848" width="1" height="8.98348" transform="rotate(-180 457 151.848)" fill="#C7CBD8" fill-opacity="0.7"/>
<rect x="498" y="147.855" width="0.998165" height="9" transform="rotate(-90 498 147.855)" fill="#C7CBD8" fill-opacity="0.7"/>
<rect x="503" y="151.848" width="1" height="8.98348" transform="rotate(-180 503 151.848)" fill="#C7CBD8" fill-opacity="0.7"/>
<path fill-rule="evenodd" clip-rule="evenodd" d="M408.886 147.134L410.171 143.031H412.338L411.198 146.672L412.683 146.376L412.88 147.356L410.857 147.76L410.205 149.843H413.963L413.511 151.682L409.629 151.682L408.546 151.682L407.463 151.682L408.546 148.221L407.463 148.437L407.266 147.457L408.886 147.134Z" fill="#C7CBD8" fill-opacity="0.7"/>
<rect x="383" y="174.806" width="0.998165" height="9" transform="rotate(-90 383 174.806)" fill="#C7CBD8" fill-opacity="0.7"/>
<rect x="388" y="178.798" width="1" height="8.98348" transform="rotate(-180 388 178.798)" fill="#C7CBD8" fill-opacity="0.7"/>
<rect x="360" y="174.806" width="0.998165" height="9" transform="rotate(-90 360 174.806)" fill="#C7CBD8" fill-opacity="0.7"/>
<rect x="365" y="178.798" width="1" height="8.98348" transform="rotate(-180 365 178.798)" fill="#C7CBD8" fill-opacity="0.7"/>
<rect x="429" y="174.806" width="0.998165" height="9" transform="rotate(-90 429 174.806)" fill="#C7CBD8" fill-opacity="0.7"/>
<rect x="434" y="178.798" width="1" height="8.98348" transform="rotate(-180 434 178.798)" fill="#C7CBD8" fill-opacity="0.7"/>
<rect x="406" y="174.806" width="0.998165" height="9" transform="rotate(-90 406 174.806)" fill="#C7CBD8" fill-opacity="0.7"/>
<rect x="411" y="178.798" width="1" height="8.98348" transform="rotate(-180 411 178.798)" fill="#C7CBD8" fill-opacity="0.7"/>
<rect x="452" y="174.806" width="0.998165" height="9" transform="rotate(-90 452 174.806)" fill="#C7CBD8" fill-opacity="0.7"/>
<rect x="457" y="178.798" width="1" height="8.98348" transform="rotate(-180 457 178.798)" fill="#C7CBD8" fill-opacity="0.7"/>
<rect x="498" y="174.806" width="0.998165" height="9" transform="rotate(-90 498 174.806)" fill="#C7CBD8" fill-opacity="0.7"/>
<rect x="503" y="178.798" width="1" height="8.98348" transform="rotate(-180 503 178.798)" fill="#C7CBD8" fill-opacity="0.7"/>
<path fill-rule="evenodd" clip-rule="evenodd" d="M479.9 167.819L476 174.307L479.9 176.902L483.8 174.307L479.9 167.819ZM479.901 180.795L476.001 174.955L479.901 177.551L483.801 174.955L479.901 180.795Z" fill="#C7CBD8" fill-opacity="0.7"/>
<rect x="383" y="247.672" width="0.998165" height="9" transform="rotate(-90 383 247.672)" fill="#C7CBD8" fill-opacity="0.7"/>
<rect x="388" y="251.664" width="1" height="8.98348" transform="rotate(-180 388 251.664)" fill="#C7CBD8" fill-opacity="0.7"/>
<rect x="429" y="247.672" width="0.998165" height="9" transform="rotate(-90 429 247.672)" fill="#C7CBD8" fill-opacity="0.7"/>
<rect x="434" y="251.664" width="1" height="8.98348" transform="rotate(-180 434 251.664)" fill="#C7CBD8" fill-opacity="0.7"/>
<rect x="475" y="247.672" width="0.998165" height="9" transform="rotate(-90 475 247.672)" fill="#C7CBD8" fill-opacity="0.7"/>
<rect x="480" y="251.664" width="1" height="8.98348" transform="rotate(-180 480 251.664)" fill="#C7CBD8" fill-opacity="0.7"/>
<rect x="406" y="247.672" width="0.998165" height="9" transform="rotate(-90 406 247.672)" fill="#C7CBD8" fill-opacity="0.7"/>
<rect x="411" y="251.664" width="1" height="8.98348" transform="rotate(-180 411 251.664)" fill="#C7CBD8" fill-opacity="0.7"/>
<rect x="452" y="247.672" width="0.998165" height="9" transform="rotate(-90 452 247.672)" fill="#C7CBD8" fill-opacity="0.7"/>
<rect x="457" y="251.664" width="1" height="8.98348" transform="rotate(-180 457 251.664)" fill="#C7CBD8" fill-opacity="0.7"/>
<rect x="498" y="247.672" width="0.998165" height="9" transform="rotate(-90 498 247.672)" fill="#C7CBD8" fill-opacity="0.7"/>
<rect x="503" y="251.664" width="1" height="8.98348" transform="rotate(-180 503 251.664)" fill="#C7CBD8" fill-opacity="0.7"/>
<path fill-rule="evenodd" clip-rule="evenodd" d="M364.21 249.227L366.427 251.415H368.42L364.922 247.963C364.529 247.575 363.891 247.575 363.498 247.963L360 251.415H361.993L364.21 249.227ZM364.21 245.617L366.427 243.429H368.42L364.922 246.881C364.529 247.269 363.891 247.269 363.498 246.881L360 243.429H361.993L364.21 245.617Z" fill="#C7CBD8" fill-opacity="0.7"/>
<rect width="0.998165" height="9" transform="matrix(0 -1 -1 0 484 222.718)" fill="#C7CBD8" fill-opacity="0.7"/>
<rect width="1" height="8.98348" transform="matrix(1 0 0 -1 479 226.71)" fill="#C7CBD8" fill-opacity="0.7"/>
<rect width="0.998165" height="9" transform="matrix(0 -1 -1 0 507 222.718)" fill="#C7CBD8" fill-opacity="0.7"/>
<rect width="1" height="8.98348" transform="matrix(1 0 0 -1 502 226.71)" fill="#C7CBD8" fill-opacity="0.7"/>
<rect width="0.998165" height="9" transform="matrix(0 -1 -1 0 438 222.718)" fill="#C7CBD8" fill-opacity="0.7"/>
<rect width="1" height="8.98348" transform="matrix(1 0 0 -1 433 226.71)" fill="#C7CBD8" fill-opacity="0.7"/>
<rect width="0.998165" height="9" transform="matrix(0 -1 -1 0 392 222.718)" fill="#C7CBD8" fill-opacity="0.7"/>
<rect width="1" height="8.98348" transform="matrix(1 0 0 -1 387 226.71)" fill="#C7CBD8" fill-opacity="0.7"/>
<rect width="0.998165" height="9" transform="matrix(0 -1 -1 0 461 222.718)" fill="#C7CBD8" fill-opacity="0.7"/>
<rect width="1" height="8.98348" transform="matrix(1 0 0 -1 456 226.71)" fill="#C7CBD8" fill-opacity="0.7"/>
<rect width="0.998165" height="9" transform="matrix(0 -1 -1 0 415 222.718)" fill="#C7CBD8" fill-opacity="0.7"/>
<rect width="1" height="8.98348" transform="matrix(1 0 0 -1 410 226.71)" fill="#C7CBD8" fill-opacity="0.7"/>
<rect width="0.998165" height="9" transform="matrix(0 -1 -1 0 369 222.718)" fill="#C7CBD8" fill-opacity="0.7"/>
<rect width="1" height="8.98348" transform="matrix(1 0 0 -1 364 226.71)" fill="#C7CBD8" fill-opacity="0.7"/>
<rect x="383" y="274.622" width="0.998165" height="9" transform="rotate(-90 383 274.622)" fill="#C7CBD8" fill-opacity="0.7"/>
<rect x="388" y="278.615" width="1" height="8.98348" transform="rotate(-180 388 278.615)" fill="#C7CBD8" fill-opacity="0.7"/>
<rect x="360" y="274.622" width="0.998165" height="9" transform="rotate(-90 360 274.622)" fill="#C7CBD8" fill-opacity="0.7"/>
<rect x="365" y="278.615" width="1" height="8.98348" transform="rotate(-180 365 278.615)" fill="#C7CBD8" fill-opacity="0.7"/>
<rect x="429" y="274.622" width="0.998165" height="9" transform="rotate(-90 429 274.622)" fill="#C7CBD8" fill-opacity="0.7"/>
<rect x="434" y="278.615" width="1" height="8.98348" transform="rotate(-180 434 278.615)" fill="#C7CBD8" fill-opacity="0.7"/>
<rect x="475" y="274.622" width="0.998165" height="9" transform="rotate(-90 475 274.622)" fill="#C7CBD8" fill-opacity="0.7"/>
<rect x="480" y="278.615" width="1" height="8.98348" transform="rotate(-180 480 278.615)" fill="#C7CBD8" fill-opacity="0.7"/>
<rect x="452" y="274.622" width="0.998165" height="9" transform="rotate(-90 452 274.622)" fill="#C7CBD8" fill-opacity="0.7"/>
<rect x="457" y="278.615" width="1" height="8.98348" transform="rotate(-180 457 278.615)" fill="#C7CBD8" fill-opacity="0.7"/>
<rect x="498" y="274.622" width="0.998165" height="9" transform="rotate(-90 498 274.622)" fill="#C7CBD8" fill-opacity="0.7"/>
<rect x="503" y="278.615" width="1" height="8.98348" transform="rotate(-180 503 278.615)" fill="#C7CBD8" fill-opacity="0.7"/>
<path fill-rule="evenodd" clip-rule="evenodd" d="M408.886 273.901L410.171 269.798H412.338L411.198 273.439L412.683 273.143L412.88 274.123L410.857 274.527L410.205 276.61H413.963L413.511 278.449L409.629 278.449L408.546 278.449L407.463 278.449L408.546 274.988L407.463 275.205L407.266 274.224L408.886 273.901Z" fill="#C7CBD8" fill-opacity="0.7"/>
<rect x="383" y="301.573" width="0.998165" height="9" transform="rotate(-90 383 301.573)" fill="#C7CBD8" fill-opacity="0.7"/>
<rect x="388" y="305.565" width="1" height="8.98348" transform="rotate(-180 388 305.565)" fill="#C7CBD8" fill-opacity="0.7"/>
<rect x="360" y="301.573" width="0.998165" height="9" transform="rotate(-90 360 301.573)" fill="#C7CBD8" fill-opacity="0.7"/>
<rect x="365" y="305.565" width="1" height="8.98348" transform="rotate(-180 365 305.565)" fill="#C7CBD8" fill-opacity="0.7"/>
<rect x="429" y="301.573" width="0.998165" height="9" transform="rotate(-90 429 301.573)" fill="#C7CBD8" fill-opacity="0.7"/>
<rect x="434" y="305.565" width="1" height="8.98348" transform="rotate(-180 434 305.565)" fill="#C7CBD8" fill-opacity="0.7"/>
<rect x="406" y="301.573" width="0.998165" height="9" transform="rotate(-90 406 301.573)" fill="#C7CBD8" fill-opacity="0.7"/>
<rect x="411" y="305.565" width="1" height="8.98348" transform="rotate(-180 411 305.565)" fill="#C7CBD8" fill-opacity="0.7"/>
<rect x="452" y="301.573" width="0.998165" height="9" transform="rotate(-90 452 301.573)" fill="#C7CBD8" fill-opacity="0.7"/>
<rect x="457" y="305.565" width="1" height="8.98348" transform="rotate(-180 457 305.565)" fill="#C7CBD8" fill-opacity="0.7"/>
<rect x="498" y="301.573" width="0.998165" height="9" transform="rotate(-90 498 301.573)" fill="#C7CBD8" fill-opacity="0.7"/>
<rect x="503" y="305.565" width="1" height="8.98348" transform="rotate(-180 503 305.565)" fill="#C7CBD8" fill-opacity="0.7"/>
<path fill-rule="evenodd" clip-rule="evenodd" d="M479.9 294.585L476 301.074L479.9 303.669L483.8 301.074L479.9 294.585ZM479.901 307.562L476.001 301.722L479.901 304.318L483.801 301.722L479.901 307.562Z" fill="#C7CBD8" fill-opacity="0.7"/>
<rect x="383" y="198.762" width="0.998165" height="9" transform="rotate(-90 383 198.762)" fill="#C7CBD8" fill-opacity="0.7"/>
<rect x="388" y="202.754" width="1" height="8.98348" transform="rotate(-180 388 202.754)" fill="#C7CBD8" fill-opacity="0.7"/>
<rect x="360" y="198.762" width="0.998165" height="9" transform="rotate(-90 360 198.762)" fill="#C7CBD8" fill-opacity="0.7"/>
<rect x="365" y="202.754" width="1" height="8.98348" transform="rotate(-180 365 202.754)" fill="#C7CBD8" fill-opacity="0.7"/>
<rect x="406" y="198.762" width="0.998165" height="9" transform="rotate(-90 406 198.762)" fill="#C7CBD8" fill-opacity="0.7"/>
<rect x="411" y="202.754" width="1" height="8.98348" transform="rotate(-180 411 202.754)" fill="#C7CBD8" fill-opacity="0.7"/>
<rect x="452" y="198.762" width="0.998165" height="9" transform="rotate(-90 452 198.762)" fill="#C7CBD8" fill-opacity="0.7"/>
<rect x="457" y="202.754" width="1" height="8.98348" transform="rotate(-180 457 202.754)" fill="#C7CBD8" fill-opacity="0.7"/>
<rect x="475" y="198.762" width="0.998165" height="9" transform="rotate(-90 475 198.762)" fill="#C7CBD8" fill-opacity="0.7"/>
<rect x="480" y="202.754" width="1" height="8.98348" transform="rotate(-180 480 202.754)" fill="#C7CBD8" fill-opacity="0.7"/>
<rect x="498" y="198.762" width="0.998165" height="9" transform="rotate(-90 498 198.762)" fill="#C7CBD8" fill-opacity="0.7"/>
<rect x="503" y="202.754" width="1" height="8.98348" transform="rotate(-180 503 202.754)" fill="#C7CBD8" fill-opacity="0.7"/>
<path fill-rule="evenodd" clip-rule="evenodd" d="M437 199.842C437 201.218 435.885 202.334 434.509 202.334H432.3V203.553H430.5V202.334H429V200.696H430.5V195.509H429V193.871H430.5V192.773H432.3V193.871H434.509C435.885 193.871 437 194.986 437 196.362C437 197.039 436.73 197.653 436.291 198.102C436.73 198.551 437 199.165 437 199.842ZM432.3 195.372H434.438C434.984 195.372 435.427 195.815 435.427 196.362C435.427 196.902 434.994 197.342 434.456 197.351H432.3V195.372ZM432.3 198.853H434.438C434.984 198.853 435.427 199.296 435.427 199.843C435.427 200.389 434.984 200.832 434.438 200.832H432.3V198.853Z" fill="#C7CBD8" fill-opacity="0.7"/>
<rect x="383" y="372.442" width="0.998165" height="9" transform="rotate(-90 383 372.442)" fill="#C7CBD8" fill-opacity="0.7"/>
<rect x="388" y="376.435" width="1" height="8.98348" transform="rotate(-180 388 376.435)" fill="#C7CBD8" fill-opacity="0.7"/>
<rect x="429" y="372.442" width="0.998165" height="9" transform="rotate(-90 429 372.442)" fill="#C7CBD8" fill-opacity="0.7"/>
<rect x="434" y="376.435" width="1" height="8.98348" transform="rotate(-180 434 376.435)" fill="#C7CBD8" fill-opacity="0.7"/>
<rect x="475" y="372.442" width="0.998165" height="9" transform="rotate(-90 475 372.442)" fill="#C7CBD8" fill-opacity="0.7"/>
<rect x="480" y="376.435" width="1" height="8.98348" transform="rotate(-180 480 376.435)" fill="#C7CBD8" fill-opacity="0.7"/>
<rect x="406" y="372.442" width="0.998165" height="9" transform="rotate(-90 406 372.442)" fill="#C7CBD8" fill-opacity="0.7"/>
<rect x="411" y="376.435" width="1" height="8.98348" transform="rotate(-180 411 376.435)" fill="#C7CBD8" fill-opacity="0.7"/>
<rect x="452" y="372.442" width="0.998165" height="9" transform="rotate(-90 452 372.442)" fill="#C7CBD8" fill-opacity="0.7"/>
<rect x="457" y="376.435" width="1" height="8.98348" transform="rotate(-180 457 376.435)" fill="#C7CBD8" fill-opacity="0.7"/>
<rect x="498" y="372.442" width="0.998165" height="9" transform="rotate(-90 498 372.442)" fill="#C7CBD8" fill-opacity="0.7"/>
<rect x="503" y="376.435" width="1" height="8.98348" transform="rotate(-180 503 376.435)" fill="#C7CBD8" fill-opacity="0.7"/>
<path fill-rule="evenodd" clip-rule="evenodd" d="M364.21 373.997L366.427 376.185H368.42L364.922 372.733C364.529 372.345 363.891 372.345 363.498 372.733L360 376.185H361.993L364.21 373.997ZM364.21 370.388L366.427 368.2H368.42L364.922 371.652C364.529 372.04 363.891 372.04 363.498 371.652L360 368.2H361.993L364.21 370.388Z" fill="#C7CBD8" fill-opacity="0.7"/>
<rect width="0.998165" height="9" transform="matrix(0 -1 -1 0 484 347.488)" fill="#C7CBD8" fill-opacity="0.7"/>
<rect width="1" height="8.98348" transform="matrix(1 0 0 -1 479 351.481)" fill="#C7CBD8" fill-opacity="0.7"/>
<rect width="0.998165" height="9" transform="matrix(0 -1 -1 0 507 347.488)" fill="#C7CBD8" fill-opacity="0.7"/>
<rect width="1" height="8.98348" transform="matrix(1 0 0 -1 502 351.481)" fill="#C7CBD8" fill-opacity="0.7"/>
<rect width="0.998165" height="9" transform="matrix(0 -1 -1 0 438 347.488)" fill="#C7CBD8" fill-opacity="0.7"/>
<rect width="1" height="8.98348" transform="matrix(1 0 0 -1 433 351.481)" fill="#C7CBD8" fill-opacity="0.7"/>
<rect width="0.998165" height="9" transform="matrix(0 -1 -1 0 392 347.488)" fill="#C7CBD8" fill-opacity="0.7"/>
<rect width="1" height="8.98348" transform="matrix(1 0 0 -1 387 351.481)" fill="#C7CBD8" fill-opacity="0.7"/>
<rect width="0.998165" height="9" transform="matrix(0 -1 -1 0 461 347.488)" fill="#C7CBD8" fill-opacity="0.7"/>
<rect width="1" height="8.98348" transform="matrix(1 0 0 -1 456 351.481)" fill="#C7CBD8" fill-opacity="0.7"/>
<rect width="0.998165" height="9" transform="matrix(0 -1 -1 0 415 347.488)" fill="#C7CBD8" fill-opacity="0.7"/>
<rect width="1" height="8.98348" transform="matrix(1 0 0 -1 410 351.481)" fill="#C7CBD8" fill-opacity="0.7"/>
<rect width="0.998165" height="9" transform="matrix(0 -1 -1 0 369 347.488)" fill="#C7CBD8" fill-opacity="0.7"/>
<rect width="1" height="8.98348" transform="matrix(1 0 0 -1 364 351.481)" fill="#C7CBD8" fill-opacity="0.7"/>
<rect x="383" y="399.393" width="0.998165" height="9" transform="rotate(-90 383 399.393)" fill="#C7CBD8" fill-opacity="0.7"/>
<rect x="388" y="403.385" width="1" height="8.98348" transform="rotate(-180 388 403.385)" fill="#C7CBD8" fill-opacity="0.7"/>
<rect x="360" y="399.393" width="0.998165" height="9" transform="rotate(-90 360 399.393)" fill="#C7CBD8" fill-opacity="0.7"/>
<rect x="365" y="403.385" width="1" height="8.98348" transform="rotate(-180 365 403.385)" fill="#C7CBD8" fill-opacity="0.7"/>
<rect x="429" y="399.393" width="0.998165" height="9" transform="rotate(-90 429 399.393)" fill="#C7CBD8" fill-opacity="0.7"/>
<rect x="434" y="403.385" width="1" height="8.98348" transform="rotate(-180 434 403.385)" fill="#C7CBD8" fill-opacity="0.7"/>
<rect x="475" y="399.393" width="0.998165" height="9" transform="rotate(-90 475 399.393)" fill="#C7CBD8" fill-opacity="0.7"/>
<rect x="480" y="403.385" width="1" height="8.98348" transform="rotate(-180 480 403.385)" fill="#C7CBD8" fill-opacity="0.7"/>
<rect x="452" y="399.393" width="0.998165" height="9" transform="rotate(-90 452 399.393)" fill="#C7CBD8" fill-opacity="0.7"/>
<rect x="457" y="403.385" width="1" height="8.98348" transform="rotate(-180 457 403.385)" fill="#C7CBD8" fill-opacity="0.7"/>
<rect x="498" y="399.393" width="0.998165" height="9" transform="rotate(-90 498 399.393)" fill="#C7CBD8" fill-opacity="0.7"/>
<rect x="503" y="403.385" width="1" height="8.98348" transform="rotate(-180 503 403.385)" fill="#C7CBD8" fill-opacity="0.7"/>
<path fill-rule="evenodd" clip-rule="evenodd" d="M408.886 398.671L410.171 394.568H412.338L411.198 398.21L412.683 397.913L412.88 398.894L410.857 399.297L410.205 401.381H413.963L413.511 403.219L409.629 403.219L408.546 403.219L407.463 403.219L408.546 399.759L407.463 399.975L407.266 398.995L408.886 398.671Z" fill="#C7CBD8" fill-opacity="0.7"/>
<rect x="383" y="426.343" width="0.998165" height="9" transform="rotate(-90 383 426.343)" fill="#C7CBD8" fill-opacity="0.7"/>
<rect x="388" y="430.336" width="1" height="8.98348" transform="rotate(-180 388 430.336)" fill="#C7CBD8" fill-opacity="0.7"/>
<rect x="360" y="426.343" width="0.998165" height="9" transform="rotate(-90 360 426.343)" fill="#C7CBD8" fill-opacity="0.7"/>
<rect x="365" y="430.336" width="1" height="8.98348" transform="rotate(-180 365 430.336)" fill="#C7CBD8" fill-opacity="0.7"/>
<rect x="429" y="426.343" width="0.998165" height="9" transform="rotate(-90 429 426.343)" fill="#C7CBD8" fill-opacity="0.7"/>
<rect x="434" y="430.336" width="1" height="8.98348" transform="rotate(-180 434 430.336)" fill="#C7CBD8" fill-opacity="0.7"/>
<rect x="406" y="426.343" width="0.998165" height="9" transform="rotate(-90 406 426.343)" fill="#C7CBD8" fill-opacity="0.7"/>
<rect x="411" y="430.336" width="1" height="8.98348" transform="rotate(-180 411 430.336)" fill="#C7CBD8" fill-opacity="0.7"/>
<rect x="452" y="426.343" width="0.998165" height="9" transform="rotate(-90 452 426.343)" fill="#C7CBD8" fill-opacity="0.7"/>
<rect x="457" y="430.336" width="1" height="8.98348" transform="rotate(-180 457 430.336)" fill="#C7CBD8" fill-opacity="0.7"/>
<rect x="498" y="426.343" width="0.998165" height="9" transform="rotate(-90 498 426.343)" fill="#C7CBD8" fill-opacity="0.7"/>
<rect x="503" y="430.336" width="1" height="8.98348" transform="rotate(-180 503 430.336)" fill="#C7CBD8" fill-opacity="0.7"/>
<path fill-rule="evenodd" clip-rule="evenodd" d="M479.9 419.356L476 425.844L479.9 428.439L483.8 425.844L479.9 419.356ZM479.901 432.332L476.001 426.493L479.901 429.088L483.801 426.493L479.901 432.332Z" fill="#C7CBD8" fill-opacity="0.7"/>
<rect x="383" y="323.532" width="0.998165" height="9" transform="rotate(-90 383 323.532)" fill="#C7CBD8" fill-opacity="0.7"/>
<rect x="388" y="327.525" width="1" height="8.98348" transform="rotate(-180 388 327.525)" fill="#C7CBD8" fill-opacity="0.7"/>
<rect x="360" y="323.532" width="0.998165" height="9" transform="rotate(-90 360 323.532)" fill="#C7CBD8" fill-opacity="0.7"/>
<rect x="365" y="327.525" width="1" height="8.98348" transform="rotate(-180 365 327.525)" fill="#C7CBD8" fill-opacity="0.7"/>
<rect x="406" y="323.532" width="0.998165" height="9" transform="rotate(-90 406 323.532)" fill="#C7CBD8" fill-opacity="0.7"/>
<rect x="411" y="327.525" width="1" height="8.98348" transform="rotate(-180 411 327.525)" fill="#C7CBD8" fill-opacity="0.7"/>
<rect x="452" y="323.532" width="0.998165" height="9" transform="rotate(-90 452 323.532)" fill="#C7CBD8" fill-opacity="0.7"/>
<rect x="457" y="327.525" width="1" height="8.98348" transform="rotate(-180 457 327.525)" fill="#C7CBD8" fill-opacity="0.7"/>
<rect x="475" y="323.532" width="0.998165" height="9" transform="rotate(-90 475 323.532)" fill="#C7CBD8" fill-opacity="0.7"/>
<rect x="480" y="327.525" width="1" height="8.98348" transform="rotate(-180 480 327.525)" fill="#C7CBD8" fill-opacity="0.7"/>
<rect x="498" y="323.532" width="0.998165" height="9" transform="rotate(-90 498 323.532)" fill="#C7CBD8" fill-opacity="0.7"/>
<rect x="503" y="327.525" width="1" height="8.98348" transform="rotate(-180 503 327.525)" fill="#C7CBD8" fill-opacity="0.7"/>
<path fill-rule="evenodd" clip-rule="evenodd" d="M437 324.613C437 325.989 435.885 327.104 434.509 327.104H432.3V328.323H430.5V327.104H429V325.466H430.5V320.279H429V318.641H430.5V317.543H432.3V318.641H434.509C435.885 318.641 437 319.757 437 321.132C437 321.81 436.73 322.424 436.291 322.873C436.73 323.322 437 323.936 437 324.613ZM432.3 320.143H434.438C434.984 320.143 435.427 320.586 435.427 321.132C435.427 321.674 434.993 322.114 434.453 322.122H432.3V320.143ZM432.3 323.624H434.438C434.984 323.624 435.427 324.067 435.427 324.613C435.427 325.16 434.984 325.603 434.438 325.603H432.3V323.624Z" fill="#C7CBD8" fill-opacity="0.7"/>
<g filter="url(#filter0_d)">
<ellipse cx="155" cy="453.626" rx="129" ry="3.70684" fill="#C4C4C4" fill-opacity="0.01"/>
</g>
<g filter="url(#filter1_d)">
<path d="M76.7132 455.214H233.287C237.926 455.214 242.35 454.293 246.386 452.624C246.386 452.624 192.084 425.294 155.265 425.559C118.446 425.824 63.6138 452.624 63.6138 452.624C67.6497 454.293 72.0739 455.214 76.7132 455.214Z" fill="#C4C4C4" fill-opacity="0.01"/>
</g>
<g filter="url(#filter2_d)">
<path d="M42.4233 34.6079C42.4233 15.678 57.7756 0.332275 76.7136 0.332275L233.287 0.332275C252.225 0.332275 267.577 15.678 267.577 34.6079V420.938C267.577 439.868 252.225 455.214 233.287 455.214H76.7136C57.7756 455.214 42.4233 439.868 42.4233 420.938L42.4233 34.6079Z" fill="#F9FAFA"/>
</g>
<g filter="url(#filter3_i)">
<path d="M42.4233 34.6079C42.4233 15.678 57.7756 0.332275 76.7136 0.332275L233.287 0.332275C252.225 0.332275 267.577 15.678 267.577 34.6079V420.938C267.577 439.868 252.225 455.214 233.287 455.214H76.7136C57.7756 455.214 42.4233 439.868 42.4233 420.938L42.4233 34.6079Z" fill="#F9FAFA"/>
</g>
<path d="M55.19 227.804C55.1884 227.787 55.1875 227.77 55.1875 227.753C55.1875 168.42 55.1884 109.087 55.19 49.7544C55.19 48.2185 55.1844 46.6808 55.1788 45.1419C55.1631 40.8554 55.1473 36.56 55.2532 32.2708L55.2532 32.2708C55.4846 22.9267 62.5139 14.6579 71.6537 12.7162C73.2893 12.3654 74.9575 12.1877 76.6305 12.186L76.6311 12.186C83.1406 12.1873 89.6493 12.1856 96.1572 12.181C96.1574 12.181 96.1575 12.181 96.1577 12.181L96.158 12.681C97.1233 12.6785 97.9966 12.8431 98.667 13.5987L55.19 227.804ZM55.19 227.804V291.107C55.1879 334.472 55.1888 377.841 55.1926 421.214C55.1926 422.636 55.2158 424.094 55.4695 425.561L55.4696 425.562C57.2024 435.538 65.516 442.776 75.65 443.099M55.19 227.804C55.2154 228.056 55.4284 228.253 55.6875 228.253H55.69V291.107C55.6879 334.472 55.6888 377.841 55.6926 421.214C55.6926 422.635 55.7165 424.055 55.9622 425.476C57.6546 435.219 65.7699 442.285 75.667 442.599M75.667 442.599L75.65 443.099M75.667 442.599L75.6511 443.099C75.6507 443.099 75.6503 443.099 75.65 443.099M75.667 442.599C77.1029 442.648 78.5411 442.643 79.9786 442.639C80.3892 442.638 80.7998 442.637 81.2103 442.637H232.768C234.153 442.637 235.54 442.637 236.911 442.385M75.65 443.099C77.096 443.148 78.5466 443.143 79.9856 443.139C80.3949 443.138 80.8032 443.137 81.2103 443.137H232.768H232.79C234.16 443.137 235.585 443.137 237 442.877M237 442.877L236.911 442.385M237 442.877C237.001 442.877 237.001 442.877 237.002 442.877L236.911 442.385M237 442.877L254.32 74.7525C254.32 190.065 254.324 305.38 254.333 420.699C254.333 423.603 254.184 426.469 253.085 429.21C250.128 436.577 244.736 440.969 236.911 442.385M100.2 19.5854C99.9135 18.293 99.8868 16.9595 99.859 15.5725L99.8587 15.5581C99.8587 15.5579 99.8587 15.5577 99.8587 15.5575L100.2 19.5854Z" stroke="#E1E1E1" stroke-linejoin="round"/>
<path opacity="0.4" fill-rule="evenodd" clip-rule="evenodd" d="M139.294 18.4257C139.293 17.4157 140.125 16.5968 141.151 16.5966L160.228 16.5935C161.254 16.5934 162.087 17.412 162.087 18.422C162.088 19.432 161.256 20.2509 160.229 20.2511L141.153 20.2542C140.126 20.2543 139.294 19.4357 139.294 18.4257Z" fill="#C8C8C8"/>
<path opacity="0.546196" fill-rule="evenodd" clip-rule="evenodd" d="M167.388 18.4207C167.388 17.4124 168.218 16.5918 169.243 16.5916C170.268 16.5914 171.099 17.4118 171.099 18.4201C171.099 19.4283 170.269 20.249 169.244 20.2492C168.22 20.2493 167.389 19.4289 167.388 18.4207Z" fill="#C8C8C8"/>
<mask id="mask0" mask-type="alpha" maskUnits="userSpaceOnUse" x="55" y="12" width="200" height="431">
<path fill-rule="evenodd" clip-rule="evenodd" d="M254.346 31.2293L254.346 422.895C254.265 423.509 254.18 424.123 254.103 424.738C254.041 425.233 254.047 425.744 253.925 426.223C251.878 434.258 246.974 439.55 238.877 441.723C237.593 442.067 236.266 442.247 234.958 442.503H75.8247C75.4168 442.43 75.0112 442.338 74.6007 442.285C66.0371 441.18 60.1631 436.645 57.1179 428.556C56.0411 425.695 55.8568 422.692 55.8569 419.658C55.8669 296.708 55.8656 173.758 55.8637 50.8076C55.8637 48.42 55.8448 46.0323 55.8195 43.6446C55.8155 43.2767 55.7294 42.9095 55.6812 42.5419V38.2682C55.7367 37.6913 55.8083 37.1154 55.8451 36.5373C55.9935 34.1994 55.9162 31.824 56.3109 29.5292C57.92 20.1714 65.64 13.121 75.124 12.6954C82.3248 12.3723 89.5501 12.5654 96.7642 12.5856C98.5357 12.5907 99.4537 13.6782 99.5448 15.4894C99.6058 16.7008 99.6183 17.9277 99.8309 19.1157C100.814 24.6099 105.403 28.4106 111.017 28.4182C121.714 28.4321 132.411 28.4329 143.108 28.4339C161.691 28.4354 180.275 28.434 198.858 28.4281C199.485 28.428 200.121 28.4209 200.738 28.3244C206.602 27.4058 210.481 22.8951 210.577 16.9368C210.588 16.1865 210.665 15.4339 210.765 14.6895C210.865 13.9445 211.245 13.2858 211.932 13.0027C212.57 12.7396 213.3 12.585 213.99 12.5815C219.989 12.5502 225.987 12.5535 231.986 12.5693C234.166 12.5751 236.339 12.648 238.489 13.1131C246.818 14.9153 253.263 22.0654 254.149 30.5228C254.174 30.7625 254.279 30.994 254.346 31.2293Z" fill="white"/>
</mask>
<g mask="url(#mask0)">
<rect x="55.6675" y="12.3885" width="198.665" height="429.993" fill="#F5F5F5"/>
<rect x="56.1968" y="12.5114" width="198.136" height="433.17" fill="#EBEBEB"/>
<rect x="56.1968" y="12.5114" width="198.136" height="433.17" fill="#515DF6"/>
</g>
<rect x="116" y="165.055" width="1" height="9" transform="rotate(-90 116 165.055)" fill="white"/>
<rect x="121" y="169.055" width="1" height="9" transform="rotate(-180 121 169.055)" fill="white"/>
<rect x="139" y="165.055" width="1" height="9" transform="rotate(-90 139 165.055)" fill="white"/>
<rect x="144" y="169.055" width="1" height="9" transform="rotate(-180 144 169.055)" fill="white"/>
<path fill-rule="evenodd" clip-rule="evenodd" d="M97.2099 166.611L99.4287 168.805H101.42L97.9211 165.346C97.5283 164.957 96.8916 164.957 96.4988 165.346L93 168.805H94.9911L97.2099 166.611ZM97.2099 162.998L99.4287 160.804H101.42L97.9211 164.264C97.5283 164.652 96.8916 164.652 96.4988 164.264L93 160.804H94.9911L97.2099 162.998Z" fill="white"/>
<rect width="1" height="9" transform="matrix(0 -1 -1 0 125 140.055)" fill="white"/>
<rect width="1" height="9" transform="matrix(1 0 0 -1 120 144.055)" fill="white"/>
<rect width="1" height="9" transform="matrix(0 -1 -1 0 148 140.055)" fill="white"/>
<rect width="1" height="9" transform="matrix(1 0 0 -1 143 144.055)" fill="white"/>
<rect width="1" height="9" transform="matrix(0 -1 -1 0 102 140.055)" fill="white"/>
<rect width="1" height="9" transform="matrix(1 0 0 -1 97 144.055)" fill="white"/>
<rect x="139" y="192.055" width="1" height="9" transform="rotate(-90 139 192.055)" fill="white"/>
<rect x="144" y="196.055" width="1" height="9" transform="rotate(-180 144 196.055)" fill="white"/>
<rect x="93" y="192.055" width="1" height="9" transform="rotate(-90 93 192.055)" fill="white"/>
<rect x="98" y="196.055" width="1" height="9" transform="rotate(-180 98 196.055)" fill="white"/>
<rect x="162" y="192.055" width="1" height="9" transform="rotate(-90 162 192.055)" fill="white"/>
<rect x="167" y="196.055" width="1" height="9" transform="rotate(-180 167 196.055)" fill="white"/>
<path fill-rule="evenodd" clip-rule="evenodd" d="M118.886 191.334L120.171 187.221H122.338L121.197 190.871L122.683 190.574L122.879 191.555L120.857 191.959L120.205 194.046H123.963L123.511 195.888H119.629L119.629 195.888H117.463L118.546 192.421L117.463 192.638L117.267 191.658L118.886 191.334Z" fill="white"/>
<path d="M172.44 346.02H179.64V343.5H172.44V346.02ZM185.758 352.332H189.094V335.052H185.758L182.518 336.996V340.596L185.758 338.604V352.332ZM200.065 352.692C201.345 352.692 202.465 352.424 203.425 351.888C204.385 351.352 205.133 350.604 205.669 349.644C206.205 348.684 206.473 347.564 206.473 346.284V341.1C206.473 339.82 206.205 338.7 205.669 337.74C205.133 336.78 204.385 336.032 203.425 335.496C202.465 334.96 201.345 334.692 200.065 334.692C198.785 334.692 197.665 334.96 196.705 335.496C195.745 336.032 194.997 336.78 194.461 337.74C193.925 338.7 193.657 339.82 193.657 341.1V346.284C193.657 347.564 193.925 348.684 194.461 349.644C194.997 350.604 195.745 351.352 196.705 351.888C197.665 352.424 198.785 352.692 200.065 352.692ZM200.065 349.596C199.489 349.596 198.969 349.46 198.505 349.188C198.041 348.916 197.673 348.548 197.401 348.084C197.129 347.62 196.993 347.1 196.993 346.524V340.836C196.993 340.26 197.129 339.74 197.401 339.276C197.673 338.812 198.041 338.444 198.505 338.172C198.969 337.9 199.489 337.764 200.065 337.764C200.641 337.764 201.161 337.9 201.625 338.172C202.089 338.444 202.457 338.812 202.729 339.276C203.001 339.74 203.137 340.26 203.137 340.836V346.524C203.137 347.1 203.001 347.62 202.729 348.084C202.457 348.548 202.089 348.916 201.625 349.188C201.161 349.46 200.641 349.596 200.065 349.596Z" fill="#E6559A"/>
<rect width="3.45164" height="30.4895" rx="1.72582" transform="matrix(0.707107 0.707107 0.707107 -0.707107 213 352.892)" fill="#E6559A"/>
<path fill-rule="evenodd" clip-rule="evenodd" d="M218.466 341.975C221.325 341.975 223.643 339.657 223.643 336.797C223.643 333.938 221.325 331.62 218.466 331.62C215.606 331.62 213.288 333.938 213.288 336.797C213.288 339.657 215.606 341.975 218.466 341.975ZM218.465 339.098C219.736 339.098 220.766 338.068 220.766 336.797C220.766 335.526 219.736 334.496 218.465 334.496C217.194 334.496 216.164 335.526 216.164 336.797C216.164 338.068 217.194 339.098 218.465 339.098Z" fill="#E6559A"/>
<path fill-rule="evenodd" clip-rule="evenodd" d="M231.697 355.206C234.556 355.206 236.874 352.888 236.874 350.029C236.874 347.169 234.556 344.851 231.697 344.851C228.837 344.851 226.519 347.169 226.519 350.029C226.519 352.888 228.837 355.206 231.697 355.206ZM231.696 352.329C232.967 352.329 233.997 351.299 233.997 350.028C233.997 348.757 232.967 347.727 231.696 347.727C230.425 347.727 229.395 348.757 229.395 350.028C229.395 351.299 230.425 352.329 231.696 352.329Z" fill="#E6559A"/>
<path d="M78.592 100.092H81.112V95.9403H85.24V93.4203H81.112V89.2923H78.592V93.4203H74.44V95.9403H78.592V100.092ZM91.3675 103.332H94.7035V86.0523H91.3675L88.1275 87.9963V91.5963L91.3675 89.6043V103.332ZM105.674 103.692C106.954 103.692 108.074 103.424 109.034 102.888C109.994 102.352 110.742 101.604 111.278 100.644C111.814 99.6843 112.082 98.5643 112.082 97.2843V92.1003C112.082 90.8203 111.814 89.7003 111.278 88.7403C110.742 87.7803 109.994 87.0323 109.034 86.4963C108.074 85.9603 106.954 85.6923 105.674 85.6923C104.394 85.6923 103.274 85.9603 102.314 86.4963C101.354 87.0323 100.606 87.7803 100.07 88.7403C99.5339 89.7003 99.2659 90.8203 99.2659 92.1003V97.2843C99.2659 98.5643 99.5339 99.6843 100.07 100.644C100.606 101.604 101.354 102.352 102.314 102.888C103.274 103.424 104.394 103.692 105.674 103.692ZM105.674 100.596C105.098 100.596 104.578 100.46 104.114 100.188C103.65 99.9163 103.282 99.5483 103.01 99.0843C102.738 98.6203 102.602 98.1003 102.602 97.5243V91.8363C102.602 91.2603 102.738 90.7403 103.01 90.2763C103.282 89.8123 103.65 89.4443 104.114 89.1723C104.578 88.9003 105.098 88.7643 105.674 88.7643C106.25 88.7643 106.77 88.9003 107.234 89.1723C107.698 89.4443 108.066 89.8123 108.338 90.2763C108.61 90.7403 108.746 91.2603 108.746 91.8363V97.5243C108.746 98.1003 108.61 98.6203 108.338 99.0843C108.066 99.5483 107.698 99.9163 107.234 100.188C106.77 100.46 106.25 100.596 105.674 100.596ZM121.846 103.692C123.126 103.692 124.246 103.424 125.206 102.888C126.166 102.352 126.914 101.604 127.45 100.644C127.986 99.6843 128.254 98.5643 128.254 97.2843V92.1003C128.254 90.8203 127.986 89.7003 127.45 88.7403C126.914 87.7803 126.166 87.0323 125.206 86.4963C124.246 85.9603 123.126 85.6923 121.846 85.6923C120.566 85.6923 119.446 85.9603 118.486 86.4963C117.526 87.0323 116.778 87.7803 116.242 88.7403C115.706 89.7003 115.438 90.8203 115.438 92.1003V97.2843C115.438 98.5643 115.706 99.6843 116.242 100.644C116.778 101.604 117.526 102.352 118.486 102.888C119.446 103.424 120.566 103.692 121.846 103.692ZM121.846 100.596C121.27 100.596 120.75 100.46 120.286 100.188C119.822 99.9163 119.454 99.5483 119.182 99.0843C118.91 98.6203 118.774 98.1003 118.774 97.5243V91.8363C118.774 91.2603 118.91 90.7403 119.182 90.2763C119.454 89.8123 119.822 89.4443 120.286 89.1723C120.75 88.9003 121.27 88.7643 121.846 88.7643C122.422 88.7643 122.942 88.9003 123.406 89.1723C123.87 89.4443 124.238 89.8123 124.51 90.2763C124.782 90.7403 124.918 91.2603 124.918 91.8363V97.5243C124.918 98.1003 124.782 98.6203 124.51 99.0843C124.238 99.5483 123.87 99.9163 123.406 100.188C122.942 100.46 122.422 100.596 121.846 100.596Z" fill="#7DC7A8"/>
<rect width="3.45164" height="30.4895" rx="1.72582" transform="matrix(0.707107 0.707107 0.707107 -0.707107 134 103.892)" fill="#7DC7A8"/>
<path fill-rule="evenodd" clip-rule="evenodd" d="M139.466 92.9748C142.325 92.9748 144.643 90.6568 144.643 87.7973C144.643 84.9379 142.325 82.6199 139.466 82.6199C136.606 82.6199 134.288 84.9379 134.288 87.7973C134.288 90.6568 136.606 92.9748 139.466 92.9748ZM139.465 90.098C140.736 90.098 141.766 89.0678 141.766 87.7969C141.766 86.5261 140.736 85.4958 139.465 85.4958C138.194 85.4958 137.164 86.5261 137.164 87.7969C137.164 89.0678 138.194 90.098 139.465 90.098Z" fill="#7DC7A8"/>
<path fill-rule="evenodd" clip-rule="evenodd" d="M152.697 106.206C155.556 106.206 157.874 103.888 157.874 101.029C157.874 98.1691 155.556 95.8511 152.697 95.8511C149.837 95.8511 147.519 98.1691 147.519 101.029C147.519 103.888 149.837 106.206 152.697 106.206ZM152.696 103.329C153.967 103.329 154.997 102.299 154.997 101.028C154.997 99.757 153.967 98.7268 152.696 98.7268C151.425 98.7268 150.395 99.757 150.395 101.028C150.395 102.299 151.425 103.329 152.696 103.329Z" fill="#7DC7A8"/>
<path d="M78 298.84L113.688 259.77L157.899 311.332L214.894 231.332L237 259.77" stroke="#EEEEEE" stroke-width="15.403" stroke-linecap="round" stroke-linejoin="round"/>
<path fill-rule="evenodd" clip-rule="evenodd" d="M197.862 207.908C197.862 188.295 181.962 172.395 162.349 172.395C142.736 172.395 126.836 188.295 126.836 207.908C126.836 208.457 127.287 208.894 127.836 208.894H159.14C160.913 208.894 162.349 210.331 162.349 212.103V240.212C162.349 241.984 163.791 243.436 165.556 243.278C183.667 241.657 197.862 226.44 197.862 207.908Z" fill="#7DC7A8"/>
<mask id="path-290-inside-1" fill="white">
<path fill-rule="evenodd" clip-rule="evenodd" d="M151.155 216.59C152.927 216.59 154.364 218.026 154.364 219.798V248.698C154.364 250.47 152.923 251.922 151.157 251.764C134.174 250.244 120.633 236.767 119.013 219.813C118.844 218.042 120.299 216.59 122.078 216.59H151.155Z"/>
</mask>
<path fill-rule="evenodd" clip-rule="evenodd" d="M151.155 216.59C152.927 216.59 154.364 218.026 154.364 219.798V248.698C154.364 250.47 152.923 251.922 151.157 251.764C134.174 250.244 120.633 236.767 119.013 219.813C118.844 218.042 120.299 216.59 122.078 216.59H151.155Z" fill="#E6559A"/>
<path d="M151.157 251.764L151.386 249.207L151.157 251.764ZM156.931 219.798V248.698H151.797V219.798H156.931ZM150.929 254.321C132.713 252.691 118.195 238.241 116.458 220.057L121.569 219.568C123.071 235.293 135.635 247.797 151.386 249.207L150.929 254.321ZM122.078 214.022H151.155V219.157H122.078V214.022ZM116.458 220.057C116.13 216.625 118.943 214.022 122.078 214.022V219.157C121.892 219.157 121.747 219.231 121.661 219.321C121.584 219.401 121.56 219.478 121.569 219.568L116.458 220.057ZM156.931 248.698C156.931 251.822 154.348 254.627 150.929 254.321L151.386 249.207C151.477 249.215 151.554 249.191 151.633 249.114C151.723 249.027 151.797 248.883 151.797 248.698H156.931ZM151.797 219.798C151.797 219.444 151.51 219.157 151.155 219.157V214.022C154.345 214.022 156.931 216.608 156.931 219.798H151.797Z" fill="#E6559A" mask="url(#path-290-inside-1)"/>
<mask id="path-292-inside-2" fill="white">
<rect width="11.4319" height="63.4471" rx="1.28358" transform="matrix(-1 0 0 1 222.256 143.129)"/>
</mask>
<rect width="11.4319" height="63.4471" rx="1.28358" transform="matrix(-1 0 0 1 222.256 143.129)" stroke="white" stroke-width="3.85075" mask="url(#path-292-inside-2)"/>
<mask id="path-293-inside-3" fill="white">
<rect width="11.4319" height="50.872" rx="1.28358" transform="matrix(-1 0 0 1 200.821 155.704)"/>
</mask>
<rect width="11.4319" height="50.872" rx="1.28358" transform="matrix(-1 0 0 1 200.821 155.704)" stroke="white" stroke-width="3.85075" mask="url(#path-293-inside-3)"/>
<rect width="11.4319" height="34.8673" rx="1.28358" transform="matrix(-1 0 0 1 179.386 171.709)" fill="white"/>
<path d="M221.515 127.581C221.653 127.046 221.33 126.501 220.796 126.364L212.078 124.126C211.543 123.988 210.998 124.311 210.861 124.846C210.724 125.38 211.046 125.925 211.581 126.063L219.33 128.052L217.34 135.801C217.203 136.336 217.525 136.881 218.06 137.018C218.595 137.155 219.14 136.833 219.277 136.298L221.515 127.581ZM168.509 159.27L221.056 128.193L220.038 126.472L167.491 157.549L168.509 159.27Z" fill="white"/>
<g filter="url(#filter4_d)">
<ellipse cx="378" cy="501.205" rx="104" ry="2.98973" fill="#C4C4C4" fill-opacity="0.01"/>
</g>
<g filter="url(#filter5_d)">
<path d="M314.458 503.768H440.688C444.428 503.768 447.995 503.025 451.248 501.679C451.248 501.679 407.47 479.636 377.786 479.85C348.102 480.063 303.897 501.679 303.897 501.679C307.151 503.025 310.718 503.768 314.458 503.768Z" fill="#C4C4C4" fill-opacity="0.01"/>
</g>
<g filter="url(#filter6_i)">
<path d="M287.193 177.656V158.24H468.383V210.207C469.329 210.207 470.041 210.974 470.041 211.92V235.905C470.041 236.851 469.329 237.618 468.383 237.618V271.882H287.193C287.193 271.882 285.532 271.115 285.532 270.168V246.184C285.532 245.238 286.247 244.471 287.193 244.471V237.618C287.193 237.618 285.532 236.851 285.532 235.905V211.92C285.532 210.974 286.247 210.207 287.193 210.207V193.646C287.193 193.646 285.532 192.879 285.532 191.933V179.37C285.532 178.423 286.247 177.656 287.193 177.656Z" fill="#F9FAFA"/>
</g>
<g filter="url(#filter7_i)">
<path fill-rule="evenodd" clip-rule="evenodd" d="M468 158.434C468 143.466 455.87 131.332 440.908 131.332H314.092C299.129 131.332 287 143.466 287 158.434C287 158.434 287 173.151 287 177.832C287 209.215 287 240.672 287 271.974C287 277.13 287 476.231 287 476.231C287 491.199 299.129 503.332 314.092 503.332H440.908C455.87 503.332 468 491.199 468 476.231C468 476.231 468 252.522 468 237.74C468 222.959 468 166.051 468 158.434Z" fill="#F9FAFA"/>
</g>
<path fill-rule="evenodd" clip-rule="evenodd" d="M377.786 492.861C384.671 492.861 390.253 487.279 390.253 480.394C390.253 473.509 384.671 467.928 377.786 467.928C370.901 467.928 365.319 473.509 365.319 480.394C365.319 487.279 370.901 492.861 377.786 492.861Z" fill="url(#paint0_linear)"/>
<path fill-rule="evenodd" clip-rule="evenodd" d="M377.786 491.197C383.753 491.197 388.59 486.36 388.59 480.393C388.59 474.426 383.753 469.589 377.786 469.589C371.818 469.589 366.981 474.426 366.981 480.393C366.981 486.36 371.818 491.197 377.786 491.197Z" fill="#F9FAFA"/>
<path fill-rule="evenodd" clip-rule="evenodd" d="M366.121 152.112H389.451C390.353 152.112 391.084 152.856 391.084 153.774C391.084 154.692 390.353 155.436 389.451 155.436H366.121C365.219 155.436 364.488 154.692 364.488 153.774C364.488 152.856 365.219 152.112 366.121 152.112Z" fill="#E5E6E6"/>
<path fill-rule="evenodd" clip-rule="evenodd" d="M350.36 151.28C351.737 151.28 352.853 152.396 352.853 153.773C352.853 155.15 351.737 156.266 350.36 156.266C348.983 156.266 347.866 155.15 347.866 153.773C347.866 152.396 348.983 151.28 350.36 151.28Z" fill="#E5E6E6"/>
<rect x="296.991" y="174.881" width="161.164" height="285.879" stroke="#E1E1E1" stroke-linejoin="round"/>
<mask id="mask1" mask-type="alpha" maskUnits="userSpaceOnUse" x="297" y="175" width="161" height="286">
<rect x="297.491" y="175.381" width="160.164" height="284.879" fill="#F5F5F5"/>
</mask>
<g mask="url(#mask1)">
<rect x="297.918" y="175.324" width="159.737" height="284.879" fill="white"/>
<rect x="297.918" y="175.324" width="159.737" height="284.879" fill="white"/>
</g>
<rect x="345.859" y="273.753" width="0.763818" height="6.87436" transform="rotate(-90 345.859 273.753)" fill="#C7CBD8" fill-opacity="0.7"/>
<rect x="349.678" y="276.809" width="0.763818" height="6.87436" transform="rotate(-180 349.678 276.809)" fill="#C7CBD8" fill-opacity="0.7"/>
<rect x="363.427" y="273.753" width="0.763818" height="6.87436" transform="rotate(-90 363.427 273.753)" fill="#C7CBD8" fill-opacity="0.7"/>
<rect x="367.246" y="276.809" width="0.763818" height="6.87436" transform="rotate(-180 367.246 276.809)" fill="#C7CBD8" fill-opacity="0.7"/>
<path fill-rule="evenodd" clip-rule="evenodd" d="M331.507 275.408L332.732 276.619H334.701C334.667 276.571 334.629 276.526 334.586 276.483L332.218 274.143C331.826 273.754 331.189 273.754 330.796 274.143L328.429 276.483C328.386 276.526 328.348 276.571 328.314 276.619H330.283L331.507 275.408ZM331.507 271.719L332.732 270.508H334.701C334.667 270.556 334.629 270.601 334.586 270.643L332.218 272.984C331.826 273.372 331.189 273.372 330.796 272.984L328.429 270.643C328.386 270.601 328.348 270.556 328.314 270.508H330.283L331.507 271.719Z" fill="#7DC7A8"/>
<rect width="0.763818" height="6.87436" transform="matrix(0 -1 -1 0 352.733 254.658)" fill="#C7CBD8" fill-opacity="0.7"/>
<rect width="0.763818" height="6.87436" transform="matrix(1 0 0 -1 348.914 257.713)" fill="#C7CBD8" fill-opacity="0.7"/>
<rect width="0.763818" height="6.87436" transform="matrix(0 -1 -1 0 370.301 254.658)" fill="#E6559A"/>
<rect width="0.763818" height="6.87436" transform="matrix(1 0 0 -1 366.481 257.713)" fill="#E6559A"/>
<rect width="0.763818" height="6.87436" transform="matrix(0 -1 -1 0 335.166 254.658)" fill="#C7CBD8" fill-opacity="0.7"/>
<rect width="0.763818" height="6.87436" transform="matrix(1 0 0 -1 331.347 257.713)" fill="#C7CBD8" fill-opacity="0.7"/>
<rect x="363.431" y="294.376" width="0.763818" height="6.87436" transform="rotate(-90 363.431 294.376)" fill="#C7CBD8" fill-opacity="0.7"/>
<rect x="367.25" y="297.431" width="0.763818" height="6.87436" transform="rotate(-180 367.25 297.431)" fill="#C7CBD8" fill-opacity="0.7"/>
<rect x="328.292" y="294.376" width="0.763818" height="6.87436" transform="rotate(-90 328.292 294.376)" fill="#C7CBD8" fill-opacity="0.7"/>
<rect x="332.11" y="297.431" width="0.763818" height="6.87436" transform="rotate(-180 332.11 297.431)" fill="#C7CBD8" fill-opacity="0.7"/>
<path fill-rule="evenodd" clip-rule="evenodd" d="M347.364 293.216L348.265 290.332H349.92L349.129 292.863L350.138 292.662L350.334 293.642L348.789 293.951L348.291 295.545H351.161L350.816 296.952H347.852L347.852 296.952H346.197L347.024 294.304L346.197 294.47L346 293.489L347.364 293.216Z" fill="#515DF6"/>
<path d="M390.2 418.072H396.2V415.972H390.2V418.072ZM401.298 423.332H404.078V408.932H401.298L398.598 410.552V413.552L401.298 411.892V423.332ZM413.22 423.632C414.287 423.632 415.22 423.409 416.02 422.962C416.82 422.516 417.444 421.892 417.89 421.092C418.337 420.292 418.56 419.359 418.56 418.292V413.972C418.56 412.906 418.337 411.972 417.89 411.172C417.444 410.372 416.82 409.749 416.02 409.302C415.22 408.856 414.287 408.632 413.22 408.632C412.154 408.632 411.22 408.856 410.42 409.302C409.62 409.749 408.997 410.372 408.55 411.172C408.104 411.972 407.88 412.906 407.88 413.972V418.292C407.88 419.359 408.104 420.292 408.55 421.092C408.997 421.892 409.62 422.516 410.42 422.962C411.22 423.409 412.154 423.632 413.22 423.632ZM413.22 421.052C412.74 421.052 412.307 420.939 411.92 420.712C411.534 420.486 411.227 420.179 411 419.792C410.774 419.406 410.66 418.972 410.66 418.492V413.752C410.66 413.272 410.774 412.839 411 412.452C411.227 412.066 411.534 411.759 411.92 411.532C412.307 411.306 412.74 411.192 413.22 411.192C413.7 411.192 414.134 411.306 414.52 411.532C414.907 411.759 415.214 412.066 415.44 412.452C415.667 412.839 415.78 413.272 415.78 413.752V418.492C415.78 418.972 415.667 419.406 415.44 419.792C415.214 420.179 414.907 420.486 414.52 420.712C414.134 420.939 413.7 421.052 413.22 421.052Z" fill="#E6559A"/>
<rect width="2.87637" height="25.4079" rx="1.43818" transform="matrix(0.707107 0.707107 0.707107 -0.707107 425 423.299)" fill="#E6559A"/>
<path fill-rule="evenodd" clip-rule="evenodd" d="M429.555 414.201C431.938 414.201 433.869 412.269 433.869 409.886C433.869 407.503 431.938 405.572 429.555 405.572C427.172 405.572 425.24 407.503 425.24 409.886C425.24 412.269 427.172 414.201 429.555 414.201ZM429.554 411.803C430.613 411.803 431.472 410.945 431.472 409.886C431.472 408.827 430.613 407.968 429.554 407.968C428.495 407.968 427.637 408.827 427.637 409.886C427.637 410.945 428.495 411.803 429.554 411.803Z" fill="#E6559A"/>
<path fill-rule="evenodd" clip-rule="evenodd" d="M440.58 425.227C442.963 425.227 444.895 423.295 444.895 420.912C444.895 418.529 442.963 416.598 440.58 416.598C438.197 416.598 436.266 418.529 436.266 420.912C436.266 423.295 438.197 425.227 440.58 425.227ZM440.581 422.829C441.64 422.829 442.498 421.971 442.498 420.912C442.498 419.853 441.64 418.994 440.581 418.994C439.521 418.994 438.663 419.853 438.663 420.912C438.663 421.971 439.521 422.829 440.581 422.829Z" fill="#E6559A"/>
<path d="M315.66 225.632H317.76V222.172H321.2V220.072H317.76V216.632H315.66V220.072H312.2V222.172H315.66V225.632ZM326.306 228.332H329.086V213.932H326.306L323.606 215.552V218.552L326.306 216.892V228.332ZM338.228 228.632C339.295 228.632 340.228 228.409 341.028 227.962C341.828 227.516 342.452 226.892 342.898 226.092C343.345 225.292 343.568 224.359 343.568 223.292V218.972C343.568 217.906 343.345 216.972 342.898 216.172C342.452 215.372 341.828 214.749 341.028 214.302C340.228 213.856 339.295 213.632 338.228 213.632C337.162 213.632 336.228 213.856 335.428 214.302C334.628 214.749 334.005 215.372 333.558 216.172C333.112 216.972 332.888 217.906 332.888 218.972V223.292C332.888 224.359 333.112 225.292 333.558 226.092C334.005 226.892 334.628 227.516 335.428 227.962C336.228 228.409 337.162 228.632 338.228 228.632ZM338.228 226.052C337.748 226.052 337.315 225.939 336.928 225.712C336.542 225.486 336.235 225.179 336.008 224.792C335.782 224.406 335.668 223.972 335.668 223.492V218.752C335.668 218.272 335.782 217.839 336.008 217.452C336.235 217.066 336.542 216.759 336.928 216.532C337.315 216.306 337.748 216.192 338.228 216.192C338.708 216.192 339.142 216.306 339.528 216.532C339.915 216.759 340.222 217.066 340.448 217.452C340.675 217.839 340.788 218.272 340.788 218.752V223.492C340.788 223.972 340.675 224.406 340.448 224.792C340.222 225.179 339.915 225.486 339.528 225.712C339.142 225.939 338.708 226.052 338.228 226.052ZM351.705 228.632C352.772 228.632 353.705 228.409 354.505 227.962C355.305 227.516 355.928 226.892 356.375 226.092C356.822 225.292 357.045 224.359 357.045 223.292V218.972C357.045 217.906 356.822 216.972 356.375 216.172C355.928 215.372 355.305 214.749 354.505 214.302C353.705 213.856 352.772 213.632 351.705 213.632C350.638 213.632 349.705 213.856 348.905 214.302C348.105 214.749 347.482 215.372 347.035 216.172C346.588 216.972 346.365 217.906 346.365 218.972V223.292C346.365 224.359 346.588 225.292 347.035 226.092C347.482 226.892 348.105 227.516 348.905 227.962C349.705 228.409 350.638 228.632 351.705 228.632ZM351.705 226.052C351.225 226.052 350.792 225.939 350.405 225.712C350.018 225.486 349.712 225.179 349.485 224.792C349.258 224.406 349.145 223.972 349.145 223.492V218.752C349.145 218.272 349.258 217.839 349.485 217.452C349.712 217.066 350.018 216.759 350.405 216.532C350.792 216.306 351.225 216.192 351.705 216.192C352.185 216.192 352.618 216.306 353.005 216.532C353.392 216.759 353.698 217.066 353.925 217.452C354.152 217.839 354.265 218.272 354.265 218.752V223.492C354.265 223.972 354.152 224.406 353.925 224.792C353.698 225.179 353.392 225.486 353.005 225.712C352.618 225.939 352.185 226.052 351.705 226.052Z" fill="#7DC7A8"/>
<rect width="2.87637" height="25.4079" rx="1.43818" transform="matrix(0.707107 0.707107 0.707107 -0.707107 363 228.298)" fill="#7DC7A8"/>
<path fill-rule="evenodd" clip-rule="evenodd" d="M367.555 219.2C369.938 219.2 371.869 217.269 371.869 214.886C371.869 212.503 369.938 210.571 367.555 210.571C365.172 210.571 363.24 212.503 363.24 214.886C363.24 217.269 365.172 219.2 367.555 219.2ZM367.554 216.803C368.613 216.803 369.472 215.945 369.472 214.886C369.472 213.826 368.613 212.968 367.554 212.968C366.495 212.968 365.637 213.826 365.637 214.886C365.637 215.945 366.495 216.803 367.554 216.803Z" fill="#7DC7A8"/>
<path fill-rule="evenodd" clip-rule="evenodd" d="M378.58 230.227C380.963 230.227 382.895 228.295 382.895 225.912C382.895 223.529 380.963 221.598 378.58 221.598C376.197 221.598 374.266 223.529 374.266 225.912C374.266 228.295 376.197 230.227 378.58 230.227ZM378.581 227.829C379.64 227.829 380.498 226.971 380.498 225.912C380.498 224.853 379.64 223.994 378.581 223.994C377.521 223.994 376.663 224.853 376.663 225.912C376.663 226.971 377.521 227.829 378.581 227.829Z" fill="#7DC7A8"/>
<path d="M318 384.963L344.935 355.661L378.302 394.332L421.317 334.332L438 355.661" stroke="#515DF6" stroke-width="15.403" stroke-linecap="round" stroke-linejoin="round"/>
<path fill-rule="evenodd" clip-rule="evenodd" d="M411.959 308.505C411.959 291.841 398.451 278.332 381.787 278.332C365.123 278.332 351.614 291.841 351.614 308.505C351.614 308.971 351.997 309.343 352.464 309.343H378.578C380.35 309.343 381.787 310.78 381.787 312.552L381.787 335.468C381.787 337.24 383.228 338.695 384.991 338.509C400.148 336.909 411.959 324.086 411.959 308.505Z" fill="#7DC7A8"/>
<mask id="path-333-inside-4" fill="white">
<path fill-rule="evenodd" clip-rule="evenodd" d="M371.794 315.88C373.566 315.88 375.003 317.317 375.003 319.089V342.677C375.003 344.45 373.561 345.904 371.799 345.718C357.755 344.236 346.584 333.119 345.018 319.1C344.82 317.332 346.278 315.88 348.057 315.88H371.794Z"/>
</mask>
<path fill-rule="evenodd" clip-rule="evenodd" d="M371.794 315.88C373.566 315.88 375.003 317.317 375.003 319.089V342.677C375.003 344.45 373.561 345.904 371.799 345.718C357.755 344.236 346.584 333.119 345.018 319.1C344.82 317.332 346.278 315.88 348.057 315.88H371.794Z" fill="#E6559A"/>
<path d="M371.799 345.718L372.068 343.165L371.799 345.718ZM377.57 319.089V342.677H372.435V319.089H377.57ZM371.529 348.271C356.286 346.662 344.166 334.601 342.467 319.385L347.569 318.815C349.001 331.637 359.224 341.809 372.068 343.165L371.529 348.271ZM348.057 313.313H371.794V318.447H348.057V313.313ZM342.467 319.385C342.079 315.914 344.937 313.313 348.057 313.313V318.447C347.869 318.447 347.727 318.523 347.646 318.607C347.607 318.647 347.588 318.684 347.578 318.71C347.57 318.733 347.564 318.765 347.569 318.815L342.467 319.385ZM377.57 342.677C377.57 345.786 374.989 348.636 371.529 348.271L372.068 343.165C372.119 343.171 372.15 343.164 372.173 343.155C372.2 343.146 372.236 343.126 372.276 343.087C372.36 343.006 372.435 342.864 372.435 342.677H377.57ZM372.435 319.089C372.435 318.735 372.148 318.447 371.794 318.447V313.313C374.984 313.313 377.57 315.899 377.57 319.089H372.435Z" fill="#E6559A" mask="url(#path-333-inside-4)"/>
<mask id="path-335-inside-5" fill="white">
<rect width="8.40239" height="42.4344" rx="1.28358" transform="matrix(-1 0 0 1 422.912 261.897)"/>
</mask>
<rect width="8.40239" height="42.4344" rx="1.28358" transform="matrix(-1 0 0 1 422.912 261.897)" stroke="#515DF6" stroke-width="3.85075" mask="url(#path-335-inside-5)"/>
<mask id="path-336-inside-6" fill="white">
<rect width="8.40239" height="34.024" rx="1.28358" transform="matrix(-1 0 0 1 407.157 270.307)"/>
</mask>
<rect width="8.40239" height="34.024" rx="1.28358" transform="matrix(-1 0 0 1 407.157 270.307)" stroke="#515DF6" stroke-width="3.85075" mask="url(#path-336-inside-6)"/>
<rect width="8.40239" height="23.3198" rx="1.28358" transform="matrix(-1 0 0 1 391.402 281.012)" fill="#515DF6"/>
<path d="M422.664 251.59C422.795 251.077 422.45 250.547 421.893 250.404L412.821 248.084C412.264 247.942 411.707 248.242 411.576 248.754C411.445 249.267 411.79 249.798 412.347 249.94L420.411 252.002L418.512 259.426C418.381 259.939 418.726 260.47 419.283 260.612C419.839 260.754 420.397 260.454 420.528 259.942L422.664 251.59ZM383.579 272.955L422.201 252.171L421.111 250.494L382.489 271.278L383.579 272.955Z" fill="#515DF6"/>
<g filter="url(#filter8_d)">
<rect x="190" y="381.332" width="170" height="44" rx="8" fill="#7DC7A8"/>
</g>
<path d="M269.296 409.572C270.091 409.572 270.821 409.439 271.488 409.172C272.16 408.906 272.699 408.511 273.104 407.988C273.509 407.466 273.712 406.818 273.712 406.044C273.712 405.484 273.608 405.02 273.4 404.652C273.192 404.279 272.928 403.98 272.608 403.756C272.293 403.532 271.965 403.359 271.624 403.236C271.288 403.108 270.987 403.007 270.72 402.932L268.592 402.332C268.32 402.258 268.045 402.164 267.768 402.052C267.496 401.935 267.267 401.778 267.08 401.58C266.893 401.383 266.8 401.124 266.8 400.804C266.8 400.474 266.904 400.186 267.112 399.94C267.325 399.69 267.608 399.495 267.96 399.356C268.317 399.218 268.709 399.154 269.136 399.164C269.797 399.17 270.381 399.359 270.888 399.732C271.4 400.1 271.717 400.61 271.84 401.26L273.632 400.956C273.397 399.895 272.885 399.071 272.096 398.484C271.307 397.892 270.328 397.591 269.16 397.58C268.387 397.575 267.688 397.7 267.064 397.956C266.44 398.212 265.944 398.586 265.576 399.076C265.213 399.567 265.032 400.17 265.032 400.884C265.032 401.503 265.163 402.004 265.424 402.388C265.685 402.772 266.011 403.071 266.4 403.284C266.795 403.498 267.184 403.66 267.568 403.772L270.52 404.644C270.947 404.772 271.293 404.954 271.56 405.188C271.832 405.418 271.968 405.74 271.968 406.156C271.968 406.54 271.848 406.871 271.608 407.148C271.373 407.42 271.061 407.631 270.672 407.78C270.283 407.924 269.856 407.996 269.392 407.996C268.645 407.996 267.992 407.802 267.432 407.412C266.872 407.023 266.504 406.474 266.328 405.764L264.584 406.028C264.712 406.759 264.989 407.391 265.416 407.924C265.843 408.452 266.389 408.86 267.056 409.148C267.723 409.431 268.469 409.572 269.296 409.572ZM275.409 409.332H277.105V404.836C277.105 404.154 277.204 403.61 277.401 403.204C277.604 402.794 277.87 402.498 278.201 402.316C278.532 402.135 278.897 402.044 279.297 402.044C279.756 402.044 280.129 402.138 280.417 402.324C280.705 402.511 280.926 402.756 281.081 403.06C281.236 403.364 281.34 403.695 281.393 404.052C281.452 404.404 281.481 404.748 281.481 405.084V409.332H283.177V404.532C283.177 404.266 283.153 403.956 283.105 403.604C283.057 403.252 282.966 402.892 282.833 402.524C282.7 402.156 282.505 401.818 282.249 401.508C281.998 401.194 281.67 400.94 281.265 400.748C280.86 400.556 280.358 400.46 279.761 400.46C279.137 400.46 278.582 400.572 278.097 400.796C277.617 401.02 277.22 401.33 276.905 401.724V397.812H275.409V409.332ZM287.701 409.572C289.077 409.572 290.114 409.074 290.813 408.076V409.332H292.293V404.012C292.293 403.65 292.277 403.311 292.245 402.996C292.213 402.682 292.127 402.383 291.989 402.1C291.722 401.53 291.301 401.114 290.725 400.852C290.154 400.586 289.482 400.452 288.709 400.452C287.711 400.452 286.911 400.671 286.309 401.108C285.706 401.546 285.301 402.135 285.093 402.876L286.653 403.356C286.802 402.876 287.066 402.53 287.445 402.316C287.823 402.103 288.239 401.996 288.693 401.996C289.365 401.996 289.85 402.14 290.149 402.428C290.453 402.711 290.618 403.151 290.645 403.748C289.941 403.844 289.253 403.946 288.581 404.052C287.909 404.154 287.322 404.276 286.821 404.42C286.154 404.634 285.647 404.951 285.301 405.372C284.954 405.794 284.781 406.33 284.781 406.98C284.781 407.45 284.89 407.882 285.109 408.276C285.333 408.666 285.661 408.98 286.093 409.22C286.53 409.455 287.066 409.572 287.701 409.572ZM287.997 408.204C287.463 408.204 287.069 408.082 286.813 407.836C286.562 407.591 286.437 407.3 286.437 406.964C286.437 406.623 286.549 406.354 286.773 406.156C287.002 405.959 287.287 405.802 287.629 405.684C287.991 405.578 288.418 405.484 288.909 405.404C289.405 405.324 289.978 405.236 290.629 405.14C290.623 405.343 290.61 405.57 290.589 405.82C290.567 406.071 290.522 406.295 290.453 406.492C290.389 406.775 290.253 407.047 290.045 407.308C289.842 407.57 289.567 407.786 289.221 407.956C288.879 408.122 288.471 408.204 287.997 408.204ZM294.37 409.332H296.058V404.972C296.058 404.466 296.138 403.996 296.298 403.564C296.458 403.132 296.741 402.786 297.146 402.524C297.434 402.338 297.751 402.228 298.098 402.196C298.445 402.164 298.757 402.186 299.034 402.26V400.692C298.645 400.618 298.231 400.62 297.794 400.7C297.362 400.78 296.983 400.94 296.658 401.18C296.338 401.394 296.071 401.69 295.858 402.068V400.692H294.37V409.332ZM304.233 409.572C305.071 409.572 305.831 409.362 306.513 408.94C307.196 408.514 307.705 407.914 308.041 407.14L306.401 406.62C305.964 407.538 305.215 407.996 304.153 407.996C303.428 407.996 302.857 407.778 302.441 407.34C302.025 406.903 301.783 406.284 301.713 405.484H308.153C308.212 404.45 308.089 403.556 307.785 402.804C307.481 402.052 307.02 401.474 306.401 401.068C305.783 400.658 305.033 400.452 304.153 400.452C303.311 400.452 302.572 400.642 301.937 401.02C301.303 401.399 300.807 401.935 300.449 402.628C300.097 403.322 299.921 404.14 299.921 405.084C299.921 405.975 300.1 406.759 300.457 407.436C300.82 408.108 301.324 408.634 301.969 409.012C302.62 409.386 303.375 409.572 304.233 409.572ZM304.217 401.932C305.524 401.932 306.265 402.682 306.441 404.18H301.753C301.86 403.45 302.119 402.892 302.529 402.508C302.94 402.124 303.503 401.932 304.217 401.932Z" fill="white"/>
<path d="M253 405.332C252.293 405.332 251.644 405.577 251.132 405.985L247.929 403.984C248.024 403.555 248.024 403.11 247.929 402.681L251.132 400.679C251.644 401.088 252.293 401.332 253 401.332C254.657 401.332 256 399.989 256 398.332C256 396.675 254.657 395.332 253 395.332C251.343 395.332 250 396.675 250 398.332C250 398.556 250.025 398.774 250.071 398.984L246.868 400.985C246.356 400.577 245.707 400.332 245 400.332C243.343 400.332 242 401.675 242 403.332C242 404.989 243.343 406.332 245 406.332C245.707 406.332 246.356 406.088 246.868 405.679L250.071 407.681C250.024 407.895 250 408.113 250 408.332C250 409.989 251.343 411.332 253 411.332C254.657 411.332 256 409.989 256 408.332C256 406.675 254.657 405.332 253 405.332Z" fill="white"/>
</g>
<defs>
<filter id="filter0_d" x="14" y="437.919" width="282" height="31.4137" filterUnits="userSpaceOnUse" color-interpolation-filters="sRGB">
<feFlood flood-opacity="0" result="BackgroundImageFix"/>
<feColorMatrix in="SourceAlpha" type="matrix" values="0 0 0 0 0 0 0 0 0 0 0 0 0 0 0 0 0 0 127 0"/>
<feOffset/>
<feGaussianBlur stdDeviation="6"/>
<feColorMatrix type="matrix" values="0 0 0 0 0 0 0 0 0 0 0 0 0 0 0 0 0 0 0.08 0"/>
<feBlend mode="normal" in2="BackgroundImageFix" result="effect1_dropShadow"/>
<feBlend mode="normal" in="SourceGraphic" in2="effect1_dropShadow" result="shape"/>
</filter>
<filter id="filter1_d" x="54.6138" y="416.557" width="200.772" height="47.6567" filterUnits="userSpaceOnUse" color-interpolation-filters="sRGB">
<feFlood flood-opacity="0" result="BackgroundImageFix"/>
<feColorMatrix in="SourceAlpha" type="matrix" values="0 0 0 0 0 0 0 0 0 0 0 0 0 0 0 0 0 0 127 0"/>
<feOffset/>
<feGaussianBlur stdDeviation="4.5"/>
<feColorMatrix type="matrix" values="0 0 0 0 0 0 0 0 0 0 0 0 0 0 0 0 0 0 0.33 0"/>
<feBlend mode="normal" in2="BackgroundImageFix" result="effect1_dropShadow"/>
<feBlend mode="normal" in="SourceGraphic" in2="effect1_dropShadow" result="shape"/>
</filter>
<filter id="filter2_d" x="24.8774" y="-11.6836" width="260.246" height="489.974" filterUnits="userSpaceOnUse" color-interpolation-filters="sRGB">
<feFlood flood-opacity="0" result="BackgroundImageFix"/>
<feColorMatrix in="SourceAlpha" type="matrix" values="0 0 0 0 0 0 0 0 0 0 0 0 0 0 0 0 0 0 127 0"/>
<feOffset dy="5.53"/>
<feGaussianBlur stdDeviation="8.77296"/>
<feColorMatrix type="matrix" values="0 0 0 0 0 0 0 0 0 0 0 0 0 0 0 0 0 0 0.03 0"/>
<feBlend mode="normal" in2="BackgroundImageFix" result="effect1_dropShadow"/>
<feBlend mode="normal" in="SourceGraphic" in2="effect1_dropShadow" result="shape"/>
</filter>
<filter id="filter3_i" x="42.4233" y="-4.9315" width="225.154" height="460.146" filterUnits="userSpaceOnUse" color-interpolation-filters="sRGB">
<feFlood flood-opacity="0" result="BackgroundImageFix"/>
<feBlend mode="normal" in="SourceGraphic" in2="BackgroundImageFix" result="shape"/>
<feColorMatrix in="SourceAlpha" type="matrix" values="0 0 0 0 0 0 0 0 0 0 0 0 0 0 0 0 0 0 127 0" result="hardAlpha"/>
<feOffset dy="-5.26377"/>
<feGaussianBlur stdDeviation="8.84534"/>
<feComposite in2="hardAlpha" operator="arithmetic" k2="-1" k3="1"/>
<feColorMatrix type="matrix" values="0 0 0 0 0 0 0 0 0 0 0 0 0 0 0 0 0 0 0.12 0"/>
<feBlend mode="normal" in2="shape" result="effect1_innerShadow"/>
</filter>
<filter id="filter4_d" x="262" y="486.216" width="232" height="29.9795" filterUnits="userSpaceOnUse" color-interpolation-filters="sRGB">
<feFlood flood-opacity="0" result="BackgroundImageFix"/>
<feColorMatrix in="SourceAlpha" type="matrix" values="0 0 0 0 0 0 0 0 0 0 0 0 0 0 0 0 0 0 127 0"/>
<feOffset/>
<feGaussianBlur stdDeviation="6"/>
<feColorMatrix type="matrix" values="0 0 0 0 0 0 0 0 0 0 0 0 0 0 0 0 0 0 0.08 0"/>
<feBlend mode="normal" in2="BackgroundImageFix" result="effect1_dropShadow"/>
<feBlend mode="normal" in="SourceGraphic" in2="effect1_dropShadow" result="shape"/>
</filter>
<filter id="filter5_d" x="294.897" y="470.848" width="165.351" height="41.9195" filterUnits="userSpaceOnUse" color-interpolation-filters="sRGB">
<feFlood flood-opacity="0" result="BackgroundImageFix"/>
<feColorMatrix in="SourceAlpha" type="matrix" values="0 0 0 0 0 0 0 0 0 0 0 0 0 0 0 0 0 0 127 0"/>
<feOffset/>
<feGaussianBlur stdDeviation="4.5"/>
<feColorMatrix type="matrix" values="0 0 0 0 0 0 0 0 0 0 0 0 0 0 0 0 0 0 0.33 0"/>
<feBlend mode="normal" in2="BackgroundImageFix" result="effect1_dropShadow"/>
<feBlend mode="normal" in="SourceGraphic" in2="effect1_dropShadow" result="shape"/>
</filter>
<filter id="filter6_i" x="285.532" y="158.24" width="184.509" height="113.642" filterUnits="userSpaceOnUse" color-interpolation-filters="sRGB">
<feFlood flood-opacity="0" result="BackgroundImageFix"/>
<feBlend mode="normal" in="SourceGraphic" in2="BackgroundImageFix" result="shape"/>
<feColorMatrix in="SourceAlpha" type="matrix" values="0 0 0 0 0 0 0 0 0 0 0 0 0 0 0 0 0 0 127 0" result="hardAlpha"/>
<feOffset/>
<feGaussianBlur stdDeviation="5.5"/>
<feComposite in2="hardAlpha" operator="arithmetic" k2="-1" k3="1"/>
<feColorMatrix type="matrix" values="0 0 0 0 0 0 0 0 0 0 0 0 0 0 0 0 0 0 0.07 0"/>
<feBlend mode="normal" in2="shape" result="effect1_innerShadow"/>
</filter>
<filter id="filter7_i" x="287" y="126.069" width="181" height="377.264" filterUnits="userSpaceOnUse" color-interpolation-filters="sRGB">
<feFlood flood-opacity="0" result="BackgroundImageFix"/>
<feBlend mode="normal" in="SourceGraphic" in2="BackgroundImageFix" result="shape"/>
<feColorMatrix in="SourceAlpha" type="matrix" values="0 0 0 0 0 0 0 0 0 0 0 0 0 0 0 0 0 0 127 0" result="hardAlpha"/>
<feOffset dy="-5.26377"/>
<feGaussianBlur stdDeviation="8.84534"/>
<feComposite in2="hardAlpha" operator="arithmetic" k2="-1" k3="1"/>
<feColorMatrix type="matrix" values="0 0 0 0 0 0 0 0 0 0 0 0 0 0 0 0 0 0 0.08 0"/>
<feBlend mode="normal" in2="shape" result="effect1_innerShadow"/>
</filter>
<filter id="filter8_d" x="174" y="373.332" width="202" height="76" filterUnits="userSpaceOnUse" color-interpolation-filters="sRGB">
<feFlood flood-opacity="0" result="BackgroundImageFix"/>
<feColorMatrix in="SourceAlpha" type="matrix" values="0 0 0 0 0 0 0 0 0 0 0 0 0 0 0 0 0 0 127 0"/>
<feOffset dy="8"/>
<feGaussianBlur stdDeviation="8"/>
<feColorMatrix type="matrix" values="0 0 0 0 0.262745 0 0 0 0 0.356863 0 0 0 0 0.376471 0 0 0 0.16 0"/>
<feBlend mode="normal" in2="BackgroundImageFix" result="effect1_dropShadow"/>
<feBlend mode="normal" in="SourceGraphic" in2="effect1_dropShadow" result="shape"/>
</filter>
<linearGradient id="paint0_linear" x1="390.253" y1="492.861" x2="390.253" y2="467.928" gradientUnits="userSpaceOnUse">
<stop stop-color="#F5F5F5"/>
<stop offset="1" stop-color="#E5E6E6"/>
</linearGradient>
<clipPath id="clip0">
<rect width="507" height="503.668" fill="white" transform="translate(0 0.332275)"/>
</clipPath>
</defs>
</svg>
