<svg width="472" height="456" viewBox="0 0 472 456" fill="none" xmlns="http://www.w3.org/2000/svg">
<rect x="310" y="160.969" width="0.99839" height="9" transform="rotate(-90 310 160.969)" fill="#C7CBD8" fill-opacity="0.7"/>
<rect x="315" y="164.961" width="1" height="8.98203" transform="rotate(-180 315 164.961)" fill="#C7CBD8" fill-opacity="0.7"/>
<rect x="356" y="160.969" width="0.99839" height="9" transform="rotate(-90 356 160.969)" fill="#C7CBD8" fill-opacity="0.7"/>
<rect x="361" y="164.961" width="1" height="8.98203" transform="rotate(-180 361 164.961)" fill="#C7CBD8" fill-opacity="0.7"/>
<rect x="402" y="160.969" width="0.99839" height="9" transform="rotate(-90 402 160.969)" fill="#C7CBD8" fill-opacity="0.7"/>
<rect x="407" y="164.961" width="1" height="8.98203" transform="rotate(-180 407 164.961)" fill="#C7CBD8" fill-opacity="0.7"/>
<rect x="333" y="160.969" width="0.99839" height="9" transform="rotate(-90 333 160.969)" fill="#C7CBD8" fill-opacity="0.7"/>
<rect x="338" y="164.961" width="1" height="8.98203" transform="rotate(-180 338 164.961)" fill="#C7CBD8" fill-opacity="0.7"/>
<rect x="379" y="160.969" width="0.99839" height="9" transform="rotate(-90 379 160.969)" fill="#C7CBD8" fill-opacity="0.7"/>
<rect x="384" y="164.961" width="1" height="8.98203" transform="rotate(-180 384 164.961)" fill="#C7CBD8" fill-opacity="0.7"/>
<rect x="425" y="160.969" width="0.99839" height="9" transform="rotate(-90 425 160.969)" fill="#C7CBD8" fill-opacity="0.7"/>
<rect x="430" y="164.961" width="1" height="8.98203" transform="rotate(-180 430 164.961)" fill="#C7CBD8" fill-opacity="0.7"/>
<path fill-rule="evenodd" clip-rule="evenodd" d="M291.21 162.524L293.427 164.712H295.42L291.922 161.26C291.529 160.872 290.891 160.872 290.498 161.26L287 164.712H288.993L291.21 162.524ZM291.21 158.915L293.427 156.727H295.42L291.922 160.179C291.529 160.567 290.891 160.567 290.498 160.179L287 156.727H288.993L291.21 158.915Z" fill="#C7CBD8" fill-opacity="0.7"/>
<rect width="0.99839" height="9" transform="matrix(0 -1 -1 0 411 136.019)" fill="#C7CBD8" fill-opacity="0.7"/>
<rect width="1" height="8.98203" transform="matrix(1 0 0 -1 406 140.011)" fill="#C7CBD8" fill-opacity="0.7"/>
<rect width="0.99839" height="9" transform="matrix(0 -1 -1 0 434 136.019)" fill="#C7CBD8" fill-opacity="0.7"/>
<rect width="1" height="8.98203" transform="matrix(1 0 0 -1 429 140.011)" fill="#C7CBD8" fill-opacity="0.7"/>
<rect width="0.99839" height="9" transform="matrix(0 -1 -1 0 365 136.019)" fill="#C7CBD8" fill-opacity="0.7"/>
<rect width="1" height="8.98203" transform="matrix(1 0 0 -1 360 140.011)" fill="#C7CBD8" fill-opacity="0.7"/>
<rect width="0.99839" height="9" transform="matrix(0 -1 -1 0 319 136.019)" fill="#C7CBD8" fill-opacity="0.7"/>
<rect width="1" height="8.98203" transform="matrix(1 0 0 -1 314 140.011)" fill="#C7CBD8" fill-opacity="0.7"/>
<rect width="0.99839" height="9" transform="matrix(0 -1 -1 0 388 136.019)" fill="#C7CBD8" fill-opacity="0.7"/>
<rect width="1" height="8.98203" transform="matrix(1 0 0 -1 383 140.011)" fill="#C7CBD8" fill-opacity="0.7"/>
<rect width="0.99839" height="9" transform="matrix(0 -1 -1 0 342 136.019)" fill="#C7CBD8" fill-opacity="0.7"/>
<rect width="1" height="8.98203" transform="matrix(1 0 0 -1 337 140.011)" fill="#C7CBD8" fill-opacity="0.7"/>
<rect width="0.99839" height="9" transform="matrix(0 -1 -1 0 296 136.019)" fill="#C7CBD8" fill-opacity="0.7"/>
<rect width="1" height="8.98203" transform="matrix(1 0 0 -1 291 140.011)" fill="#C7CBD8" fill-opacity="0.7"/>
<rect x="310" y="187.915" width="0.99839" height="9" transform="rotate(-90 310 187.915)" fill="#C7CBD8" fill-opacity="0.7"/>
<rect x="315" y="191.907" width="1" height="8.98203" transform="rotate(-180 315 191.907)" fill="#C7CBD8" fill-opacity="0.7"/>
<rect x="287" y="187.915" width="0.99839" height="9" transform="rotate(-90 287 187.915)" fill="#C7CBD8" fill-opacity="0.7"/>
<rect x="292" y="191.907" width="1" height="8.98203" transform="rotate(-180 292 191.907)" fill="#C7CBD8" fill-opacity="0.7"/>
<rect x="356" y="187.915" width="0.99839" height="9" transform="rotate(-90 356 187.915)" fill="#C7CBD8" fill-opacity="0.7"/>
<rect x="361" y="191.907" width="1" height="8.98203" transform="rotate(-180 361 191.907)" fill="#C7CBD8" fill-opacity="0.7"/>
<rect x="402" y="187.915" width="0.99839" height="9" transform="rotate(-90 402 187.915)" fill="#C7CBD8" fill-opacity="0.7"/>
<rect x="407" y="191.907" width="1" height="8.98203" transform="rotate(-180 407 191.907)" fill="#C7CBD8" fill-opacity="0.7"/>
<rect x="379" y="187.915" width="0.99839" height="9" transform="rotate(-90 379 187.915)" fill="#C7CBD8" fill-opacity="0.7"/>
<rect x="384" y="191.907" width="1" height="8.98203" transform="rotate(-180 384 191.907)" fill="#C7CBD8" fill-opacity="0.7"/>
<rect x="425" y="187.915" width="0.99839" height="9" transform="rotate(-90 425 187.915)" fill="#C7CBD8" fill-opacity="0.7"/>
<rect x="430" y="191.907" width="1" height="8.98203" transform="rotate(-180 430 191.907)" fill="#C7CBD8" fill-opacity="0.7"/>
<path fill-rule="evenodd" clip-rule="evenodd" d="M335.886 187.194L337.171 183.092H339.338L338.198 186.732L339.683 186.436L339.88 187.416L337.857 187.82L337.205 189.903H340.963L340.511 191.742H335.546L335.546 191.741H334.463L335.546 188.281L334.463 188.498L334.266 187.517L335.886 187.194Z" fill="#C7CBD8" fill-opacity="0.7"/>
<rect x="310" y="214.861" width="0.99839" height="9" transform="rotate(-90 310 214.861)" fill="#C7CBD8" fill-opacity="0.7"/>
<rect x="315" y="218.854" width="1" height="8.98203" transform="rotate(-180 315 218.854)" fill="#C7CBD8" fill-opacity="0.7"/>
<rect x="287" y="214.861" width="0.99839" height="9" transform="rotate(-90 287 214.861)" fill="#C7CBD8" fill-opacity="0.7"/>
<rect x="292" y="218.854" width="1" height="8.98203" transform="rotate(-180 292 218.854)" fill="#C7CBD8" fill-opacity="0.7"/>
<rect x="356" y="214.861" width="0.99839" height="9" transform="rotate(-90 356 214.861)" fill="#C7CBD8" fill-opacity="0.7"/>
<rect x="361" y="218.854" width="1" height="8.98203" transform="rotate(-180 361 218.854)" fill="#C7CBD8" fill-opacity="0.7"/>
<rect x="333" y="214.861" width="0.99839" height="9" transform="rotate(-90 333 214.861)" fill="#C7CBD8" fill-opacity="0.7"/>
<rect x="338" y="218.854" width="1" height="8.98203" transform="rotate(-180 338 218.854)" fill="#C7CBD8" fill-opacity="0.7"/>
<rect x="379" y="214.861" width="0.99839" height="9" transform="rotate(-90 379 214.861)" fill="#C7CBD8" fill-opacity="0.7"/>
<rect x="384" y="218.854" width="1" height="8.98203" transform="rotate(-180 384 218.854)" fill="#C7CBD8" fill-opacity="0.7"/>
<rect x="425" y="214.861" width="0.99839" height="9" transform="rotate(-90 425 214.861)" fill="#C7CBD8" fill-opacity="0.7"/>
<rect x="430" y="218.854" width="1" height="8.98203" transform="rotate(-180 430 218.854)" fill="#C7CBD8" fill-opacity="0.7"/>
<path fill-rule="evenodd" clip-rule="evenodd" d="M406.9 207.875L403 214.363L406.9 216.957L410.8 214.363L406.9 207.875ZM406.901 220.85L403.001 215.011L406.901 217.606L410.801 215.011L406.901 220.85Z" fill="#C7CBD8" fill-opacity="0.7"/>
<rect x="310" y="112.067" width="0.99839" height="9" transform="rotate(-90 310 112.067)" fill="#C7CBD8" fill-opacity="0.7"/>
<rect x="315" y="116.059" width="1" height="8.98203" transform="rotate(-180 315 116.059)" fill="#C7CBD8" fill-opacity="0.7"/>
<rect x="287" y="112.067" width="0.99839" height="9" transform="rotate(-90 287 112.067)" fill="#C7CBD8" fill-opacity="0.7"/>
<rect x="292" y="116.059" width="1" height="8.98203" transform="rotate(-180 292 116.059)" fill="#C7CBD8" fill-opacity="0.7"/>
<rect x="333" y="112.067" width="0.99839" height="9" transform="rotate(-90 333 112.067)" fill="#C7CBD8" fill-opacity="0.7"/>
<rect x="338" y="116.059" width="1" height="8.98203" transform="rotate(-180 338 116.059)" fill="#C7CBD8" fill-opacity="0.7"/>
<rect x="379" y="112.067" width="0.99839" height="9" transform="rotate(-90 379 112.067)" fill="#C7CBD8" fill-opacity="0.7"/>
<rect x="384" y="116.059" width="1" height="8.98203" transform="rotate(-180 384 116.059)" fill="#C7CBD8" fill-opacity="0.7"/>
<rect x="402" y="112.067" width="0.99839" height="9" transform="rotate(-90 402 112.067)" fill="#C7CBD8" fill-opacity="0.7"/>
<rect x="407" y="116.059" width="1" height="8.98203" transform="rotate(-180 407 116.059)" fill="#C7CBD8" fill-opacity="0.7"/>
<rect x="425" y="112.067" width="0.99839" height="9" transform="rotate(-90 425 112.067)" fill="#C7CBD8" fill-opacity="0.7"/>
<rect x="430" y="116.059" width="1" height="8.98203" transform="rotate(-180 430 116.059)" fill="#C7CBD8" fill-opacity="0.7"/>
<path fill-rule="evenodd" clip-rule="evenodd" d="M364 113.147C364 114.523 362.885 115.638 361.509 115.638H359.3V116.857H357.5V115.639H356V114H357.5V108.815H356V107.177H357.5V106.079H359.3V107.177H361.509C362.885 107.177 364 108.292 364 109.668C364 110.345 363.73 110.959 363.292 111.407C363.73 111.856 364 112.47 364 113.147ZM359.3 108.677H361.437C361.984 108.677 362.427 109.12 362.427 109.667C362.427 110.21 361.989 110.651 361.447 110.656H359.3V108.677ZM359.3 112.158H361.481C362.008 112.181 362.427 112.615 362.427 113.147C362.427 113.694 361.984 114.137 361.437 114.137H359.3V112.158Z" fill="#C7CBD8" fill-opacity="0.7"/>
<rect x="38" y="137.017" width="0.99839" height="9" transform="rotate(-90 38 137.017)" fill="#C7CBD8" fill-opacity="0.7"/>
<rect x="43" y="141.009" width="1" height="8.98203" transform="rotate(-180 43 141.009)" fill="#C7CBD8" fill-opacity="0.7"/>
<rect x="84" y="137.017" width="0.99839" height="9" transform="rotate(-90 84 137.017)" fill="#C7CBD8" fill-opacity="0.7"/>
<rect x="89" y="141.009" width="1" height="8.98203" transform="rotate(-180 89 141.009)" fill="#C7CBD8" fill-opacity="0.7"/>
<rect x="130" y="137.017" width="0.99839" height="9" transform="rotate(-90 130 137.017)" fill="#C7CBD8" fill-opacity="0.7"/>
<rect x="135" y="141.009" width="1" height="8.98203" transform="rotate(-180 135 141.009)" fill="#C7CBD8" fill-opacity="0.7"/>
<rect x="61" y="137.017" width="0.99839" height="9" transform="rotate(-90 61 137.017)" fill="#C7CBD8" fill-opacity="0.7"/>
<rect x="66" y="141.009" width="1" height="8.98203" transform="rotate(-180 66 141.009)" fill="#C7CBD8" fill-opacity="0.7"/>
<rect x="107" y="137.017" width="0.99839" height="9" transform="rotate(-90 107 137.017)" fill="#C7CBD8" fill-opacity="0.7"/>
<rect x="112" y="141.009" width="1" height="8.98203" transform="rotate(-180 112 141.009)" fill="#C7CBD8" fill-opacity="0.7"/>
<rect x="153" y="137.017" width="0.99839" height="9" transform="rotate(-90 153 137.017)" fill="#C7CBD8" fill-opacity="0.7"/>
<rect x="158" y="141.009" width="1" height="8.98203" transform="rotate(-180 158 141.009)" fill="#C7CBD8" fill-opacity="0.7"/>
<path fill-rule="evenodd" clip-rule="evenodd" d="M19.2099 138.572L21.4268 140.76H23.4199L19.9218 137.308C19.5286 136.92 18.8912 136.92 18.4981 137.308L15 140.76H16.9931L19.2099 138.572ZM19.2102 134.963L21.427 132.775H23.4201L19.922 136.227C19.5289 136.615 18.8915 136.615 18.4984 136.227L15.0002 132.775H16.9933L19.2102 134.963Z" fill="#C7CBD8" fill-opacity="0.7"/>
<rect width="0.99839" height="9" transform="matrix(0 -1 -1 0 139 112.067)" fill="#C7CBD8" fill-opacity="0.7"/>
<rect width="1" height="8.98203" transform="matrix(1 0 0 -1 134 116.059)" fill="#C7CBD8" fill-opacity="0.7"/>
<rect width="0.99839" height="9" transform="matrix(0 -1 -1 0 162 112.067)" fill="#C7CBD8" fill-opacity="0.7"/>
<rect width="1" height="8.98203" transform="matrix(1 0 0 -1 157 116.059)" fill="#C7CBD8" fill-opacity="0.7"/>
<rect width="0.99839" height="9" transform="matrix(0 -1 -1 0 93 112.067)" fill="#C7CBD8" fill-opacity="0.7"/>
<rect width="1" height="8.98203" transform="matrix(1 0 0 -1 88 116.059)" fill="#C7CBD8" fill-opacity="0.7"/>
<rect width="0.99839" height="9" transform="matrix(0 -1 -1 0 47 112.067)" fill="#C7CBD8" fill-opacity="0.7"/>
<rect width="1" height="8.98203" transform="matrix(1 0 0 -1 42 116.059)" fill="#C7CBD8" fill-opacity="0.7"/>
<rect width="0.99839" height="9" transform="matrix(0 -1 -1 0 116 112.067)" fill="#C7CBD8" fill-opacity="0.7"/>
<rect width="1" height="8.98203" transform="matrix(1 0 0 -1 111 116.059)" fill="#C7CBD8" fill-opacity="0.7"/>
<rect width="0.99839" height="9" transform="matrix(0 -1 -1 0 70 112.067)" fill="#C7CBD8" fill-opacity="0.7"/>
<rect width="1" height="8.98203" transform="matrix(1 0 0 -1 65 116.059)" fill="#C7CBD8" fill-opacity="0.7"/>
<rect width="0.99839" height="9" transform="matrix(0 -1 -1 0 24 112.067)" fill="#C7CBD8" fill-opacity="0.7"/>
<rect width="1" height="8.98203" transform="matrix(1 0 0 -1 19 116.059)" fill="#C7CBD8" fill-opacity="0.7"/>
<rect x="38" y="163.963" width="0.99839" height="9" transform="rotate(-90 38 163.963)" fill="#C7CBD8" fill-opacity="0.7"/>
<rect x="43" y="167.955" width="1" height="8.98203" transform="rotate(-180 43 167.955)" fill="#C7CBD8" fill-opacity="0.7"/>
<rect x="15" y="163.963" width="0.99839" height="9" transform="rotate(-90 15 163.963)" fill="#C7CBD8" fill-opacity="0.7"/>
<rect x="20" y="167.955" width="1" height="8.98203" transform="rotate(-180 20 167.955)" fill="#C7CBD8" fill-opacity="0.7"/>
<rect x="84" y="163.963" width="0.99839" height="9" transform="rotate(-90 84 163.963)" fill="#C7CBD8" fill-opacity="0.7"/>
<rect x="89" y="167.955" width="1" height="8.98203" transform="rotate(-180 89 167.955)" fill="#C7CBD8" fill-opacity="0.7"/>
<rect x="130" y="163.963" width="0.99839" height="9" transform="rotate(-90 130 163.963)" fill="#C7CBD8" fill-opacity="0.7"/>
<rect x="135" y="167.955" width="1" height="8.98203" transform="rotate(-180 135 167.955)" fill="#C7CBD8" fill-opacity="0.7"/>
<rect x="107" y="163.963" width="0.99839" height="9" transform="rotate(-90 107 163.963)" fill="#C7CBD8" fill-opacity="0.7"/>
<rect x="112" y="167.955" width="1" height="8.98203" transform="rotate(-180 112 167.955)" fill="#C7CBD8" fill-opacity="0.7"/>
<rect x="153" y="163.963" width="0.99839" height="9" transform="rotate(-90 153 163.963)" fill="#C7CBD8" fill-opacity="0.7"/>
<rect x="158" y="167.955" width="1" height="8.98203" transform="rotate(-180 158 167.955)" fill="#C7CBD8" fill-opacity="0.7"/>
<path fill-rule="evenodd" clip-rule="evenodd" d="M63.8865 163.241L65.1709 159.139H67.3376L66.1976 162.78L67.6832 162.484L67.8797 163.464L65.857 163.868L65.2048 165.951H68.9628L68.5114 167.79H63.5461L63.5463 167.789H62.4626L63.5459 164.329L62.4626 164.545L62.2661 163.565L63.8865 163.241Z" fill="#C7CBD8" fill-opacity="0.7"/>
<rect x="38" y="190.909" width="0.99839" height="9" transform="rotate(-90 38 190.909)" fill="#C7CBD8" fill-opacity="0.7"/>
<rect x="43" y="194.901" width="1" height="8.98203" transform="rotate(-180 43 194.901)" fill="#C7CBD8" fill-opacity="0.7"/>
<rect x="15" y="190.909" width="0.99839" height="9" transform="rotate(-90 15 190.909)" fill="#C7CBD8" fill-opacity="0.7"/>
<rect x="20" y="194.901" width="1" height="8.98203" transform="rotate(-180 20 194.901)" fill="#C7CBD8" fill-opacity="0.7"/>
<rect x="84" y="190.909" width="0.99839" height="9" transform="rotate(-90 84 190.909)" fill="#C7CBD8" fill-opacity="0.7"/>
<rect x="89" y="194.901" width="1" height="8.98203" transform="rotate(-180 89 194.901)" fill="#C7CBD8" fill-opacity="0.7"/>
<rect x="61" y="190.909" width="0.99839" height="9" transform="rotate(-90 61 190.909)" fill="#C7CBD8" fill-opacity="0.7"/>
<rect x="66" y="194.901" width="1" height="8.98203" transform="rotate(-180 66 194.901)" fill="#C7CBD8" fill-opacity="0.7"/>
<rect x="107" y="190.909" width="0.99839" height="9" transform="rotate(-90 107 190.909)" fill="#C7CBD8" fill-opacity="0.7"/>
<rect x="112" y="194.901" width="1" height="8.98203" transform="rotate(-180 112 194.901)" fill="#C7CBD8" fill-opacity="0.7"/>
<rect x="153" y="190.909" width="0.99839" height="9" transform="rotate(-90 153 190.909)" fill="#C7CBD8" fill-opacity="0.7"/>
<rect x="158" y="194.901" width="1" height="8.98203" transform="rotate(-180 158 194.901)" fill="#C7CBD8" fill-opacity="0.7"/>
<path fill-rule="evenodd" clip-rule="evenodd" d="M134.9 183.923L131 190.41L134.9 193.005L138.8 190.41L134.9 183.923ZM134.901 196.897L131.001 191.059L134.901 193.654L138.801 191.059L134.901 196.897Z" fill="#C7CBD8" fill-opacity="0.7"/>
<rect x="38" y="263.763" width="0.99839" height="9" transform="rotate(-90 38 263.763)" fill="#C7CBD8" fill-opacity="0.7"/>
<rect x="43" y="267.756" width="1" height="8.98203" transform="rotate(-180 43 267.756)" fill="#C7CBD8" fill-opacity="0.7"/>
<rect x="84" y="263.763" width="0.99839" height="9" transform="rotate(-90 84 263.763)" fill="#C7CBD8" fill-opacity="0.7"/>
<rect x="89" y="267.756" width="1" height="8.98203" transform="rotate(-180 89 267.756)" fill="#C7CBD8" fill-opacity="0.7"/>
<rect x="130" y="263.763" width="0.99839" height="9" transform="rotate(-90 130 263.763)" fill="#C7CBD8" fill-opacity="0.7"/>
<rect x="135" y="267.756" width="1" height="8.98203" transform="rotate(-180 135 267.756)" fill="#C7CBD8" fill-opacity="0.7"/>
<rect x="61" y="263.763" width="0.99839" height="9" transform="rotate(-90 61 263.763)" fill="#C7CBD8" fill-opacity="0.7"/>
<rect x="66" y="267.756" width="1" height="8.98203" transform="rotate(-180 66 267.756)" fill="#C7CBD8" fill-opacity="0.7"/>
<rect x="107" y="263.763" width="0.99839" height="9" transform="rotate(-90 107 263.763)" fill="#C7CBD8" fill-opacity="0.7"/>
<rect x="112" y="267.756" width="1" height="8.98203" transform="rotate(-180 112 267.756)" fill="#C7CBD8" fill-opacity="0.7"/>
<rect x="153" y="263.763" width="0.99839" height="9" transform="rotate(-90 153 263.763)" fill="#C7CBD8" fill-opacity="0.7"/>
<rect x="158" y="267.756" width="1" height="8.98203" transform="rotate(-180 158 267.756)" fill="#C7CBD8" fill-opacity="0.7"/>
<path fill-rule="evenodd" clip-rule="evenodd" d="M19.2099 265.319L21.4268 267.506H23.4199L19.9218 264.054C19.5286 263.667 18.8912 263.667 18.4981 264.054L15 267.506H16.9931L19.2099 265.319ZM19.2099 261.709L21.4268 259.522H23.4199L19.9218 262.973C19.5286 263.361 18.8912 263.361 18.4981 262.973L15 259.522H16.9931L19.2099 261.709Z" fill="#C7CBD8" fill-opacity="0.7"/>
<rect width="0.99839" height="9" transform="matrix(0 -1 -1 0 139 238.813)" fill="#C7CBD8" fill-opacity="0.7"/>
<rect width="1" height="8.98203" transform="matrix(1 0 0 -1 134 242.805)" fill="#C7CBD8" fill-opacity="0.7"/>
<rect width="0.99839" height="9" transform="matrix(0 -1 -1 0 162 238.813)" fill="#C7CBD8" fill-opacity="0.7"/>
<rect width="1" height="8.98203" transform="matrix(1 0 0 -1 157 242.805)" fill="#C7CBD8" fill-opacity="0.7"/>
<rect width="0.99839" height="9" transform="matrix(0 -1 -1 0 93 238.813)" fill="#C7CBD8" fill-opacity="0.7"/>
<rect width="1" height="8.98203" transform="matrix(1 0 0 -1 88 242.805)" fill="#C7CBD8" fill-opacity="0.7"/>
<rect width="0.99839" height="9" transform="matrix(0 -1 -1 0 47 238.813)" fill="#C7CBD8" fill-opacity="0.7"/>
<rect width="1" height="8.98203" transform="matrix(1 0 0 -1 42 242.805)" fill="#C7CBD8" fill-opacity="0.7"/>
<rect width="0.99839" height="9" transform="matrix(0 -1 -1 0 116 238.813)" fill="#C7CBD8" fill-opacity="0.7"/>
<rect width="1" height="8.98203" transform="matrix(1 0 0 -1 111 242.805)" fill="#C7CBD8" fill-opacity="0.7"/>
<rect width="0.99839" height="9" transform="matrix(0 -1 -1 0 70 238.813)" fill="#C7CBD8" fill-opacity="0.7"/>
<rect width="1" height="8.98203" transform="matrix(1 0 0 -1 65 242.805)" fill="#C7CBD8" fill-opacity="0.7"/>
<rect width="0.99839" height="9" transform="matrix(0 -1 -1 0 24 238.813)" fill="#C7CBD8" fill-opacity="0.7"/>
<rect width="1" height="8.98203" transform="matrix(1 0 0 -1 19 242.805)" fill="#C7CBD8" fill-opacity="0.7"/>
<rect x="38" y="290.71" width="0.99839" height="9" transform="rotate(-90 38 290.71)" fill="#C7CBD8" fill-opacity="0.7"/>
<rect x="43" y="294.702" width="1" height="8.98203" transform="rotate(-180 43 294.702)" fill="#C7CBD8" fill-opacity="0.7"/>
<rect x="15" y="290.71" width="0.99839" height="9" transform="rotate(-90 15 290.71)" fill="#C7CBD8" fill-opacity="0.7"/>
<rect x="20" y="294.702" width="1" height="8.98203" transform="rotate(-180 20 294.702)" fill="#C7CBD8" fill-opacity="0.7"/>
<rect x="84" y="290.71" width="0.99839" height="9" transform="rotate(-90 84 290.71)" fill="#C7CBD8" fill-opacity="0.7"/>
<rect x="89" y="294.702" width="1" height="8.98203" transform="rotate(-180 89 294.702)" fill="#C7CBD8" fill-opacity="0.7"/>
<rect x="130" y="290.71" width="0.99839" height="9" transform="rotate(-90 130 290.71)" fill="#C7CBD8" fill-opacity="0.7"/>
<rect x="135" y="294.702" width="1" height="8.98203" transform="rotate(-180 135 294.702)" fill="#C7CBD8" fill-opacity="0.7"/>
<rect x="107" y="290.71" width="0.99839" height="9" transform="rotate(-90 107 290.71)" fill="#C7CBD8" fill-opacity="0.7"/>
<rect x="112" y="294.702" width="1" height="8.98203" transform="rotate(-180 112 294.702)" fill="#C7CBD8" fill-opacity="0.7"/>
<rect x="153" y="290.71" width="0.99839" height="9" transform="rotate(-90 153 290.71)" fill="#C7CBD8" fill-opacity="0.7"/>
<rect x="158" y="294.702" width="1" height="8.98203" transform="rotate(-180 158 294.702)" fill="#C7CBD8" fill-opacity="0.7"/>
<path fill-rule="evenodd" clip-rule="evenodd" d="M63.8866 289.988L65.1709 285.886H67.3376L66.1977 289.526L67.6832 289.23L67.8797 290.21L65.8571 290.614L65.2048 292.697H68.9628L68.5114 294.536H63.5461L63.5462 294.535H62.4626L63.546 291.075L62.4626 291.292L62.2661 290.311L63.8866 289.988Z" fill="#C7CBD8" fill-opacity="0.7"/>
<rect x="38" y="317.656" width="0.99839" height="9" transform="rotate(-90 38 317.656)" fill="#C7CBD8" fill-opacity="0.7"/>
<rect x="43" y="321.648" width="1" height="8.98203" transform="rotate(-180 43 321.648)" fill="#C7CBD8" fill-opacity="0.7"/>
<rect x="15" y="317.656" width="0.99839" height="9" transform="rotate(-90 15 317.656)" fill="#C7CBD8" fill-opacity="0.7"/>
<rect x="20" y="321.648" width="1" height="8.98203" transform="rotate(-180 20 321.648)" fill="#C7CBD8" fill-opacity="0.7"/>
<rect x="84" y="317.656" width="0.99839" height="9" transform="rotate(-90 84 317.656)" fill="#C7CBD8" fill-opacity="0.7"/>
<rect x="89" y="321.648" width="1" height="8.98203" transform="rotate(-180 89 321.648)" fill="#C7CBD8" fill-opacity="0.7"/>
<rect x="61" y="317.656" width="0.99839" height="9" transform="rotate(-90 61 317.656)" fill="#C7CBD8" fill-opacity="0.7"/>
<rect x="66" y="321.648" width="1" height="8.98203" transform="rotate(-180 66 321.648)" fill="#C7CBD8" fill-opacity="0.7"/>
<rect x="107" y="317.656" width="0.99839" height="9" transform="rotate(-90 107 317.656)" fill="#C7CBD8" fill-opacity="0.7"/>
<rect x="112" y="321.648" width="1" height="8.98203" transform="rotate(-180 112 321.648)" fill="#C7CBD8" fill-opacity="0.7"/>
<rect x="153" y="317.656" width="0.99839" height="9" transform="rotate(-90 153 317.656)" fill="#C7CBD8" fill-opacity="0.7"/>
<rect x="158" y="321.648" width="1" height="8.98203" transform="rotate(-180 158 321.648)" fill="#C7CBD8" fill-opacity="0.7"/>
<path fill-rule="evenodd" clip-rule="evenodd" d="M134.9 310.67L131 317.157L134.9 319.751L138.8 317.157L134.9 310.67ZM134.901 323.644L131.001 317.805L134.901 320.4L138.801 317.805L134.901 323.644Z" fill="#C7CBD8" fill-opacity="0.7"/>
<rect x="38" y="214.861" width="0.99839" height="9" transform="rotate(-90 38 214.861)" fill="#C7CBD8" fill-opacity="0.7"/>
<rect x="43" y="218.854" width="1" height="8.98203" transform="rotate(-180 43 218.854)" fill="#C7CBD8" fill-opacity="0.7"/>
<rect x="15" y="214.861" width="0.99839" height="9" transform="rotate(-90 15 214.861)" fill="#C7CBD8" fill-opacity="0.7"/>
<rect x="20" y="218.854" width="1" height="8.98203" transform="rotate(-180 20 218.854)" fill="#C7CBD8" fill-opacity="0.7"/>
<rect x="61" y="214.861" width="0.99839" height="9" transform="rotate(-90 61 214.861)" fill="#C7CBD8" fill-opacity="0.7"/>
<rect x="66" y="218.854" width="1" height="8.98203" transform="rotate(-180 66 218.854)" fill="#C7CBD8" fill-opacity="0.7"/>
<rect x="107" y="214.861" width="0.99839" height="9" transform="rotate(-90 107 214.861)" fill="#C7CBD8" fill-opacity="0.7"/>
<rect x="112" y="218.854" width="1" height="8.98203" transform="rotate(-180 112 218.854)" fill="#C7CBD8" fill-opacity="0.7"/>
<rect x="130" y="214.861" width="0.99839" height="9" transform="rotate(-90 130 214.861)" fill="#C7CBD8" fill-opacity="0.7"/>
<rect x="135" y="218.854" width="1" height="8.98203" transform="rotate(-180 135 218.854)" fill="#C7CBD8" fill-opacity="0.7"/>
<rect x="153" y="214.861" width="0.99839" height="9" transform="rotate(-90 153 214.861)" fill="#C7CBD8" fill-opacity="0.7"/>
<rect x="158" y="218.854" width="1" height="8.98203" transform="rotate(-180 158 218.854)" fill="#C7CBD8" fill-opacity="0.7"/>
<path fill-rule="evenodd" clip-rule="evenodd" d="M92 215.942C92 217.317 90.8849 218.432 89.5093 218.432H87.2998V219.652H85.4998V218.432H84.0001V216.794H85.4998V211.608H84.0001V209.97H85.4998V208.873H87.2998V209.971H89.5093C90.8849 209.971 92 211.086 92 212.462C92 213.139 91.7299 213.753 91.2916 214.202C91.7299 214.651 92 215.265 92 215.942ZM87.2998 211.471H89.4374C89.9841 211.471 90.4272 211.914 90.4272 212.461C90.4272 213.005 89.9893 213.446 89.447 213.451H87.2998V211.471ZM87.2998 214.953H89.4753C90.0044 214.973 90.4272 215.408 90.4272 215.942C90.4272 216.488 89.9841 216.932 89.4374 216.932H87.2998V214.953Z" fill="#C7CBD8" fill-opacity="0.7"/>
<rect x="38" y="388.514" width="0.99839" height="9" transform="rotate(-90 38 388.514)" fill="#C7CBD8" fill-opacity="0.7"/>
<rect x="43" y="392.506" width="1" height="8.98203" transform="rotate(-180 43 392.506)" fill="#C7CBD8" fill-opacity="0.7"/>
<rect x="84" y="388.514" width="0.99839" height="9" transform="rotate(-90 84 388.514)" fill="#C7CBD8" fill-opacity="0.7"/>
<rect x="89" y="392.506" width="1" height="8.98203" transform="rotate(-180 89 392.506)" fill="#C7CBD8" fill-opacity="0.7"/>
<rect x="130" y="388.514" width="0.99839" height="9" transform="rotate(-90 130 388.514)" fill="#C7CBD8" fill-opacity="0.7"/>
<rect x="135" y="392.506" width="1" height="8.98203" transform="rotate(-180 135 392.506)" fill="#C7CBD8" fill-opacity="0.7"/>
<rect x="61" y="388.514" width="0.99839" height="9" transform="rotate(-90 61 388.514)" fill="#C7CBD8" fill-opacity="0.7"/>
<rect x="66" y="392.506" width="1" height="8.98203" transform="rotate(-180 66 392.506)" fill="#C7CBD8" fill-opacity="0.7"/>
<rect x="107" y="388.514" width="0.99839" height="9" transform="rotate(-90 107 388.514)" fill="#C7CBD8" fill-opacity="0.7"/>
<rect x="112" y="392.506" width="1" height="8.98203" transform="rotate(-180 112 392.506)" fill="#C7CBD8" fill-opacity="0.7"/>
<rect x="153" y="388.514" width="0.99839" height="9" transform="rotate(-90 153 388.514)" fill="#C7CBD8" fill-opacity="0.7"/>
<rect x="158" y="392.506" width="1" height="8.98203" transform="rotate(-180 158 392.506)" fill="#C7CBD8" fill-opacity="0.7"/>
<path fill-rule="evenodd" clip-rule="evenodd" d="M19.2099 390.069L21.4268 392.256H23.4199L19.9218 388.805C19.5286 388.417 18.8912 388.417 18.4981 388.805L15 392.256H16.9931L19.2099 390.069ZM19.2099 386.459L21.4268 384.272H23.4199L19.9218 387.724C19.5286 388.112 18.8912 388.112 18.4981 387.724L15 384.272H16.9931L19.2099 386.459Z" fill="#C7CBD8" fill-opacity="0.7"/>
<rect width="0.99839" height="9" transform="matrix(0 -1 -1 0 139 363.564)" fill="#C7CBD8" fill-opacity="0.7"/>
<rect width="1" height="8.98203" transform="matrix(1 0 0 -1 134 367.556)" fill="#C7CBD8" fill-opacity="0.7"/>
<rect width="0.99839" height="9" transform="matrix(0 -1 -1 0 162 363.564)" fill="#C7CBD8" fill-opacity="0.7"/>
<rect width="1" height="8.98203" transform="matrix(1 0 0 -1 157 367.556)" fill="#C7CBD8" fill-opacity="0.7"/>
<rect width="0.99839" height="9" transform="matrix(0 -1 -1 0 93 363.564)" fill="#C7CBD8" fill-opacity="0.7"/>
<rect width="1" height="8.98203" transform="matrix(1 0 0 -1 88 367.556)" fill="#C7CBD8" fill-opacity="0.7"/>
<rect width="0.99839" height="9" transform="matrix(0 -1 -1 0 47 363.564)" fill="#C7CBD8" fill-opacity="0.7"/>
<rect width="1" height="8.98203" transform="matrix(1 0 0 -1 42 367.556)" fill="#C7CBD8" fill-opacity="0.7"/>
<rect width="0.99839" height="9" transform="matrix(0 -1 -1 0 116 363.564)" fill="#C7CBD8" fill-opacity="0.7"/>
<rect width="1" height="8.98203" transform="matrix(1 0 0 -1 111 367.556)" fill="#C7CBD8" fill-opacity="0.7"/>
<rect width="0.99839" height="9" transform="matrix(0 -1 -1 0 70 363.564)" fill="#C7CBD8" fill-opacity="0.7"/>
<rect width="1" height="8.98203" transform="matrix(1 0 0 -1 65 367.556)" fill="#C7CBD8" fill-opacity="0.7"/>
<rect width="0.99839" height="9" transform="matrix(0 -1 -1 0 24 363.564)" fill="#C7CBD8" fill-opacity="0.7"/>
<rect width="1" height="8.98203" transform="matrix(1 0 0 -1 19 367.556)" fill="#C7CBD8" fill-opacity="0.7"/>
<rect x="38" y="415.46" width="0.99839" height="9" transform="rotate(-90 38 415.46)" fill="#C7CBD8" fill-opacity="0.7"/>
<rect x="43" y="419.452" width="1" height="8.98203" transform="rotate(-180 43 419.452)" fill="#C7CBD8" fill-opacity="0.7"/>
<rect x="15" y="415.46" width="0.99839" height="9" transform="rotate(-90 15 415.46)" fill="#C7CBD8" fill-opacity="0.7"/>
<rect x="20" y="419.452" width="1" height="8.98203" transform="rotate(-180 20 419.452)" fill="#C7CBD8" fill-opacity="0.7"/>
<rect x="84" y="415.46" width="0.99839" height="9" transform="rotate(-90 84 415.46)" fill="#C7CBD8" fill-opacity="0.7"/>
<rect x="89" y="419.452" width="1" height="8.98203" transform="rotate(-180 89 419.452)" fill="#C7CBD8" fill-opacity="0.7"/>
<rect x="130" y="415.46" width="0.99839" height="9" transform="rotate(-90 130 415.46)" fill="#C7CBD8" fill-opacity="0.7"/>
<rect x="135" y="419.452" width="1" height="8.98203" transform="rotate(-180 135 419.452)" fill="#C7CBD8" fill-opacity="0.7"/>
<rect x="107" y="415.46" width="0.99839" height="9" transform="rotate(-90 107 415.46)" fill="#C7CBD8" fill-opacity="0.7"/>
<rect x="112" y="419.452" width="1" height="8.98203" transform="rotate(-180 112 419.452)" fill="#C7CBD8" fill-opacity="0.7"/>
<rect x="153" y="415.46" width="0.99839" height="9" transform="rotate(-90 153 415.46)" fill="#C7CBD8" fill-opacity="0.7"/>
<rect x="158" y="419.452" width="1" height="8.98203" transform="rotate(-180 158 419.452)" fill="#C7CBD8" fill-opacity="0.7"/>
<path fill-rule="evenodd" clip-rule="evenodd" d="M63.8865 414.738L65.1709 410.636H67.3376L66.1976 414.277L67.6832 413.98L67.8797 414.961L65.857 415.365L65.2048 417.448H68.9628L68.5114 419.286H63.5461L63.5463 419.286H62.4626L63.5459 415.826L62.4626 416.042L62.2661 415.062L63.8865 414.738Z" fill="#C7CBD8" fill-opacity="0.7"/>
<rect x="38" y="339.612" width="0.99839" height="9" transform="rotate(-90 38 339.612)" fill="#C7CBD8" fill-opacity="0.7"/>
<rect x="43" y="343.604" width="1" height="8.98203" transform="rotate(-180 43 343.604)" fill="#C7CBD8" fill-opacity="0.7"/>
<rect x="15" y="339.612" width="0.99839" height="9" transform="rotate(-90 15 339.612)" fill="#C7CBD8" fill-opacity="0.7"/>
<rect x="20" y="343.604" width="1" height="8.98203" transform="rotate(-180 20 343.604)" fill="#C7CBD8" fill-opacity="0.7"/>
<rect x="61" y="339.612" width="0.99839" height="9" transform="rotate(-90 61 339.612)" fill="#C7CBD8" fill-opacity="0.7"/>
<rect x="66" y="343.604" width="1" height="8.98203" transform="rotate(-180 66 343.604)" fill="#C7CBD8" fill-opacity="0.7"/>
<rect x="107" y="339.612" width="0.99839" height="9" transform="rotate(-90 107 339.612)" fill="#C7CBD8" fill-opacity="0.7"/>
<rect x="112" y="343.604" width="1" height="8.98203" transform="rotate(-180 112 343.604)" fill="#C7CBD8" fill-opacity="0.7"/>
<rect x="130" y="339.612" width="0.99839" height="9" transform="rotate(-90 130 339.612)" fill="#C7CBD8" fill-opacity="0.7"/>
<rect x="135" y="343.604" width="1" height="8.98203" transform="rotate(-180 135 343.604)" fill="#C7CBD8" fill-opacity="0.7"/>
<rect x="153" y="339.612" width="0.99839" height="9" transform="rotate(-90 153 339.612)" fill="#C7CBD8" fill-opacity="0.7"/>
<rect x="158" y="343.604" width="1" height="8.98203" transform="rotate(-180 158 343.604)" fill="#C7CBD8" fill-opacity="0.7"/>
<path fill-rule="evenodd" clip-rule="evenodd" d="M92 340.692C92 342.067 90.8849 343.183 89.5093 343.183H87.2998V344.402H85.4998V343.184H84.0001V341.545H85.4998V336.36H84.0001V334.722H85.4998V333.624H87.2998V334.722H89.5093C90.8849 334.722 92 335.837 92 337.212C92 337.889 91.7299 338.503 91.2917 338.952C91.7299 339.401 92 340.015 92 340.692ZM87.2998 336.221H89.4374C89.9841 336.221 90.4272 336.665 90.4272 337.211C90.4272 337.755 89.9893 338.196 89.447 338.201H87.2998V336.221ZM87.2998 339.703H89.4753C90.0044 339.723 90.4272 340.158 90.4272 340.692C90.4272 341.239 89.9841 341.682 89.4374 341.682H87.2998V339.703Z" fill="#C7CBD8" fill-opacity="0.7"/>
<g filter="url(#filter0_d)">
<ellipse cx="235.931" cy="440.164" rx="226.931" ry="6.51065" fill="#C4C4C4" fill-opacity="0.01"/>
</g>
<g filter="url(#filter1_d)">
<path d="M97.2802 445.745L372.717 445.745C380.879 445.745 388.661 444.127 395.761 441.196C395.761 441.196 300.236 393.194 235.465 393.659C170.694 394.124 74.2363 441.196 74.2363 441.196C81.3362 444.127 89.1189 445.745 97.2802 445.745Z" fill="#C4C4C4" fill-opacity="0.01"/>
</g>
<path d="M76.5317 16.1834C76.5317 7.55903 83.5395 0.567627 92.184 0.567627L379.794 0.567627C388.438 0.567627 395.446 7.55903 395.446 16.1834L395.446 430.001C395.446 438.625 388.438 445.616 379.794 445.616L92.184 445.616C83.5395 445.616 76.5317 438.625 76.5317 430.001L76.5317 16.1834Z" fill="#F9FAFA"/>
<path d="M76.5317 16.1834C76.5317 7.55903 83.5395 0.567627 92.184 0.567627L379.794 0.567627C388.438 0.567627 395.446 7.55903 395.446 16.1834L395.446 430.001C395.446 438.625 388.438 445.616 379.794 445.616L92.184 445.616C83.5395 445.616 76.5317 438.625 76.5317 430.001L76.5317 16.1834Z" fill="#F9F9F9"/>
<path d="M77.8145 17.5843C77.8145 9.01833 84.7699 2.07425 93.3499 2.07425L378.813 2.07425C387.393 2.07425 394.348 9.01834 394.348 17.5843L394.348 428.601C394.348 437.167 387.393 444.111 378.813 444.111L93.3499 444.111C84.7699 444.111 77.8145 437.167 77.8145 428.601L77.8145 17.5843Z" stroke="#E7E7E7" stroke-width="0.852823"/>
<rect x="94.1396" y="37.6552" width="283.697" height="370.874" fill="white"/>
<rect x="92.166" y="36.7882" width="285.71" height="371.645" fill="#F5F5F5"/>
<path d="M241.859 21.0631C241.859 22.6802 240.545 23.9911 238.924 23.9911C237.303 23.9911 235.989 22.6802 235.989 21.0631C235.989 19.4461 237.303 18.1352 238.924 18.1352C240.545 18.1352 241.859 19.4461 241.859 21.0631Z" fill="url(#paint0_linear)"/>
<path d="M240.645 21.0877C240.645 22.0235 239.885 22.782 238.948 22.782C238.01 22.782 237.25 22.0235 237.25 21.0877C237.25 20.1519 238.01 19.3933 238.948 19.3933C239.885 19.3933 240.645 20.1519 240.645 21.0877Z" fill="#F9FAFA"/>
<path fill-rule="evenodd" clip-rule="evenodd" d="M236.048 382.982C242.468 382.982 247.673 377.873 247.673 371.571C247.673 365.268 242.468 360.159 236.048 360.159C229.628 360.159 224.423 365.268 224.423 371.571C224.423 377.873 229.628 382.982 236.048 382.982Z" fill="url(#paint1_linear)"/>
<path fill-rule="evenodd" clip-rule="evenodd" d="M236.046 381.461C241.61 381.461 246.121 377.033 246.121 371.571C246.121 366.109 241.61 361.681 236.046 361.681C230.482 361.681 225.972 366.109 225.972 371.571C225.972 377.033 230.482 381.461 236.046 381.461Z" fill="#FAFAFA"/>
<rect x="92.4794" y="36.3618" width="286.827" height="372.856" fill="#F5F5F5" stroke="#DCDCDC" stroke-width="0.852823"/>
<mask id="mask0" mask-type="alpha" maskUnits="userSpaceOnUse" x="92" y="36" width="287" height="373">
<rect x="92.9058" y="36.7882" width="285.975" height="372.003" fill="#F5F5F5"/>
</mask>
<g mask="url(#mask0)">
<rect x="92.9058" y="36.7882" width="285.975" height="372.003" fill="#F5F5F5"/>
<mask id="mask1" mask-type="alpha" maskUnits="userSpaceOnUse" x="93" y="-6" width="286" height="415">
<rect x="93" y="-5.35571" width="285.729" height="414.012" fill="#F5F5F5"/>
</mask>
<g mask="url(#mask1)">
<path d="M93 37L379 37L379 468L93 468L93 37Z" fill="#515DF6"/>
<path d="M93 37L379 37L379 468L93 468L93 37Z" fill="#515DF6"/>
</g>
</g>
<rect x="198" y="197.873" width="0.99839" height="9" transform="rotate(-90 198 197.873)" fill="white"/>
<rect x="203" y="201.865" width="1" height="8.98203" transform="rotate(-180 203 201.865)" fill="white"/>
<rect x="244" y="197.873" width="0.99839" height="9" transform="rotate(-90 244 197.873)" fill="white"/>
<rect x="249" y="201.865" width="1" height="8.98203" transform="rotate(-180 249 201.865)" fill="white"/>
<rect x="221" y="197.873" width="0.99839" height="9" transform="rotate(-90 221 197.873)" fill="white"/>
<rect x="226" y="201.865" width="1" height="8.98203" transform="rotate(-180 226 201.865)" fill="white"/>
<path fill-rule="evenodd" clip-rule="evenodd" d="M179.21 199.429L181.427 201.616H183.42L179.922 198.164C179.529 197.776 178.891 197.776 178.498 198.164L175 201.616H176.993L179.21 199.429ZM179.21 195.819L181.427 193.631H183.42L179.922 197.083C179.529 197.471 178.891 197.471 178.498 197.083L175 193.631H176.993L179.21 195.819Z" fill="white"/>
<rect width="0.99839" height="9" transform="matrix(0 -1 -1 0 253 172.923)" fill="white"/>
<rect width="1" height="8.98203" transform="matrix(1 0 0 -1 248 176.915)" fill="white"/>
<rect width="0.99839" height="9" transform="matrix(0 -1 -1 0 207 172.923)" fill="white"/>
<rect width="1" height="8.98203" transform="matrix(1 0 0 -1 202 176.915)" fill="white"/>
<rect width="0.99839" height="9" transform="matrix(0 -1 -1 0 230 172.923)" fill="white"/>
<rect width="1" height="8.98203" transform="matrix(1 0 0 -1 225 176.915)" fill="white"/>
<rect width="0.99839" height="9" transform="matrix(0 -1 -1 0 184 172.923)" fill="white"/>
<rect width="1" height="8.98203" transform="matrix(1 0 0 -1 179 176.915)" fill="white"/>
<rect x="198" y="224.819" width="0.99839" height="9" transform="rotate(-90 198 224.819)" fill="white"/>
<rect x="203" y="228.812" width="1" height="8.98203" transform="rotate(-180 203 228.812)" fill="white"/>
<rect x="175" y="224.819" width="0.99839" height="9" transform="rotate(-90 175 224.819)" fill="white"/>
<rect x="180" y="228.812" width="1" height="8.98203" transform="rotate(-180 180 228.812)" fill="white"/>
<rect x="244" y="224.819" width="0.99839" height="9" transform="rotate(-90 244 224.819)" fill="white"/>
<rect x="249" y="228.812" width="1" height="8.98203" transform="rotate(-180 249 228.812)" fill="white"/>
<path fill-rule="evenodd" clip-rule="evenodd" d="M223.886 224.098L225.171 219.996H227.338L226.198 223.636L227.683 223.34L227.88 224.32L225.857 224.724L225.205 226.807H228.963L228.511 228.646H223.546L223.546 228.645H222.463L223.546 225.185L222.463 225.402L222.266 224.421L223.886 224.098Z" fill="white"/>
<path d="M157.352 386.279H163.336V382.297C166.093 381.813 168.301 380.698 169.958 378.953C171.615 377.193 172.444 375.029 172.444 372.463C172.444 370.189 171.821 368.363 170.574 366.985C169.342 365.606 167.325 364.513 164.524 363.707L158.936 362.123C157.528 361.727 156.501 361.257 155.856 360.715C155.211 360.157 154.888 359.497 154.888 358.735C154.888 357.693 155.387 356.828 156.384 356.139C157.396 355.449 158.628 355.127 160.08 355.171C161.605 355.215 162.903 355.677 163.974 356.557C165.059 357.422 165.756 358.559 166.064 359.967L172.224 358.867C171.608 356.447 170.537 354.481 169.012 352.971C167.501 351.445 165.609 350.433 163.336 349.935V345.843H157.352V349.803C154.741 350.228 152.688 351.255 151.192 352.883C149.696 354.511 148.948 356.564 148.948 359.043C148.948 363.164 151.207 365.921 155.724 367.315L163.556 369.735C165.521 370.38 166.504 371.436 166.504 372.903C166.504 374.047 165.954 375.007 164.854 375.785C163.769 376.562 162.397 376.951 160.74 376.951C158.98 376.951 157.462 376.437 156.186 375.411C154.925 374.384 154.096 373.005 153.7 371.275L147.76 372.199C148.156 374.868 149.197 377.083 150.884 378.843C152.585 380.603 154.741 381.739 157.352 382.253V386.279Z" fill="#EFF0F3"/>
<path d="M301.352 290.47H307.336V286.488C310.093 286.004 312.301 284.89 313.958 283.144C315.615 281.384 316.444 279.221 316.444 276.654C316.444 274.381 315.821 272.555 314.574 271.176C313.342 269.798 311.325 268.705 308.524 267.898L302.936 266.314C301.528 265.918 300.501 265.449 299.856 264.906C299.211 264.349 298.888 263.689 298.888 262.926C298.888 261.885 299.387 261.02 300.384 260.33C301.396 259.641 302.628 259.318 304.08 259.362C305.605 259.406 306.903 259.868 307.974 260.748C309.059 261.614 309.756 262.75 310.064 264.158L316.224 263.058C315.608 260.638 314.537 258.673 313.012 257.162C311.501 255.637 309.609 254.625 307.336 254.126V250.034H301.352V253.994C298.741 254.42 296.688 255.446 295.192 257.074C293.696 258.702 292.948 260.756 292.948 263.234C292.948 267.356 295.207 270.113 299.724 271.506L307.556 273.926C309.521 274.572 310.504 275.628 310.504 277.094C310.504 278.238 309.954 279.199 308.854 279.976C307.769 280.754 306.397 281.142 304.74 281.142C302.98 281.142 301.462 280.629 300.186 279.602C298.925 278.576 298.096 277.197 297.7 275.466L291.76 276.39C292.156 279.06 293.197 281.274 294.884 283.034C296.585 284.794 298.741 285.931 301.352 286.444V290.47Z" fill="#EFF0F3"/>
<path d="M334 210.144C334 226.677 320.57 240.082 304 240.082C287.43 240.082 274 226.677 274 210.144C274 193.612 287.43 180.206 304 180.206C320.57 180.206 334 193.612 334 210.144Z" fill="#C7CBD8" stroke="#C7CBD8" stroke-width="2"/>
<path d="M326.25 210.144C326.25 222.405 316.29 232.348 304 232.348C291.71 232.348 281.75 222.405 281.75 210.144C281.75 197.884 291.71 187.941 304 187.941C316.29 187.941 326.25 197.884 326.25 210.144Z" fill="#E6559A" stroke="#E6559A" stroke-width="2"/>
<ellipse cx="304" cy="210.144" rx="15.5" ry="15.469" fill="#7DC7A8"/>
<path d="M190 305.953C190 322.485 176.57 335.891 160 335.891C143.43 335.891 130 322.485 130 305.953C130 289.42 143.43 276.015 160 276.015C176.57 276.015 190 289.42 190 305.953Z" fill="#C7CBD8" stroke="#C7CBD8" stroke-width="2"/>
<path d="M182.25 305.953C182.25 318.213 172.29 328.156 160 328.156C147.71 328.156 137.75 318.213 137.75 305.953C137.75 293.692 147.71 283.749 160 283.749C172.29 283.749 182.25 293.692 182.25 305.953Z" fill="#E6559A" stroke="#E6559A" stroke-width="2"/>
<ellipse cx="160" cy="305.953" rx="15.5" ry="15.469" fill="#7DC7A8"/>
<path d="M160 304.456L213.5 246.571L245.5 278.508L304 211.142" stroke="#EFF0F3" stroke-width="8" stroke-linecap="round" stroke-linejoin="round"/>
<path d="M274.592 160.058H277.112V155.906H281.24V153.386H277.112V149.258H274.592V153.386H270.44V155.906H274.592V160.058ZM289.408 163.61C290.496 163.61 291.496 163.358 292.408 162.854C293.32 162.342 294.052 161.654 294.604 160.79C295.156 159.918 295.432 158.938 295.432 157.85C295.432 157.042 295.284 156.278 294.988 155.558C294.7 154.83 294.272 154.198 293.704 153.662C293.136 153.118 292.44 152.726 291.616 152.486L295.12 149.09V146.018H284.32V149.09H291.256L286.6 152.954L288.064 155.522C288.496 155.266 288.944 155.138 289.408 155.138C290.2 155.138 290.848 155.406 291.352 155.942C291.864 156.47 292.12 157.106 292.12 157.85C292.12 158.346 291.996 158.798 291.748 159.206C291.508 159.614 291.18 159.938 290.764 160.178C290.356 160.418 289.904 160.538 289.408 160.538C288.832 160.538 288.296 160.366 287.8 160.022C287.312 159.67 286.984 159.178 286.816 158.546L283.648 159.386C283.896 160.242 284.308 160.986 284.884 161.618C285.468 162.25 286.152 162.742 286.936 163.094C287.72 163.438 288.544 163.61 289.408 163.61ZM304.955 163.658C306.235 163.658 307.355 163.39 308.315 162.854C309.275 162.318 310.023 161.57 310.559 160.61C311.095 159.65 311.363 158.53 311.363 157.25V152.066C311.363 150.786 311.095 149.666 310.559 148.706C310.023 147.746 309.275 146.998 308.315 146.462C307.355 145.926 306.235 145.658 304.955 145.658C303.675 145.658 302.555 145.926 301.595 146.462C300.635 146.998 299.887 147.746 299.351 148.706C298.815 149.666 298.547 150.786 298.547 152.066V157.25C298.547 158.53 298.815 159.65 299.351 160.61C299.887 161.57 300.635 162.318 301.595 162.854C302.555 163.39 303.675 163.658 304.955 163.658ZM304.955 160.562C304.379 160.562 303.859 160.426 303.395 160.154C302.931 159.882 302.563 159.514 302.291 159.05C302.019 158.586 301.883 158.066 301.883 157.49V151.802C301.883 151.226 302.019 150.706 302.291 150.242C302.563 149.778 302.931 149.41 303.395 149.138C303.859 148.866 304.379 148.73 304.955 148.73C305.531 148.73 306.051 148.866 306.515 149.138C306.979 149.41 307.347 149.778 307.619 150.242C307.891 150.706 308.027 151.226 308.027 151.802V157.49C308.027 158.066 307.891 158.586 307.619 159.05C307.347 159.514 306.979 159.882 306.515 160.154C306.051 160.426 305.531 160.562 304.955 160.562Z" fill="#7DC7A8"/>
<rect width="3.4482" height="30.4591" rx="1.7241" transform="matrix(0.707813 0.7064 0.707813 -0.7064 318 163.796)" fill="#7DC7A8"/>
<path fill-rule="evenodd" clip-rule="evenodd" d="M323.466 152.902C326.325 152.902 328.643 150.589 328.643 147.735C328.643 144.881 326.325 142.568 323.466 142.568C320.606 142.568 318.288 144.881 318.288 147.735C318.288 150.589 320.606 152.902 323.466 152.902ZM323.465 150.03C324.736 150.03 325.766 149.002 325.766 147.734C325.766 146.466 324.736 145.437 323.465 145.437C322.194 145.437 321.164 146.466 321.164 147.734C321.164 149.002 322.194 150.03 323.465 150.03Z" fill="#7DC7A8"/>
<path fill-rule="evenodd" clip-rule="evenodd" d="M336.697 166.106C339.556 166.106 341.874 163.793 341.874 160.939C341.874 158.085 339.556 155.772 336.697 155.772C333.837 155.772 331.519 158.085 331.519 160.939C331.519 163.793 333.837 166.106 336.697 166.106ZM336.696 163.235C337.967 163.235 338.997 162.207 338.997 160.938C338.997 159.67 337.967 158.642 336.696 158.642C335.425 158.642 334.395 159.67 334.395 160.938C334.395 162.207 335.425 163.235 336.696 163.235Z" fill="#7DC7A8"/>
<path d="M221.955 320.546L224.142 328.364C224.212 328.615 224.25 328.874 224.254 329.136L224.46 340.983C224.487 342.557 223.32 343.985 221.643 344.433L202.844 349.446C202.274 349.598 201.678 349.626 201.105 349.528C200.531 349.431 199.997 349.21 199.545 348.884L183.969 337.635C182.388 336.493 182.175 334.361 183.494 332.872C184.813 331.383 187.163 331.102 188.745 332.244L192.596 335.025L186.31 312.548C185.807 310.749 187.018 308.859 189.014 308.327C191.011 307.794 193.037 308.821 193.54 310.62L198.096 326.908L198.819 326.715L197.908 323.458C197.404 321.659 198.615 319.769 200.612 319.236C202.608 318.704 204.635 319.731 205.138 321.53L206.049 324.787L206.772 324.595L206.225 322.64C205.722 320.841 206.933 318.951 208.929 318.418C210.926 317.886 212.952 318.913 213.455 320.712L214.002 322.667L214.725 322.474C214.222 320.675 215.432 318.785 217.429 318.252C219.426 317.72 221.452 318.747 221.955 320.546Z" fill="#EFF0F3"/>
<path fill-rule="evenodd" clip-rule="evenodd" d="M230.334 72.0911C229.782 72.0911 229.334 72.5388 229.334 73.0911V93.0213C229.334 93.0312 229.333 93.0412 229.333 93.0513V96.3739C229.333 96.9262 229.781 97.3739 230.333 97.3739H247.889C248.441 97.3739 248.889 96.9262 248.889 96.3739V93.0513C248.889 92.499 248.441 92.0513 247.889 92.0513H234.667V73.0911C234.667 72.5388 234.22 72.0911 233.667 72.0911H230.334Z" fill="#E6559A"/>
<path d="M264.808 80.8124C264.912 80.0505 264.15 79.4622 263.437 79.7533L252.967 84.0269C252.253 84.3181 252.123 85.2708 252.732 85.7417L261.676 92.6547C262.285 93.1255 263.177 92.7612 263.281 91.9991L264.808 80.8124Z" fill="white"/>
<path fill-rule="evenodd" clip-rule="evenodd" d="M204 93.3819C204 77.9636 216.561 65.4458 232 65.4458C245.883 65.4458 257.44 75.5681 259.627 88.8194H263.675C261.452 73.3429 248.089 61.4458 232 61.4458C214.362 61.4458 200 75.7441 200 93.3819C200 111.02 214.362 125.318 232 125.318C247.45 125.318 260.387 114.346 263.358 99.769H259.263C256.362 112.114 245.239 121.318 232 121.318C216.561 121.318 204 108.8 204 93.3819Z" fill="white"/>
<defs>
<filter id="filter0_d" x="0.573337" y="425.227" width="470.715" height="29.8746" filterUnits="userSpaceOnUse" color-interpolation-filters="sRGB">
<feFlood flood-opacity="0" result="BackgroundImageFix"/>
<feColorMatrix in="SourceAlpha" type="matrix" values="0 0 0 0 0 0 0 0 0 0 0 0 0 0 0 0 0 0 127 0"/>
<feOffset/>
<feGaussianBlur stdDeviation="4.21333"/>
<feColorMatrix type="matrix" values="0 0 0 0 0 0 0 0 0 0 0 0 0 0 0 0 0 0 0.08 0"/>
<feBlend mode="normal" in2="BackgroundImageFix" result="effect1_dropShadow"/>
<feBlend mode="normal" in="SourceGraphic" in2="effect1_dropShadow" result="shape"/>
</filter>
<filter id="filter1_d" x="67.9163" y="387.336" width="334.165" height="64.7287" filterUnits="userSpaceOnUse" color-interpolation-filters="sRGB">
<feFlood flood-opacity="0" result="BackgroundImageFix"/>
<feColorMatrix in="SourceAlpha" type="matrix" values="0 0 0 0 0 0 0 0 0 0 0 0 0 0 0 0 0 0 127 0"/>
<feOffset/>
<feGaussianBlur stdDeviation="3.16"/>
<feColorMatrix type="matrix" values="0 0 0 0 0 0 0 0 0 0 0 0 0 0 0 0 0 0 0.33 0"/>
<feBlend mode="normal" in2="BackgroundImageFix" result="effect1_dropShadow"/>
<feBlend mode="normal" in="SourceGraphic" in2="effect1_dropShadow" result="shape"/>
</filter>
<linearGradient id="paint0_linear" x1="241.859" y1="23.9911" x2="241.859" y2="18.1352" gradientUnits="userSpaceOnUse">
<stop stop-color="#EBEBEB"/>
<stop offset="1" stop-color="#C8C8C8"/>
</linearGradient>
<linearGradient id="paint1_linear" x1="247.673" y1="382.982" x2="247.673" y2="360.159" gradientUnits="userSpaceOnUse">
<stop stop-color="#EBEBEB"/>
<stop offset="1" stop-color="#C8C8C8"/>
</linearGradient>
</defs>
</svg>
