<svg width="625" height="687" viewBox="0 0 625 687" fill="none" xmlns="http://www.w3.org/2000/svg">
<rect x="104" y="181.306" width="0.994901" height="9" transform="rotate(-90 104 181.306)" fill="#C7CBD8" fill-opacity="0.7"/>
<rect x="109" y="185.285" width="1" height="8.95411" transform="rotate(-180 109 185.285)" fill="#C7CBD8" fill-opacity="0.7"/>
<rect x="150" y="181.306" width="0.994901" height="9" transform="rotate(-90 150 181.306)" fill="#C7CBD8" fill-opacity="0.7"/>
<rect x="155" y="185.285" width="1" height="8.95411" transform="rotate(-180 155 185.285)" fill="#C7CBD8" fill-opacity="0.7"/>
<rect x="196" y="181.306" width="0.994901" height="9" transform="rotate(-90 196 181.306)" fill="#C7CBD8" fill-opacity="0.7"/>
<rect x="201" y="185.285" width="1" height="8.95411" transform="rotate(-180 201 185.285)" fill="#C7CBD8" fill-opacity="0.7"/>
<rect x="127" y="181.306" width="0.994901" height="9" transform="rotate(-90 127 181.306)" fill="#C7CBD8" fill-opacity="0.7"/>
<rect x="132" y="185.285" width="1" height="8.95411" transform="rotate(-180 132 185.285)" fill="#C7CBD8" fill-opacity="0.7"/>
<rect x="173" y="181.306" width="0.994901" height="9" transform="rotate(-90 173 181.306)" fill="#C7CBD8" fill-opacity="0.7"/>
<rect x="178" y="185.285" width="1" height="8.95411" transform="rotate(-180 178 185.285)" fill="#C7CBD8" fill-opacity="0.7"/>
<rect x="219" y="181.306" width="0.994901" height="9" transform="rotate(-90 219 181.306)" fill="#C7CBD8" fill-opacity="0.7"/>
<rect x="224" y="185.285" width="1" height="8.95411" transform="rotate(-180 224 185.285)" fill="#C7CBD8" fill-opacity="0.7"/>
<path fill-rule="evenodd" clip-rule="evenodd" d="M85.2099 182.859L87.4236 185.037H89.4197L85.9228 181.597C85.529 181.21 84.8907 181.21 84.4969 181.597L81 185.037H82.9962L85.2099 182.859ZM85.2099 179.255L87.4236 177.077H89.4197L85.9228 180.517C85.529 180.904 84.8907 180.904 84.4969 180.517L81 177.077H82.9962L85.2099 179.255Z" fill="#C7CBD8" fill-opacity="0.7"/>
<rect width="0.994901" height="9" transform="matrix(0 -1 -1 0 205 156.433)" fill="#C7CBD8" fill-opacity="0.7"/>
<rect width="1" height="8.95411" transform="matrix(1 0 0 -1 200 160.413)" fill="#C7CBD8" fill-opacity="0.7"/>
<rect width="0.994901" height="9" transform="matrix(0 -1 -1 0 228 156.433)" fill="#C7CBD8" fill-opacity="0.7"/>
<rect width="1" height="8.95411" transform="matrix(1 0 0 -1 223 160.413)" fill="#C7CBD8" fill-opacity="0.7"/>
<rect width="0.994901" height="9" transform="matrix(0 -1 -1 0 159 156.433)" fill="#C7CBD8" fill-opacity="0.7"/>
<rect width="1" height="8.95411" transform="matrix(1 0 0 -1 154 160.413)" fill="#C7CBD8" fill-opacity="0.7"/>
<rect width="0.994901" height="9" transform="matrix(0 -1 -1 0 113 156.433)" fill="#C7CBD8" fill-opacity="0.7"/>
<rect width="1" height="8.95411" transform="matrix(1 0 0 -1 108 160.413)" fill="#C7CBD8" fill-opacity="0.7"/>
<rect width="0.994901" height="9" transform="matrix(0 -1 -1 0 182 156.433)" fill="#C7CBD8" fill-opacity="0.7"/>
<rect width="1" height="8.95411" transform="matrix(1 0 0 -1 177 160.413)" fill="#C7CBD8" fill-opacity="0.7"/>
<rect width="0.994901" height="9" transform="matrix(0 -1 -1 0 136 156.433)" fill="#C7CBD8" fill-opacity="0.7"/>
<rect width="1" height="8.95411" transform="matrix(1 0 0 -1 131 160.413)" fill="#C7CBD8" fill-opacity="0.7"/>
<rect width="0.994901" height="9" transform="matrix(0 -1 -1 0 90 156.433)" fill="#C7CBD8" fill-opacity="0.7"/>
<rect width="1" height="8.95411" transform="matrix(1 0 0 -1 85 160.413)" fill="#C7CBD8" fill-opacity="0.7"/>
<rect x="104" y="208.168" width="0.994901" height="9" transform="rotate(-90 104 208.168)" fill="#C7CBD8" fill-opacity="0.7"/>
<rect x="109" y="212.148" width="1" height="8.95411" transform="rotate(-180 109 212.148)" fill="#C7CBD8" fill-opacity="0.7"/>
<rect x="81" y="208.168" width="0.994901" height="9" transform="rotate(-90 81 208.168)" fill="#C7CBD8" fill-opacity="0.7"/>
<rect x="86" y="212.148" width="1" height="8.95411" transform="rotate(-180 86 212.148)" fill="#C7CBD8" fill-opacity="0.7"/>
<rect x="150" y="208.168" width="0.994901" height="9" transform="rotate(-90 150 208.168)" fill="#C7CBD8" fill-opacity="0.7"/>
<rect x="155" y="212.148" width="1" height="8.95411" transform="rotate(-180 155 212.148)" fill="#C7CBD8" fill-opacity="0.7"/>
<rect x="196" y="208.168" width="0.994901" height="9" transform="rotate(-90 196 208.168)" fill="#C7CBD8" fill-opacity="0.7"/>
<rect x="201" y="212.148" width="1" height="8.95411" transform="rotate(-180 201 212.148)" fill="#C7CBD8" fill-opacity="0.7"/>
<rect x="173" y="208.168" width="0.994901" height="9" transform="rotate(-90 173 208.168)" fill="#C7CBD8" fill-opacity="0.7"/>
<rect x="178" y="212.148" width="1" height="8.95411" transform="rotate(-180 178 212.148)" fill="#C7CBD8" fill-opacity="0.7"/>
<rect x="219" y="208.168" width="0.994901" height="9" transform="rotate(-90 219 208.168)" fill="#C7CBD8" fill-opacity="0.7"/>
<rect x="224" y="212.148" width="1" height="8.95411" transform="rotate(-180 224 212.148)" fill="#C7CBD8" fill-opacity="0.7"/>
<path fill-rule="evenodd" clip-rule="evenodd" d="M129.888 207.446L131.171 203.36H133.338L132.199 206.986L133.682 206.69L133.879 207.671L131.857 208.073L131.205 210.15H134.963L134.511 211.982H130.629L130.629 211.982H128.463L129.546 208.533L128.463 208.749L128.266 207.768L129.888 207.446Z" fill="#C7CBD8" fill-opacity="0.7"/>
<rect x="104" y="235.031" width="0.994901" height="9" transform="rotate(-90 104 235.031)" fill="#C7CBD8" fill-opacity="0.7"/>
<rect x="109" y="239.01" width="1" height="8.95411" transform="rotate(-180 109 239.01)" fill="#C7CBD8" fill-opacity="0.7"/>
<rect x="81" y="235.031" width="0.994901" height="9" transform="rotate(-90 81 235.031)" fill="#C7CBD8" fill-opacity="0.7"/>
<rect x="86" y="239.01" width="1" height="8.95411" transform="rotate(-180 86 239.01)" fill="#C7CBD8" fill-opacity="0.7"/>
<rect x="150" y="235.031" width="0.994901" height="9" transform="rotate(-90 150 235.031)" fill="#C7CBD8" fill-opacity="0.7"/>
<rect x="155" y="239.01" width="1" height="8.95411" transform="rotate(-180 155 239.01)" fill="#C7CBD8" fill-opacity="0.7"/>
<rect x="127" y="235.031" width="0.994901" height="9" transform="rotate(-90 127 235.031)" fill="#C7CBD8" fill-opacity="0.7"/>
<rect x="132" y="239.01" width="1" height="8.95411" transform="rotate(-180 132 239.01)" fill="#C7CBD8" fill-opacity="0.7"/>
<rect x="173" y="235.031" width="0.994901" height="9" transform="rotate(-90 173 235.031)" fill="#C7CBD8" fill-opacity="0.7"/>
<rect x="178" y="239.01" width="1" height="8.95411" transform="rotate(-180 178 239.01)" fill="#C7CBD8" fill-opacity="0.7"/>
<rect x="219" y="235.031" width="0.994901" height="9" transform="rotate(-90 219 235.031)" fill="#C7CBD8" fill-opacity="0.7"/>
<rect x="224" y="239.01" width="1" height="8.95411" transform="rotate(-180 224 239.01)" fill="#C7CBD8" fill-opacity="0.7"/>
<path fill-rule="evenodd" clip-rule="evenodd" d="M200.9 228.066L197 234.533L200.9 237.12L204.8 234.533L200.9 228.066ZM200.901 241L197.001 235.18L200.901 237.767L204.801 235.18L200.901 241Z" fill="#C7CBD8" fill-opacity="0.7"/>
<rect x="104" y="132.556" width="0.994901" height="9" transform="rotate(-90 104 132.556)" fill="#C7CBD8" fill-opacity="0.7"/>
<rect x="109" y="136.535" width="1" height="8.95411" transform="rotate(-180 109 136.535)" fill="#C7CBD8" fill-opacity="0.7"/>
<rect x="81" y="132.556" width="0.994901" height="9" transform="rotate(-90 81 132.556)" fill="#C7CBD8" fill-opacity="0.7"/>
<rect x="86" y="136.535" width="1" height="8.95411" transform="rotate(-180 86 136.535)" fill="#C7CBD8" fill-opacity="0.7"/>
<rect x="127" y="132.556" width="0.994901" height="9" transform="rotate(-90 127 132.556)" fill="#C7CBD8" fill-opacity="0.7"/>
<rect x="132" y="136.535" width="1" height="8.95411" transform="rotate(-180 132 136.535)" fill="#C7CBD8" fill-opacity="0.7"/>
<rect x="173" y="132.556" width="0.994901" height="9" transform="rotate(-90 173 132.556)" fill="#C7CBD8" fill-opacity="0.7"/>
<rect x="178" y="136.535" width="1" height="8.95411" transform="rotate(-180 178 136.535)" fill="#C7CBD8" fill-opacity="0.7"/>
<rect x="196" y="132.556" width="0.994901" height="9" transform="rotate(-90 196 132.556)" fill="#C7CBD8" fill-opacity="0.7"/>
<rect x="201" y="136.535" width="1" height="8.95411" transform="rotate(-180 201 136.535)" fill="#C7CBD8" fill-opacity="0.7"/>
<rect x="219" y="132.556" width="0.994901" height="9" transform="rotate(-90 219 132.556)" fill="#C7CBD8" fill-opacity="0.7"/>
<rect x="224" y="136.535" width="1" height="8.95411" transform="rotate(-180 224 136.535)" fill="#C7CBD8" fill-opacity="0.7"/>
<path fill-rule="evenodd" clip-rule="evenodd" d="M158 133.633C158 135.005 156.888 136.116 155.517 136.116H153.3V137.331H151.5V136.116H150V134.484H151.5V129.313H150V127.681H151.5V126.586H153.3V127.681H155.517C156.888 127.681 158 128.793 158 130.164C158 130.839 157.731 131.451 157.294 131.899C157.731 132.346 158 132.958 158 133.633ZM153.3 129.178H155.441C155.986 129.178 156.427 129.619 156.427 130.164C156.427 130.703 155.995 131.141 155.458 131.15H153.3V129.178ZM153.3 132.647H155.441C155.986 132.647 156.427 133.089 156.427 133.633C156.427 134.178 155.986 134.62 155.441 134.62H153.3V132.647Z" fill="#C7CBD8" fill-opacity="0.7"/>
<rect x="501" y="577.354" width="1" height="9" transform="rotate(-90 501 577.354)" fill="#C7CBD8" fill-opacity="0.7"/>
<rect x="506" y="581.354" width="1" height="9" transform="rotate(-180 506 581.354)" fill="#C7CBD8" fill-opacity="0.7"/>
<rect x="547" y="577.354" width="1" height="9" transform="rotate(-90 547 577.354)" fill="#C7CBD8" fill-opacity="0.7"/>
<rect x="552" y="581.354" width="1" height="9" transform="rotate(-180 552 581.354)" fill="#C7CBD8" fill-opacity="0.7"/>
<rect x="593" y="577.354" width="1" height="9" transform="rotate(-90 593 577.354)" fill="#C7CBD8" fill-opacity="0.7"/>
<rect x="598" y="581.354" width="1" height="9" transform="rotate(-180 598 581.354)" fill="#C7CBD8" fill-opacity="0.7"/>
<rect x="524" y="577.354" width="1" height="9" transform="rotate(-90 524 577.354)" fill="#C7CBD8" fill-opacity="0.7"/>
<rect x="529" y="581.354" width="1" height="9" transform="rotate(-180 529 581.354)" fill="#C7CBD8" fill-opacity="0.7"/>
<rect x="570" y="577.354" width="1" height="9" transform="rotate(-90 570 577.354)" fill="#C7CBD8" fill-opacity="0.7"/>
<rect x="575" y="581.354" width="1" height="9" transform="rotate(-180 575 581.354)" fill="#C7CBD8" fill-opacity="0.7"/>
<rect x="616" y="577.354" width="1" height="9" transform="rotate(-90 616 577.354)" fill="#C7CBD8" fill-opacity="0.7"/>
<rect x="621" y="581.354" width="1" height="9" transform="rotate(-180 621 581.354)" fill="#C7CBD8" fill-opacity="0.7"/>
<path fill-rule="evenodd" clip-rule="evenodd" d="M482.21 578.911L484.429 581.104H486.42L482.921 577.645C482.528 577.257 481.892 577.257 481.499 577.645L478 581.104H479.991L482.21 578.911ZM482.21 575.298L484.429 573.104H486.42L482.921 576.563C482.528 576.952 481.892 576.952 481.499 576.563L478 573.104H479.991L482.21 575.298Z" fill="#C7CBD8" fill-opacity="0.7"/>
<rect width="1" height="9" transform="matrix(0 -1 -1 0 602 552.354)" fill="#C7CBD8" fill-opacity="0.7"/>
<rect width="1" height="9" transform="matrix(1 0 0 -1 597 556.354)" fill="#C7CBD8" fill-opacity="0.7"/>
<rect width="1" height="9" transform="matrix(0 -1 -1 0 625 552.354)" fill="#C7CBD8" fill-opacity="0.7"/>
<rect width="1" height="9" transform="matrix(1 0 0 -1 620 556.354)" fill="#C7CBD8" fill-opacity="0.7"/>
<rect width="1" height="9" transform="matrix(0 -1 -1 0 556 552.354)" fill="#C7CBD8" fill-opacity="0.7"/>
<rect width="1" height="9" transform="matrix(1 0 0 -1 551 556.354)" fill="#C7CBD8" fill-opacity="0.7"/>
<rect width="1" height="9" transform="matrix(0 -1 -1 0 510 552.354)" fill="#C7CBD8" fill-opacity="0.7"/>
<rect width="1" height="9" transform="matrix(1 0 0 -1 505 556.354)" fill="#C7CBD8" fill-opacity="0.7"/>
<rect width="1" height="9" transform="matrix(0 -1 -1 0 579 552.354)" fill="#C7CBD8" fill-opacity="0.7"/>
<rect width="1" height="9" transform="matrix(1 0 0 -1 574 556.354)" fill="#C7CBD8" fill-opacity="0.7"/>
<rect width="1" height="9" transform="matrix(0 -1 -1 0 533 552.354)" fill="#C7CBD8" fill-opacity="0.7"/>
<rect width="1" height="9" transform="matrix(1 0 0 -1 528 556.354)" fill="#C7CBD8" fill-opacity="0.7"/>
<rect width="1" height="9" transform="matrix(0 -1 -1 0 487 552.354)" fill="#C7CBD8" fill-opacity="0.7"/>
<rect width="1" height="9" transform="matrix(1 0 0 -1 482 556.354)" fill="#C7CBD8" fill-opacity="0.7"/>
<rect x="501" y="604.354" width="1" height="9" transform="rotate(-90 501 604.354)" fill="#C7CBD8" fill-opacity="0.7"/>
<rect x="506" y="608.354" width="1" height="9" transform="rotate(-180 506 608.354)" fill="#C7CBD8" fill-opacity="0.7"/>
<rect x="478" y="604.354" width="1" height="9" transform="rotate(-90 478 604.354)" fill="#C7CBD8" fill-opacity="0.7"/>
<rect x="483" y="608.354" width="1" height="9" transform="rotate(-180 483 608.354)" fill="#C7CBD8" fill-opacity="0.7"/>
<rect x="547" y="604.354" width="1" height="9" transform="rotate(-90 547 604.354)" fill="#C7CBD8" fill-opacity="0.7"/>
<rect x="552" y="608.354" width="1" height="9" transform="rotate(-180 552 608.354)" fill="#C7CBD8" fill-opacity="0.7"/>
<rect x="593" y="604.354" width="1" height="9" transform="rotate(-90 593 604.354)" fill="#C7CBD8" fill-opacity="0.7"/>
<rect x="598" y="608.354" width="1" height="9" transform="rotate(-180 598 608.354)" fill="#C7CBD8" fill-opacity="0.7"/>
<rect x="570" y="604.354" width="1" height="9" transform="rotate(-90 570 604.354)" fill="#C7CBD8" fill-opacity="0.7"/>
<rect x="575" y="608.354" width="1" height="9" transform="rotate(-180 575 608.354)" fill="#C7CBD8" fill-opacity="0.7"/>
<rect x="616" y="604.354" width="1" height="9" transform="rotate(-90 616 604.354)" fill="#C7CBD8" fill-opacity="0.7"/>
<rect x="621" y="608.354" width="1" height="9" transform="rotate(-180 621 608.354)" fill="#C7CBD8" fill-opacity="0.7"/>
<path fill-rule="evenodd" clip-rule="evenodd" d="M526.886 603.633L528.171 599.521H530.338L529.197 603.171L530.683 602.874L530.879 603.855L528.857 604.259L528.205 606.346H531.963L531.511 608.188H527.629L527.629 608.188H525.463L526.546 604.721L525.463 604.938L525.267 603.957L526.886 603.633Z" fill="#C7CBD8" fill-opacity="0.7"/>
<rect x="501" y="631.354" width="1" height="9" transform="rotate(-90 501 631.354)" fill="#C7CBD8" fill-opacity="0.7"/>
<rect x="506" y="635.354" width="1" height="9" transform="rotate(-180 506 635.354)" fill="#C7CBD8" fill-opacity="0.7"/>
<rect x="478" y="631.354" width="1" height="9" transform="rotate(-90 478 631.354)" fill="#C7CBD8" fill-opacity="0.7"/>
<rect x="483" y="635.354" width="1" height="9" transform="rotate(-180 483 635.354)" fill="#C7CBD8" fill-opacity="0.7"/>
<rect x="547" y="631.354" width="1" height="9" transform="rotate(-90 547 631.354)" fill="#C7CBD8" fill-opacity="0.7"/>
<rect x="552" y="635.354" width="1" height="9" transform="rotate(-180 552 635.354)" fill="#C7CBD8" fill-opacity="0.7"/>
<rect x="524" y="631.354" width="1" height="9" transform="rotate(-90 524 631.354)" fill="#C7CBD8" fill-opacity="0.7"/>
<rect x="529" y="635.354" width="1" height="9" transform="rotate(-180 529 635.354)" fill="#C7CBD8" fill-opacity="0.7"/>
<rect x="570" y="631.354" width="1" height="9" transform="rotate(-90 570 631.354)" fill="#C7CBD8" fill-opacity="0.7"/>
<rect x="575" y="635.354" width="1" height="9" transform="rotate(-180 575 635.354)" fill="#C7CBD8" fill-opacity="0.7"/>
<rect x="616" y="631.354" width="1" height="9" transform="rotate(-90 616 631.354)" fill="#C7CBD8" fill-opacity="0.7"/>
<rect x="621" y="635.354" width="1" height="9" transform="rotate(-180 621 635.354)" fill="#C7CBD8" fill-opacity="0.7"/>
<path fill-rule="evenodd" clip-rule="evenodd" d="M597.9 624.354L594 630.855L597.9 633.455L601.8 630.855L597.9 624.354ZM597.901 637.355L594.001 631.505L597.901 634.105L601.801 631.505L597.901 637.355Z" fill="#C7CBD8" fill-opacity="0.7"/>
<rect x="501" y="528.354" width="1" height="9" transform="rotate(-90 501 528.354)" fill="#C7CBD8" fill-opacity="0.7"/>
<rect x="506" y="532.354" width="1" height="9" transform="rotate(-180 506 532.354)" fill="#C7CBD8" fill-opacity="0.7"/>
<rect x="478" y="528.354" width="1" height="9" transform="rotate(-90 478 528.354)" fill="#C7CBD8" fill-opacity="0.7"/>
<rect x="483" y="532.354" width="1" height="9" transform="rotate(-180 483 532.354)" fill="#C7CBD8" fill-opacity="0.7"/>
<rect x="524" y="528.354" width="1" height="9" transform="rotate(-90 524 528.354)" fill="#C7CBD8" fill-opacity="0.7"/>
<rect x="529" y="532.354" width="1" height="9" transform="rotate(-180 529 532.354)" fill="#C7CBD8" fill-opacity="0.7"/>
<rect x="570" y="528.354" width="1" height="9" transform="rotate(-90 570 528.354)" fill="#C7CBD8" fill-opacity="0.7"/>
<rect x="575" y="532.354" width="1" height="9" transform="rotate(-180 575 532.354)" fill="#C7CBD8" fill-opacity="0.7"/>
<rect x="593" y="528.354" width="1" height="9" transform="rotate(-90 593 528.354)" fill="#C7CBD8" fill-opacity="0.7"/>
<rect x="598" y="532.354" width="1" height="9" transform="rotate(-180 598 532.354)" fill="#C7CBD8" fill-opacity="0.7"/>
<rect x="616" y="528.354" width="1" height="9" transform="rotate(-90 616 528.354)" fill="#C7CBD8" fill-opacity="0.7"/>
<rect x="621" y="532.354" width="1" height="9" transform="rotate(-180 621 532.354)" fill="#C7CBD8" fill-opacity="0.7"/>
<path fill-rule="evenodd" clip-rule="evenodd" d="M555 529.437C555 530.816 553.883 531.933 552.504 531.933H550.3V533.155H548.5V531.933H547V530.292H548.5V525.096H547V523.455H548.5V522.355H550.3V523.455H552.504C553.883 523.455 555 524.572 555 525.95C555 526.629 554.729 527.244 554.29 527.694C554.729 528.144 555 528.759 555 529.437ZM550.3 524.959H552.436C552.983 524.959 553.427 525.403 553.427 525.95C553.427 526.493 552.992 526.933 552.452 526.942H550.3V524.959ZM550.3 528.446H552.436C552.983 528.446 553.427 528.89 553.427 529.438C553.427 529.985 552.983 530.429 552.436 530.429H550.3V528.446Z" fill="#C7CBD8" fill-opacity="0.7"/>
<path d="M12 650.667L79 577.167L162 674.167L269 523.667L310.5 577.167" stroke="#C7CBD8" stroke-width="24" stroke-linecap="round" stroke-linejoin="round"/>
<g filter="url(#filter0_d)">
<rect x="286" y="139" width="144" height="144" rx="10" fill="white"/>
</g>
<g filter="url(#filter1_d)">
<rect x="132" y="294.666" width="144" height="144" rx="10" fill="white"/>
</g>
<g filter="url(#filter2_d)">
<rect x="443" y="294.666" width="144" height="144" rx="10" fill="white"/>
</g>
<g filter="url(#filter3_d)">
<rect x="286" y="450.666" width="144" height="144" rx="10" fill="white"/>
</g>
<rect x="168" y="358.666" width="12" height="72" rx="2" transform="rotate(-90 168 358.666)" fill="#7DC7A8"/>
<rect x="168" y="387.666" width="12" height="72" rx="2" transform="rotate(-90 168 387.666)" fill="#7DC7A8"/>
<path fill-rule="evenodd" clip-rule="evenodd" d="M337.698 338.796C336.917 338.015 335.651 338.015 334.87 338.796L329.213 344.453C328.432 345.234 328.432 346.501 329.213 347.282L348.012 366.081C348.793 366.862 348.793 368.128 348.012 368.909L330.042 386.88C329.261 387.661 329.261 388.927 330.042 389.708L335.699 395.365C336.48 396.146 337.746 396.146 338.527 395.365L356.497 377.394C357.279 376.613 358.545 376.613 359.326 377.394L377.296 395.365C378.077 396.146 379.344 396.146 380.125 395.365L385.782 389.708C386.563 388.927 386.563 387.661 385.782 386.88L367.811 368.909C367.03 368.128 367.03 366.862 367.811 366.081L386.61 347.282C387.391 346.501 387.391 345.234 386.61 344.453L380.953 338.796C380.172 338.015 378.906 338.015 378.125 338.796L359.326 357.596C358.545 358.377 357.279 358.377 356.497 357.596L337.698 338.796Z" fill="#515DF6"/>
<path fill-rule="evenodd" clip-rule="evenodd" d="M364 488.666C364 487.561 363.105 486.666 362 486.666H354C352.895 486.666 352 487.561 352 488.666V514.666C352 515.771 351.105 516.666 350 516.666H324C322.895 516.666 322 517.561 322 518.666V526.666C322 527.771 322.895 528.666 324 528.666H350C351.105 528.666 352 529.561 352 530.666V556.666C352 557.771 352.895 558.666 354 558.666H362C363.105 558.666 364 557.771 364 556.666V530.666C364 529.561 364.895 528.666 366 528.666H392C393.105 528.666 394 527.771 394 526.666V518.666C394 517.561 393.105 516.666 392 516.666H366C364.895 516.666 364 515.771 364 514.666V488.666Z" fill="#7DC7A8"/>
<rect width="20" height="111" rx="2" transform="matrix(-1 0 0 1 252 155)" fill="#515DF6"/>
<rect width="20" height="89" rx="2" transform="matrix(-1 0 0 1 211 177)" fill="#515DF6"/>
<rect width="20" height="61" rx="2" transform="matrix(-1 0 0 1 170 205)" fill="#515DF6"/>
<path d="M280 180.666L355.985 291.541L443 156.791L474.484 194.041L503.484 156.791L549 99" stroke="#C7CBD8" stroke-width="12" stroke-linecap="round" stroke-linejoin="round"/>
<path fill-rule="evenodd" clip-rule="evenodd" d="M550 230.438C550 242.581 540.156 252.425 528.013 252.425H507.833V252.426L505.422 252.426V262.666H496.386V252.426L493.978 252.426V177.728H507.832V177.728L513.255 177.728V167.488H522.291V177.728L528.013 177.728C540.156 177.728 550 187.573 550 199.716C550 205.693 547.615 211.114 543.744 215.077C547.615 219.04 550 224.461 550 230.438ZM507.833 190.981H527.41C532.234 190.981 536.145 194.892 536.145 199.716C536.145 204.54 532.234 208.451 527.41 208.451L507.833 208.451V190.981ZM507.833 221.703H527.41C532.234 221.703 536.145 225.614 536.145 230.438C536.145 235.262 532.234 239.173 527.41 239.173H507.833V221.703ZM493.977 252.426V237.968H479.52V252.426H493.977ZM522.291 252.426V262.666H513.255V252.426H522.291ZM505.422 177.728V167.488H496.386V177.728H505.422ZM493.977 177.728V192.186H479.52V177.728H493.977Z" fill="#E6559A"/>
<path d="M355.402 187.166C356.557 185.166 359.443 185.166 360.598 187.166L379.651 220.166C380.805 222.166 379.362 224.666 377.053 224.666H338.947C336.638 224.666 335.195 222.166 336.349 220.166L355.402 187.166Z" fill="#515DF6"/>
<rect width="12" height="106" rx="2" transform="matrix(0.707107 0.707107 0.707107 -0.707107 473 399.62)" fill="#7DC7A8"/>
<path fill-rule="evenodd" clip-rule="evenodd" d="M492 361.666C501.941 361.666 510 353.607 510 343.666C510 333.725 501.941 325.666 492 325.666C482.059 325.666 474 333.725 474 343.666C474 353.607 482.059 361.666 492 361.666ZM492 351.666C496.418 351.666 500 348.085 500 343.666C500 339.248 496.418 335.666 492 335.666C487.582 335.666 484 339.248 484 343.666C484 348.085 487.582 351.666 492 351.666Z" fill="#7DC7A8"/>
<path fill-rule="evenodd" clip-rule="evenodd" d="M538 407.666C547.941 407.666 556 399.607 556 389.666C556 379.725 547.941 371.666 538 371.666C528.059 371.666 520 379.725 520 389.666C520 399.607 528.059 407.666 538 407.666ZM538 397.666C542.418 397.666 546 394.085 546 389.666C546 385.248 542.418 381.666 538 381.666C533.582 381.666 530 385.248 530 389.666C530 394.085 533.582 397.666 538 397.666Z" fill="#7DC7A8"/>
<path fill-rule="evenodd" clip-rule="evenodd" d="M276 522.666C276 482.902 243.764 450.666 204 450.666C164.235 450.666 132 482.902 132 522.666C132 523.779 132.914 524.666 134.027 524.666H199C201.761 524.666 204 526.905 204 529.666V589.666C204 592.427 206.246 594.684 209.001 594.495C246.432 591.927 276 560.749 276 522.666Z" fill="#E6559A"/>
<path fill-rule="evenodd" clip-rule="evenodd" d="M182.812 540.268C185.573 540.268 187.812 542.507 187.812 545.268V606.871C187.812 609.632 185.566 611.889 182.811 611.7C147.173 609.255 118.663 580.876 116.013 545.295C115.807 542.531 118.068 540.268 120.84 540.268H182.812Z" fill="#515DF6"/>
<rect x="587" y="451.666" width="144" height="144" rx="72" transform="rotate(90 587 451.666)" fill="#515DF6"/>
<path fill-rule="evenodd" clip-rule="evenodd" d="M511 475.666C509.895 475.666 509 476.561 509 477.666V522.666V529.666V530.666C509 531.771 509.895 532.666 511 532.666H551C552.105 532.666 553 531.771 553 530.666V522.666C553 521.561 552.105 520.666 551 520.666H521V477.666C521 476.561 520.105 475.666 519 475.666H511Z" fill="#E6559A"/>
<defs>
<filter id="filter0_d" x="270" y="131" width="176" height="176" filterUnits="userSpaceOnUse" color-interpolation-filters="sRGB">
<feFlood flood-opacity="0" result="BackgroundImageFix"/>
<feColorMatrix in="SourceAlpha" type="matrix" values="0 0 0 0 0 0 0 0 0 0 0 0 0 0 0 0 0 0 127 0"/>
<feOffset dy="8"/>
<feGaussianBlur stdDeviation="8"/>
<feColorMatrix type="matrix" values="0 0 0 0 0.537255 0 0 0 0 0.627451 0 0 0 0 0.67451 0 0 0 0.25 0"/>
<feBlend mode="normal" in2="BackgroundImageFix" result="effect1_dropShadow"/>
<feBlend mode="normal" in="SourceGraphic" in2="effect1_dropShadow" result="shape"/>
</filter>
<filter id="filter1_d" x="116" y="286.666" width="176" height="176" filterUnits="userSpaceOnUse" color-interpolation-filters="sRGB">
<feFlood flood-opacity="0" result="BackgroundImageFix"/>
<feColorMatrix in="SourceAlpha" type="matrix" values="0 0 0 0 0 0 0 0 0 0 0 0 0 0 0 0 0 0 127 0"/>
<feOffset dy="8"/>
<feGaussianBlur stdDeviation="8"/>
<feColorMatrix type="matrix" values="0 0 0 0 0.537255 0 0 0 0 0.627451 0 0 0 0 0.67451 0 0 0 0.25 0"/>
<feBlend mode="normal" in2="BackgroundImageFix" result="effect1_dropShadow"/>
<feBlend mode="normal" in="SourceGraphic" in2="effect1_dropShadow" result="shape"/>
</filter>
<filter id="filter2_d" x="427" y="286.666" width="176" height="176" filterUnits="userSpaceOnUse" color-interpolation-filters="sRGB">
<feFlood flood-opacity="0" result="BackgroundImageFix"/>
<feColorMatrix in="SourceAlpha" type="matrix" values="0 0 0 0 0 0 0 0 0 0 0 0 0 0 0 0 0 0 127 0"/>
<feOffset dy="8"/>
<feGaussianBlur stdDeviation="8"/>
<feColorMatrix type="matrix" values="0 0 0 0 0.537255 0 0 0 0 0.627451 0 0 0 0 0.67451 0 0 0 0.25 0"/>
<feBlend mode="normal" in2="BackgroundImageFix" result="effect1_dropShadow"/>
<feBlend mode="normal" in="SourceGraphic" in2="effect1_dropShadow" result="shape"/>
</filter>
<filter id="filter3_d" x="270" y="442.666" width="176" height="176" filterUnits="userSpaceOnUse" color-interpolation-filters="sRGB">
<feFlood flood-opacity="0" result="BackgroundImageFix"/>
<feColorMatrix in="SourceAlpha" type="matrix" values="0 0 0 0 0 0 0 0 0 0 0 0 0 0 0 0 0 0 127 0"/>
<feOffset dy="8"/>
<feGaussianBlur stdDeviation="8"/>
<feColorMatrix type="matrix" values="0 0 0 0 0.537255 0 0 0 0 0.627451 0 0 0 0 0.67451 0 0 0 0.25 0"/>
<feBlend mode="normal" in2="BackgroundImageFix" result="effect1_dropShadow"/>
<feBlend mode="normal" in="SourceGraphic" in2="effect1_dropShadow" result="shape"/>
</filter>
</defs>
</svg>
