<svg width="554" height="607" viewBox="0 0 554 607" fill="none" xmlns="http://www.w3.org/2000/svg">
<path d="M181.269 583H194.869V573.95C201.135 572.85 206.152 570.317 209.919 566.35C213.685 562.35 215.569 557.433 215.569 551.6C215.569 546.433 214.152 542.283 211.319 539.15C208.519 536.017 203.935 533.533 197.569 531.7L184.869 528.1C181.669 527.2 179.335 526.133 177.869 524.9C176.402 523.633 175.669 522.133 175.669 520.4C175.669 518.033 176.802 516.067 179.069 514.5C181.369 512.933 184.169 512.2 187.469 512.3C190.935 512.4 193.885 513.45 196.319 515.45C198.785 517.417 200.369 520 201.069 523.2L215.069 520.7C213.669 515.2 211.235 510.733 207.769 507.3C204.335 503.833 200.035 501.533 194.869 500.4V491.1H181.269V500.1C175.335 501.067 170.669 503.4 167.269 507.1C163.869 510.8 162.169 515.467 162.169 521.1C162.169 530.467 167.302 536.733 177.569 539.9L195.369 545.4C199.835 546.867 202.069 549.267 202.069 552.6C202.069 555.2 200.819 557.383 198.319 559.15C195.852 560.917 192.735 561.8 188.969 561.8C184.969 561.8 181.519 560.633 178.619 558.3C175.752 555.967 173.869 552.833 172.969 548.9L159.469 551C160.369 557.067 162.735 562.1 166.569 566.1C170.435 570.1 175.335 572.683 181.269 573.85V583Z" fill="#7DC7A8"/>
<rect x="469" y="224" width="1" height="9" transform="rotate(-90 469 224)" fill="#C7CBD8" fill-opacity="0.7"/>
<rect x="474" y="228" width="1" height="9" transform="rotate(-180 474 228)" fill="#C7CBD8" fill-opacity="0.7"/>
<rect x="515" y="224" width="1" height="9" transform="rotate(-90 515 224)" fill="#C7CBD8" fill-opacity="0.7"/>
<rect x="520" y="228" width="1" height="9" transform="rotate(-180 520 228)" fill="#C7CBD8" fill-opacity="0.7"/>
<rect x="492" y="224" width="1" height="9" transform="rotate(-90 492 224)" fill="#C7CBD8" fill-opacity="0.7"/>
<rect x="497" y="228" width="1" height="9" transform="rotate(-180 497 228)" fill="#C7CBD8" fill-opacity="0.7"/>
<rect x="538" y="224" width="1" height="9" transform="rotate(-90 538 224)" fill="#C7CBD8" fill-opacity="0.7"/>
<rect x="543" y="228" width="1" height="9" transform="rotate(-180 543 228)" fill="#C7CBD8" fill-opacity="0.7"/>
<path fill-rule="evenodd" clip-rule="evenodd" d="M450.21 225.556L452.429 227.75H454.42L450.921 224.291C450.528 223.902 449.892 223.902 449.499 224.291L446 227.75H447.991L450.21 225.556ZM450.21 221.943L452.429 219.75H454.42L450.921 223.209C450.528 223.597 449.892 223.597 449.499 223.209L446 219.75H447.991L450.21 221.943Z" fill="#C7CBD8" fill-opacity="0.7"/>
<rect width="1" height="9" transform="matrix(0 -1 -1 0 524 199)" fill="#C7CBD8" fill-opacity="0.7"/>
<rect width="1" height="9" transform="matrix(1 0 0 -1 519 203)" fill="#C7CBD8" fill-opacity="0.7"/>
<rect width="1" height="9" transform="matrix(0 -1 -1 0 478 199)" fill="#C7CBD8" fill-opacity="0.7"/>
<rect width="1" height="9" transform="matrix(1 0 0 -1 473 203)" fill="#C7CBD8" fill-opacity="0.7"/>
<rect width="1" height="9" transform="matrix(0 -1 -1 0 547 199)" fill="#C7CBD8" fill-opacity="0.7"/>
<rect width="1" height="9" transform="matrix(1 0 0 -1 542 203)" fill="#C7CBD8" fill-opacity="0.7"/>
<rect width="1" height="9" transform="matrix(0 -1 -1 0 501 199)" fill="#C7CBD8" fill-opacity="0.7"/>
<rect width="1" height="9" transform="matrix(1 0 0 -1 496 203)" fill="#C7CBD8" fill-opacity="0.7"/>
<rect width="1" height="9" transform="matrix(0 -1 -1 0 455 199)" fill="#C7CBD8" fill-opacity="0.7"/>
<rect width="1" height="9" transform="matrix(1 0 0 -1 450 203)" fill="#C7CBD8" fill-opacity="0.7"/>
<rect x="469" y="251" width="1" height="9" transform="rotate(-90 469 251)" fill="#C7CBD8" fill-opacity="0.7"/>
<rect x="474" y="255" width="1" height="9" transform="rotate(-180 474 255)" fill="#C7CBD8" fill-opacity="0.7"/>
<rect x="446" y="251" width="1" height="9" transform="rotate(-90 446 251)" fill="#C7CBD8" fill-opacity="0.7"/>
<rect x="451" y="255" width="1" height="9" transform="rotate(-180 451 255)" fill="#C7CBD8" fill-opacity="0.7"/>
<rect x="515" y="251" width="1" height="9" transform="rotate(-90 515 251)" fill="#C7CBD8" fill-opacity="0.7"/>
<rect x="520" y="255" width="1" height="9" transform="rotate(-180 520 255)" fill="#C7CBD8" fill-opacity="0.7"/>
<rect x="538" y="251" width="1" height="9" transform="rotate(-90 538 251)" fill="#C7CBD8" fill-opacity="0.7"/>
<rect x="543" y="255" width="1" height="9" transform="rotate(-180 543 255)" fill="#C7CBD8" fill-opacity="0.7"/>
<path fill-rule="evenodd" clip-rule="evenodd" d="M494.886 250.279L496.171 246.167H498.338L497.197 249.817L498.683 249.519L498.879 250.5L496.857 250.904L496.205 252.991H499.963L499.511 254.833H495.629L495.629 254.833H493.463L494.546 251.367L493.463 251.583L493.267 250.603L494.886 250.279Z" fill="#C7CBD8" fill-opacity="0.7"/>
<rect x="469" y="278" width="1" height="9" transform="rotate(-90 469 278)" fill="#C7CBD8" fill-opacity="0.7"/>
<rect x="474" y="282" width="1" height="9" transform="rotate(-180 474 282)" fill="#C7CBD8" fill-opacity="0.7"/>
<rect x="446" y="278" width="1" height="9" transform="rotate(-90 446 278)" fill="#C7CBD8" fill-opacity="0.7"/>
<rect x="451" y="282" width="1" height="9" transform="rotate(-180 451 282)" fill="#C7CBD8" fill-opacity="0.7"/>
<rect x="515" y="278" width="1" height="9" transform="rotate(-90 515 278)" fill="#C7CBD8" fill-opacity="0.7"/>
<rect x="520" y="282" width="1" height="9" transform="rotate(-180 520 282)" fill="#C7CBD8" fill-opacity="0.7"/>
<rect x="492" y="278" width="1" height="9" transform="rotate(-90 492 278)" fill="#C7CBD8" fill-opacity="0.7"/>
<rect x="497" y="282" width="1" height="9" transform="rotate(-180 497 282)" fill="#C7CBD8" fill-opacity="0.7"/>
<rect x="538" y="278" width="1" height="9" transform="rotate(-90 538 278)" fill="#C7CBD8" fill-opacity="0.7"/>
<rect x="543" y="282" width="1" height="9" transform="rotate(-180 543 282)" fill="#C7CBD8" fill-opacity="0.7"/>
<rect x="469" y="175" width="1" height="9" transform="rotate(-90 469 175)" fill="#C7CBD8" fill-opacity="0.7"/>
<rect x="474" y="179" width="1" height="9" transform="rotate(-180 474 179)" fill="#C7CBD8" fill-opacity="0.7"/>
<rect x="446" y="175" width="1" height="9" transform="rotate(-90 446 175)" fill="#C7CBD8" fill-opacity="0.7"/>
<rect x="451" y="179" width="1" height="9" transform="rotate(-180 451 179)" fill="#C7CBD8" fill-opacity="0.7"/>
<rect x="492" y="175" width="1" height="9" transform="rotate(-90 492 175)" fill="#C7CBD8" fill-opacity="0.7"/>
<rect x="497" y="179" width="1" height="9" transform="rotate(-180 497 179)" fill="#C7CBD8" fill-opacity="0.7"/>
<rect x="538" y="175" width="1" height="9" transform="rotate(-90 538 175)" fill="#C7CBD8" fill-opacity="0.7"/>
<rect x="543" y="179" width="1" height="9" transform="rotate(-180 543 179)" fill="#C7CBD8" fill-opacity="0.7"/>
<path fill-rule="evenodd" clip-rule="evenodd" d="M523 176.083C523 177.461 521.883 178.578 520.504 178.578H518.3V179.8H516.5V178.578H515V176.937H516.5V171.741H515V170.1H516.5V169H518.3V170.1H520.504C521.883 170.1 523 171.217 523 172.596C523 173.274 522.729 173.889 522.29 174.339C522.729 174.789 523 175.404 523 176.083ZM518.3 171.604H520.436C520.983 171.604 521.427 172.048 521.427 172.596C521.427 173.138 520.992 173.578 520.452 173.587H518.3V171.604ZM518.3 175.091H520.436C520.983 175.091 521.427 175.535 521.427 176.083C521.427 176.63 520.983 177.074 520.436 177.074H518.3V175.091Z" fill="#C7CBD8" fill-opacity="0.7"/>
<rect x="271" y="156" width="140" height="140" rx="8" stroke="#EEEEEE" stroke-width="4"/>
<rect x="117" y="313" width="140" height="140" rx="8" stroke="#EEEEEE" stroke-width="4"/>
<rect x="151" y="374.666" width="12" height="72" rx="2" transform="rotate(-90 151 374.666)" fill="#515DF6"/>
<rect x="151" y="403.666" width="12" height="72" rx="2" transform="rotate(-90 151 403.666)" fill="#515DF6"/>
<rect x="445" y="327" width="18" height="109" rx="1" fill="#515DF6" stroke="#515DF6" stroke-width="2"/>
<rect x="486" y="349" width="18" height="87" rx="1" fill="#515DF6" stroke="#515DF6" stroke-width="2"/>
<rect x="527" y="377" width="18" height="59" rx="1" fill="#515DF6" stroke="#515DF6" stroke-width="2"/>
<mask id="path-56-inside-1" fill="white">
<rect width="20" height="111" rx="2" transform="matrix(-1 0 0 1 102 480)"/>
</mask>
<rect width="20" height="111" rx="2" transform="matrix(-1 0 0 1 102 480)" stroke="#E6559A" stroke-width="8" mask="url(#path-56-inside-1)"/>
<mask id="path-57-inside-2" fill="white">
<rect width="20" height="89" rx="2" transform="matrix(-1 0 0 1 61 502)"/>
</mask>
<rect width="20" height="89" rx="2" transform="matrix(-1 0 0 1 61 502)" stroke="#E6559A" stroke-width="8" mask="url(#path-57-inside-2)"/>
<mask id="path-58-inside-3" fill="white">
<rect width="20" height="61" rx="2" transform="matrix(-1 0 0 1 20 530)"/>
</mask>
<rect width="20" height="61" rx="2" transform="matrix(-1 0 0 1 20 530)" stroke="#E6559A" stroke-width="8" mask="url(#path-58-inside-3)"/>
<path d="M267 195.666L342.985 306.541L430 171.791L461.484 209.041L490.484 171.791L547.5 99.1662" stroke="#EEEEEE" stroke-width="12" stroke-linecap="round" stroke-linejoin="round"/>
<path d="M338.402 202.5C339.557 200.5 342.443 200.5 343.598 202.5L362.651 235.5C363.805 237.5 362.362 240 360.053 240H321.947C319.638 240 318.195 237.5 319.349 235.5L338.402 202.5Z" fill="#E6559A"/>
<rect x="2" y="2" width="140" height="140" rx="70" transform="matrix(0 1 1 0 269 463)" stroke="#515DF6" stroke-width="4"/>
<path fill-rule="evenodd" clip-rule="evenodd" d="M345 487C346.105 487 347 487.895 347 489V534V541V542C347 543.105 346.105 544 345 544H305C303.895 544 303 543.105 303 542V534C303 532.895 303.895 532 305 532H335V489C335 487.895 335.895 487 337 487H345Z" fill="#E6559A"/>
<rect x="147" y="265.846" width="15.9043" height="31.1532" rx="2" fill="#7DC7A8"/>
<rect x="204.653" y="265.846" width="15.9043" height="31.1532" rx="2" fill="#7DC7A8"/>
<rect x="108" y="208" width="20" height="32" fill="#7DC7A8"/>
<ellipse cx="108" cy="224" rx="8" ry="16" fill="#CADCD4"/>
<rect x="245.999" y="163.194" width="124" height="124" rx="62" transform="rotate(90 245.999 163.194)" fill="#7DC7A8" stroke="#7DC7A8" stroke-width="4"/>
<circle cx="154.999" cy="216" r="8" fill="white"/>
<circle cx="250.999" cy="216" r="8" fill="#7DC7A8"/>
<path fill-rule="evenodd" clip-rule="evenodd" d="M146.999 185.112C146.999 186.216 147.898 187.125 148.994 186.988C156.889 185.998 162.999 179.218 162.999 171C162.999 162.783 156.889 156.002 148.994 155.013C147.898 154.875 146.999 155.784 146.999 156.889V185.112Z" fill="#7DC7A8"/>
<path d="M168 177.243C168 177.243 173.261 174.411 183.785 174.411C194.308 174.411 200.885 177.243 200.885 177.243" stroke="#CADCD4" stroke-width="4" stroke-linecap="square"/>
<rect x="304" y="379.72" width="0.994901" height="9" transform="rotate(-90 304 379.72)" fill="#C7CBD8" fill-opacity="0.7"/>
<rect x="309" y="383.699" width="1" height="8.95411" transform="rotate(-180 309 383.699)" fill="#C7CBD8" fill-opacity="0.7"/>
<rect x="350" y="379.72" width="0.994901" height="9" transform="rotate(-90 350 379.72)" fill="#C7CBD8" fill-opacity="0.7"/>
<rect x="355" y="383.699" width="1" height="8.95411" transform="rotate(-180 355 383.699)" fill="#C7CBD8" fill-opacity="0.7"/>
<rect x="396" y="379.72" width="0.994901" height="9" transform="rotate(-90 396 379.72)" fill="#C7CBD8" fill-opacity="0.7"/>
<rect x="401" y="383.699" width="1" height="8.95411" transform="rotate(-180 401 383.699)" fill="#C7CBD8" fill-opacity="0.7"/>
<rect x="327" y="379.72" width="0.994901" height="9" transform="rotate(-90 327 379.72)" fill="#C7CBD8" fill-opacity="0.7"/>
<rect x="332" y="383.699" width="1" height="8.95411" transform="rotate(-180 332 383.699)" fill="#C7CBD8" fill-opacity="0.7"/>
<rect x="373" y="379.72" width="0.994901" height="9" transform="rotate(-90 373 379.72)" fill="#C7CBD8" fill-opacity="0.7"/>
<rect x="378" y="383.699" width="1" height="8.95411" transform="rotate(-180 378 383.699)" fill="#C7CBD8" fill-opacity="0.7"/>
<path fill-rule="evenodd" clip-rule="evenodd" d="M285.21 381.273L287.424 383.451H289.42L285.923 380.011C285.529 379.624 284.891 379.624 284.497 380.011L281 383.451H282.996L285.21 381.273ZM285.21 377.668L287.424 375.491H289.42L285.923 378.931C285.529 379.318 284.891 379.318 284.497 378.931L281 375.491H282.996L285.21 377.668Z" fill="#C7CBD8" fill-opacity="0.7"/>
<rect width="0.994901" height="9" transform="matrix(0 -1 -1 0 405 354.847)" fill="#C7CBD8" fill-opacity="0.7"/>
<rect width="1" height="8.95411" transform="matrix(1 0 0 -1 400 358.827)" fill="#C7CBD8" fill-opacity="0.7"/>
<rect width="0.994901" height="9" transform="matrix(0 -1 -1 0 359 354.847)" fill="#C7CBD8" fill-opacity="0.7"/>
<rect width="1" height="8.95411" transform="matrix(1 0 0 -1 354 358.827)" fill="#C7CBD8" fill-opacity="0.7"/>
<rect width="0.994901" height="9" transform="matrix(0 -1 -1 0 313 354.847)" fill="#C7CBD8" fill-opacity="0.7"/>
<rect width="1" height="8.95411" transform="matrix(1 0 0 -1 308 358.827)" fill="#C7CBD8" fill-opacity="0.7"/>
<rect width="0.994901" height="9" transform="matrix(0 -1 -1 0 382 354.847)" fill="#C7CBD8" fill-opacity="0.7"/>
<rect width="1" height="8.95411" transform="matrix(1 0 0 -1 377 358.827)" fill="#C7CBD8" fill-opacity="0.7"/>
<rect width="0.994901" height="9" transform="matrix(0 -1 -1 0 336 354.847)" fill="#C7CBD8" fill-opacity="0.7"/>
<rect width="1" height="8.95411" transform="matrix(1 0 0 -1 331 358.827)" fill="#C7CBD8" fill-opacity="0.7"/>
<rect width="0.994901" height="9" transform="matrix(0 -1 -1 0 290 354.847)" fill="#C7CBD8" fill-opacity="0.7"/>
<rect width="1" height="8.95411" transform="matrix(1 0 0 -1 285 358.827)" fill="#C7CBD8" fill-opacity="0.7"/>
<rect x="304" y="406.582" width="0.994901" height="9" transform="rotate(-90 304 406.582)" fill="#C7CBD8" fill-opacity="0.7"/>
<rect x="309" y="410.562" width="1" height="8.95411" transform="rotate(-180 309 410.562)" fill="#C7CBD8" fill-opacity="0.7"/>
<rect x="281" y="406.582" width="0.994901" height="9" transform="rotate(-90 281 406.582)" fill="#C7CBD8" fill-opacity="0.7"/>
<rect x="286" y="410.562" width="1" height="8.95411" transform="rotate(-180 286 410.562)" fill="#C7CBD8" fill-opacity="0.7"/>
<rect x="350" y="406.582" width="0.994901" height="9" transform="rotate(-90 350 406.582)" fill="#C7CBD8" fill-opacity="0.7"/>
<rect x="355" y="410.562" width="1" height="8.95411" transform="rotate(-180 355 410.562)" fill="#C7CBD8" fill-opacity="0.7"/>
<rect x="396" y="406.582" width="0.994901" height="9" transform="rotate(-90 396 406.582)" fill="#C7CBD8" fill-opacity="0.7"/>
<rect x="401" y="410.562" width="1" height="8.95411" transform="rotate(-180 401 410.562)" fill="#C7CBD8" fill-opacity="0.7"/>
<rect x="373" y="406.582" width="0.994901" height="9" transform="rotate(-90 373 406.582)" fill="#C7CBD8" fill-opacity="0.7"/>
<rect x="378" y="410.562" width="1" height="8.95411" transform="rotate(-180 378 410.562)" fill="#C7CBD8" fill-opacity="0.7"/>
<path fill-rule="evenodd" clip-rule="evenodd" d="M329.888 405.859L331.171 401.773H333.338L332.199 405.399L333.682 405.104L333.879 406.085L331.857 406.487L331.205 408.563H334.963L334.511 410.396H330.629L330.629 410.396H328.463L329.546 406.947L328.463 407.162L328.266 406.182L329.888 405.859Z" fill="#C7CBD8" fill-opacity="0.7"/>
<rect x="304" y="433.444" width="0.994901" height="9" transform="rotate(-90 304 433.444)" fill="#C7CBD8" fill-opacity="0.7"/>
<rect x="309" y="437.424" width="1" height="8.95411" transform="rotate(-180 309 437.424)" fill="#C7CBD8" fill-opacity="0.7"/>
<rect x="281" y="433.444" width="0.994901" height="9" transform="rotate(-90 281 433.444)" fill="#C7CBD8" fill-opacity="0.7"/>
<rect x="286" y="437.424" width="1" height="8.95411" transform="rotate(-180 286 437.424)" fill="#C7CBD8" fill-opacity="0.7"/>
<rect x="350" y="433.444" width="0.994901" height="9" transform="rotate(-90 350 433.444)" fill="#C7CBD8" fill-opacity="0.7"/>
<rect x="355" y="437.424" width="1" height="8.95411" transform="rotate(-180 355 437.424)" fill="#C7CBD8" fill-opacity="0.7"/>
<rect x="327" y="433.444" width="0.994901" height="9" transform="rotate(-90 327 433.444)" fill="#C7CBD8" fill-opacity="0.7"/>
<rect x="332" y="437.424" width="1" height="8.95411" transform="rotate(-180 332 437.424)" fill="#C7CBD8" fill-opacity="0.7"/>
<rect x="373" y="433.444" width="0.994901" height="9" transform="rotate(-90 373 433.444)" fill="#C7CBD8" fill-opacity="0.7"/>
<rect x="378" y="437.424" width="1" height="8.95411" transform="rotate(-180 378 437.424)" fill="#C7CBD8" fill-opacity="0.7"/>
<path fill-rule="evenodd" clip-rule="evenodd" d="M400.9 426.48L397 432.947L400.9 435.534L404.8 432.947L400.9 426.48ZM400.901 439.414L397.001 433.594L400.901 436.18L404.801 433.594L400.901 439.414Z" fill="#C7CBD8" fill-opacity="0.7"/>
<rect x="304" y="330.97" width="0.994901" height="9" transform="rotate(-90 304 330.97)" fill="#C7CBD8" fill-opacity="0.7"/>
<rect x="309" y="334.949" width="1" height="8.95411" transform="rotate(-180 309 334.949)" fill="#C7CBD8" fill-opacity="0.7"/>
<rect x="281" y="330.97" width="0.994901" height="9" transform="rotate(-90 281 330.97)" fill="#C7CBD8" fill-opacity="0.7"/>
<rect x="286" y="334.949" width="1" height="8.95411" transform="rotate(-180 286 334.949)" fill="#C7CBD8" fill-opacity="0.7"/>
<rect x="327" y="330.97" width="0.994901" height="9" transform="rotate(-90 327 330.97)" fill="#C7CBD8" fill-opacity="0.7"/>
<rect x="332" y="334.949" width="1" height="8.95411" transform="rotate(-180 332 334.949)" fill="#C7CBD8" fill-opacity="0.7"/>
<rect x="373" y="330.97" width="0.994901" height="9" transform="rotate(-90 373 330.97)" fill="#C7CBD8" fill-opacity="0.7"/>
<rect x="378" y="334.949" width="1" height="8.95411" transform="rotate(-180 378 334.949)" fill="#C7CBD8" fill-opacity="0.7"/>
<rect x="396" y="330.97" width="0.994901" height="9" transform="rotate(-90 396 330.97)" fill="#C7CBD8" fill-opacity="0.7"/>
<rect x="401" y="334.949" width="1" height="8.95411" transform="rotate(-180 401 334.949)" fill="#C7CBD8" fill-opacity="0.7"/>
<path fill-rule="evenodd" clip-rule="evenodd" d="M358 332.047C358 333.418 356.888 334.53 355.517 334.53H353.3V335.745H351.5V334.53H350V332.897H351.5V327.727H350V326.095H351.5V325H353.3V326.095H355.517C356.888 326.095 358 327.206 358 328.578C358 329.253 357.731 329.865 357.294 330.312C357.731 330.76 358 331.372 358 332.047ZM353.3 327.591H355.441C355.986 327.591 356.427 328.033 356.427 328.578C356.427 329.117 355.994 329.555 355.457 329.564H353.3V327.591ZM353.3 331.061H355.441C355.986 331.061 356.427 331.502 356.427 332.047C356.427 332.592 355.986 333.034 355.441 333.034H353.3V331.061Z" fill="#C7CBD8" fill-opacity="0.7"/>
<path d="M498.536 490.464C496.583 488.512 493.417 488.512 491.464 490.464L459.645 522.284C457.692 524.237 457.692 527.403 459.645 529.355C461.597 531.308 464.763 531.308 466.716 529.355L495 501.071L523.284 529.355C525.237 531.308 528.403 531.308 530.355 529.355C532.308 527.403 532.308 524.237 530.355 522.284L498.536 490.464ZM500 576L500 494L490 494L490 576L500 576Z" fill="#7DC7A8"/>
<mask id="path-129-inside-4" fill="white">
<path fill-rule="evenodd" clip-rule="evenodd" d="M28 311.027C28 309.914 28.8866 309 30 309C69.7645 309 102 341.236 102 381C102 420.765 69.7645 453 30 453C28.8866 453 28 452.086 28 450.973L28 311.027Z"/>
</mask>
<path d="M98 381C98 343.445 67.5554 313 30 313V305C71.9736 305 106 339.026 106 381H98ZM30 449C67.5554 449 98 418.555 98 381H106C106 422.974 71.9736 457 30 457V449ZM24 450.973L24 311.027H32L32 450.973H24ZM30 457C26.6066 457 24 454.224 24 450.973H32C32 449.948 31.1665 449 30 449V457ZM30 313C31.1665 313 32 312.052 32 311.027H24C24 307.776 26.6066 305 30 305V313Z" fill="#7DC7A8" mask="url(#path-129-inside-4)"/>
</svg>
