<svg width="36" height="40" viewBox="0 0 36 40" fill="none" xmlns="http://www.w3.org/2000/svg">
<path fill-rule="evenodd" clip-rule="evenodd" d="M26.4981 31.7268C23.9981 33.1726 21.0957 34 18 34C8.61116 34 1 26.3888 1 17C1 7.61116 8.61116 0 18 0C27.3888 0 35 7.61116 35 17C35 23.2632 31.613 28.7353 26.5706 31.6846C26.5323 31.65 26.4938 31.6152 26.4549 31.58L26.4981 31.7268ZM36 39.7391C35.9473 39.7809 35.8945 39.8225 35.8415 39.8638C35.8936 39.9086 35.9464 39.954 36 40V39.7391ZM21.7851 21.22C22.9577 21.22 23.8834 20.22 23.8834 19C23.8834 17.78 22.9577 16.78 21.7851 16.78C20.6126 16.78 19.6869 17.78 19.6869 19C19.6869 20.22 20.6331 21.22 21.7851 21.22ZM12.1783 19C12.1783 17.78 13.104 16.78 14.2766 16.78C15.4491 16.78 16.3954 17.78 16.3749 19C16.3749 20.22 15.4491 21.22 14.2766 21.22C13.1246 21.22 12.1783 20.22 12.1783 19ZM27.1749 11.42C27.1749 11.42 30.1371 16.64 30.1371 23.08C30.1371 23.08 28.3886 25.98 23.8423 26.12C23.8423 26.12 23.1017 25.26 22.4846 24.5C25.1794 23.76 26.208 22.12 26.208 22.12C25.3646 22.66 24.5623 23.04 23.8423 23.3C19.4101 25.1098 14.4779 24.4905 11.0057 22.6C10.9956 22.5934 10.9587 22.5728 10.9042 22.5424C10.7337 22.4472 10.3916 22.2561 10.1623 22.1C10.1623 22.1 11.1497 23.7 13.7623 24.46C13.1451 25.22 12.384 26.12 12.384 26.12C7.83771 25.98 6.10971 23.08 6.10971 23.08C6.10971 16.64 9.072 11.42 9.072 11.42C12.0343 9.26 14.8526 9.32 14.8526 9.32L15.0583 9.56C11.3554 10.6 9.648 12.18 9.648 12.18C9.648 12.18 10.1006 11.94 10.8617 11.6C15.6018 9.5757 21.342 9.57617 26.2286 12.18C26.2286 12.18 24.6034 10.68 21.1063 9.64L21.3943 9.32C21.3943 9.32 24.2126 9.26 27.1749 11.42Z" fill="#36B27E"/>
<circle cx="18" cy="18" r="15" stroke="#36B27E" stroke-width="6"/>
</svg>
