<svg width="16" height="16" viewBox="0 0 16 16" fill="none" xmlns="http://www.w3.org/2000/svg">
<path d="M4.13375 13.9999H1.23125V4.65306H4.13375V13.9999ZM2.68094 3.37806C1.75281 3.37806 1 2.60931 1 1.68118C1 1.23537 1.1771 0.807816 1.49234 0.492579C1.80757 0.177342 2.23513 0.000244141 2.68094 0.000244141C3.12675 0.000244141 3.5543 0.177342 3.86954 0.492579C4.18478 0.807816 4.36188 1.23537 4.36188 1.68118C4.36188 2.60931 3.60875 3.37806 2.68094 3.37806ZM14.9969 13.9999H12.1006V9.44993C12.1006 8.36556 12.0787 6.97493 10.5916 6.97493C9.0825 6.97493 8.85125 8.15306 8.85125 9.37181V13.9999H5.95188V4.65306H8.73562V5.92806H8.77625C9.16375 5.19368 10.1103 4.41868 11.5225 4.41868C14.46 4.41868 15 6.35306 15 8.86556V13.9999H14.9969Z" fill="white"/>
</svg>
