<svg width="16" height="16" viewBox="0 0 16 16" fill="none" xmlns="http://www.w3.org/2000/svg">
<path d="M14.3553 4.74125C14.3655 4.88337 14.3655 5.02553 14.3655 5.16765C14.3655 9.50265 11.066 14.4976 5.03553 14.4976C3.17766 14.4976 1.45178 13.9595 0 13.0255C0.263969 13.056 0.51775 13.0661 0.791875 13.0661C2.32484 13.0661 3.73603 12.5484 4.86294 11.6651C3.42131 11.6347 2.21319 10.6905 1.79694 9.391C2 9.42143 2.20303 9.44175 2.41625 9.44175C2.71066 9.44175 3.00509 9.40112 3.27919 9.33009C1.77666 9.0255 0.649719 7.70572 0.649719 6.11181V6.07122C1.08625 6.31487 1.59391 6.46715 2.13194 6.48743C1.24869 5.89859 0.670031 4.89353 0.670031 3.75647C0.670031 3.14734 0.832437 2.58897 1.11672 2.10165C2.73094 4.0915 5.15734 5.39097 7.87812 5.53312C7.82737 5.28947 7.79691 5.03569 7.79691 4.78187C7.79691 2.97475 9.25884 1.50269 11.0761 1.50269C12.0202 1.50269 12.873 1.89862 13.472 2.53822C14.2131 2.39609 14.9238 2.12197 15.5532 1.74634C15.3096 2.50778 14.7918 3.14737 14.1116 3.55344C14.7715 3.4824 15.4111 3.29962 15.9999 3.04584C15.5533 3.69556 14.9949 4.27422 14.3553 4.74125Z" fill="white"/>
</svg>
